999
dxflib 3.17.0.0
  0
SECTION
  2
HEADER
  9
$ACADVER
  1
AC1015
  9
$HANDSEED
  5
FFFF
  9
$DIMADEC
 70
0
  9
$DIMASZ
 40
2.5
  9
$DIMAUNIT
 70
0
  9
$DIMAZIN
 70
2
  9
$DIMDEC
 70
4
  9
$DIMDSEP
 70
46
  9
$DIMEXE
 40
1.25
  9
$DIMEXO
 40
0.625
  9
$DIMGAP
 40
0.625
  9
$DIMLUNIT
 70
2
  9
$DIMSCALE
 40
1.0
  9
$DIMTSZ
 40
0.0
  9
$DIMTXT
 40
2.5
  9
$DIMZIN
 70
8
  9
$DWGCODEPAGE
  3
ANSI_1252
  9
$INSUNITS
 70
4
  9
$LTSCALE
 40
1.0
  9
$MAXACTVP
 70
64
  9
$MEASUREMENT
 70
1
  9
$PDMODE
 70
0
  9
$PDSIZE
 40
0.0
  0
ENDSEC
  0
SECTION
  2
TABLES
  0
TABLE
  2
VPORT
  5
8
100
AcDbSymbolTable
 70
1
  0
VPORT
  5
30
100
AcDbSymbolTableRecord
100
AcDbViewportTableRecord
  2
*Active
 70
0
 10
0.0
 20
0.0
 11
1.0
 21
1.0
 12
286.3055555555554861
 22
148.5
 13
0.0
 23
0.0
 14
10.0
 24
10.0
 15
10.0
 25
10.0
 16
0.0
 26
0.0
 36
1.0
 17
0.0
 27
0.0
 37
0.0
 40
297.0
 41
1.92798353909465
 42
50.0
 43
0.0
 44
0.0
 50
0.0
 51
0.0
 71
0
 72
100
 73
1
 74
3
 75
1
 76
1
 77
0
 78
0
281
0
 65
1
110
0.0
120
0.0
130
0.0
111
1.0
121
0.0
131
0.0
112
0.0
122
1.0
132
0.0
 79
0
146
0.0
  0
ENDTAB
  0
TABLE
  2
LTYPE
  5
5
100
AcDbSymbolTable
 70
41
  0
LTYPE
  5
16
100
AcDbSymbolTableRecord
100
AcDbLinetypeTableRecord
  2
Continuous
 70
0
  3
Solid line
 72
65
 73
0
 40
0.0
  0
LTYPE
  5
31
100
AcDbSymbolTableRecord
100
AcDbLinetypeTableRecord
  2
ACAD_ISO05W100
 70
0
  3
ISO long-dash double-dot ____ .. ____ .. ____ . 
 72
65
 73
6
 40
33.0
 49
24.0
 74
0
 49
-3.0
 74
0
 49
0.0
 74
0
 49
-3.0
 74
0
 49
0.0
 74
0
 49
-3.0
 74
0
  0
LTYPE
  5
32
100
AcDbSymbolTableRecord
100
AcDbLinetypeTableRecord
  2
BORDER
 70
0
  3
Border __ __ . __ __ . __ __ . __ __ . __ __ .
 72
65
 73
6
 40
44.4499999999999957
 49
12.6999999999999993
 74
0
 49
-6.3499999999999996
 74
0
 49
12.6999999999999993
 74
0
 49
-6.3499999999999996
 74
0
 49
0.0
 74
0
 49
-6.3499999999999996
 74
0
  0
LTYPE
  5
33
100
AcDbSymbolTableRecord
100
AcDbLinetypeTableRecord
  2
DASHEDX2
 70
0
  3
Dashed (2x) ____  ____  ____  ____  ____  ___
 72
65
 73
2
 40
38.0999999999999943
 49
25.3999999999999986
 74
0
 49
-12.6999999999999993
 74
0
  0
LTYPE
  5
34
100
AcDbSymbolTableRecord
100
AcDbLinetypeTableRecord
  2
ACAD_ISO02W100
 70
0
  3
ISO dash __ __ __ __ __ __ __ __ __ __ __ __ __
 72
65
 73
2
 40
15.0
 49
12.0
 74
0
 49
-3.0
 74
0
  0
LTYPE
  5
35
100
AcDbSymbolTableRecord
100
AcDbLinetypeTableRecord
  2
DIVIDEX2
 70
0
  3
Divide (2x) ________  .  .  ________  .  .  _
 72
65
 73
6
 40
63.5
 49
25.3999999999999986
 74
0
 49
-12.6999999999999993
 74
0
 49
0.0
 74
0
 49
-12.6999999999999993
 74
0
 49
0.0
 74
0
 49
-12.6999999999999993
 74
0
  0
LTYPE
  5
36
100
AcDbSymbolTableRecord
100
AcDbLinetypeTableRecord
  2
DASHDOT2
 70
0
  3
Dash dot (.5x) _._._._._._._._._._._._._._._.
 72
65
 73
4
 40
12.6999999999999993
 49
6.3499999999999996
 74
0
 49
-3.1749999999999998
 74
0
 49
0.0
 74
0
 49
-3.1749999999999998
 74
0
  0
LTYPE
  5
37
100
AcDbSymbolTableRecord
100
AcDbLinetypeTableRecord
  2
ACAD_ISO07W100
 70
0
  3
ISO dot . . . . . . . . . . . . . . . . . . . . 
 72
65
 73
2
 40
3.0
 49
0.0
 74
0
 49
-3.0
 74
0
  0
LTYPE
  5
38
100
AcDbSymbolTableRecord
100
AcDbLinetypeTableRecord
  2
DIVIDE2
 70
0
  3
Divide (.5x) __..__..__..__..__..__..__..__.._
 72
65
 73
6
 40
15.875
 49
6.3499999999999996
 74
0
 49
-3.1749999999999998
 74
0
 49
0.0
 74
0
 49
-3.1749999999999998
 74
0
 49
0.0
 74
0
 49
-3.1749999999999998
 74
0
  0
LTYPE
  5
39
100
AcDbSymbolTableRecord
100
AcDbLinetypeTableRecord
  2
DASHED2
 70
0
  3
Dashed (.5x) _ _ _ _ _ _ _ _ _ _ _ _ _ _ _ _ _ 
 72
65
 73
2
 40
9.5249999999999986
 49
6.3499999999999996
 74
0
 49
-3.1749999999999998
 74
0
  0
LTYPE
  5
3A
100
AcDbSymbolTableRecord
100
AcDbLinetypeTableRecord
  2
CENTERX2
 70
0
  3
Center (2x) ________  __  ________  __  _____
 72
65
 73
4
 40
101.6000000000000085
 49
63.5
 74
0
 49
-12.6999999999999993
 74
0
 49
12.6999999999999993
 74
0
 49
-12.6999999999999993
 74
0
  0
LTYPE
  5
3B
100
AcDbSymbolTableRecord
100
AcDbLinetypeTableRecord
  2
BORDER2
 70
0
  3
Border (.5x) __.__.__.__.__.__.__.__.__.__.__.
 72
65
 73
6
 40
22.2249999999999979
 49
6.3499999999999996
 74
0
 49
-3.1749999999999998
 74
0
 49
6.3499999999999996
 74
0
 49
-3.1749999999999998
 74
0
 49
0.0
 74
0
 49
-3.1749999999999998
 74
0
  0
LTYPE
  5
3C
100
AcDbSymbolTableRecord
100
AcDbLinetypeTableRecord
  2
DASHDOTX2
 70
0
  3
Dash dot (2x) ____  .  ____  .  ____  .  ___
 72
65
 73
4
 40
50.7999999999999972
 49
25.3999999999999986
 74
0
 49
-12.6999999999999993
 74
0
 49
0.0
 74
0
 49
-12.6999999999999993
 74
0
  0
LTYPE
  5
3D
100
AcDbSymbolTableRecord
100
AcDbLinetypeTableRecord
  2
CENTER
 70
0
  3
Center ____ _ ____ _ ____ _ ____ _ ____ _ ____
 72
65
 73
4
 40
50.8000000000000043
 49
31.75
 74
0
 49
-6.3499999999999996
 74
0
 49
6.3499999999999996
 74
0
 49
-6.3499999999999996
 74
0
  0
LTYPE
  5
3E
100
AcDbSymbolTableRecord
100
AcDbLinetypeTableRecord
  2
DASHDOT
 70
0
  3
Dash dot __ . __ . __ . __ . __ . __ . __ . __
 72
65
 73
4
 40
25.3999999999999986
 49
12.6999999999999993
 74
0
 49
-6.3499999999999996
 74
0
 49
0.0
 74
0
 49
-6.3499999999999996
 74
0
  0
LTYPE
  5
14
100
AcDbSymbolTableRecord
100
AcDbLinetypeTableRecord
  2
BYBLOCK
 70
0
  3

 72
65
 73
0
 40
0.0
  0
LTYPE
  5
3F
100
AcDbSymbolTableRecord
100
AcDbLinetypeTableRecord
  2
PHANTOM2
 70
0
  3
Phantom (.5x) ___ _ _ ___ _ _ ___ _ _ ___ _ _
 72
65
 73
6
 40
31.7500000000000036
 49
15.875
 74
0
 49
-3.1749999999999998
 74
0
 49
3.1749999999999998
 74
0
 49
-3.1749999999999998
 74
0
 49
3.1749999999999998
 74
0
 49
-3.1749999999999998
 74
0
  0
LTYPE
  5
40
100
AcDbSymbolTableRecord
100
AcDbLinetypeTableRecord
  2
HIDDEN2
 70
0
  3
Hidden (.5x) _ _ _ _ _ _ _ _ _ _ _ _ _ _ _ _ _ 
 72
65
 73
2
 40
4.7624999999999993
 49
3.1749999999999998
 74
0
 49
-1.5874999999999999
 74
0
  0
LTYPE
  5
41
100
AcDbSymbolTableRecord
100
AcDbLinetypeTableRecord
  2
DOT2
 70
0
  3
Dot (.5x) ........................................
 72
65
 73
2
 40
3.1749999999999998
 49
0.0
 74
0
 49
-3.1749999999999998
 74
0
  0
LTYPE
  5
42
100
AcDbSymbolTableRecord
100
AcDbLinetypeTableRecord
  2
ACAD_ISO12W100
 70
0
  3
ISO dash double-dot __ . . __ . . __ . . __ . . 
 72
65
 73
6
 40
21.0
 49
12.0
 74
0
 49
-3.0
 74
0
 49
0.0
 74
0
 49
-3.0
 74
0
 49
0.0
 74
0
 49
-3.0
 74
0
  0
LTYPE
  5
43
100
AcDbSymbolTableRecord
100
AcDbLinetypeTableRecord
  2
ACAD_ISO09W100
 70
0
  3
ISO long-dash double-short-dash ____ __ __ ____
 72
65
 73
6
 40
45.0
 49
24.0
 74
0
 49
-3.0
 74
0
 49
6.0
 74
0
 49
-3.0
 74
0
 49
6.0
 74
0
 49
-3.0
 74
0
  0
LTYPE
  5
44
100
AcDbSymbolTableRecord
100
AcDbLinetypeTableRecord
  2
ACAD_ISO04W100
 70
0
  3
ISO long-dash dot ____ . ____ . ____ . ____ . _
 72
65
 73
4
 40
30.0
 49
24.0
 74
0
 49
-3.0
 74
0
 49
0.0
 74
0
 49
-3.0
 74
0
  0
LTYPE
  5
45
100
AcDbSymbolTableRecord
100
AcDbLinetypeTableRecord
  2
DOT
 70
0
  3
Dot . . . . . . . . . . . . . . . . . . . . . . . .
 72
65
 73
2
 40
6.3499999999999996
 49
0.0
 74
0
 49
-6.3499999999999996
 74
0
  0
LTYPE
  5
46
100
AcDbSymbolTableRecord
100
AcDbLinetypeTableRecord
  2
ACAD_ISO03W100
 70
0
  3
ISO dash space __    __    __    __    __    __
 72
65
 73
2
 40
30.0
 49
12.0
 74
0
 49
-18.0
 74
0
  0
LTYPE
  5
47
100
AcDbSymbolTableRecord
100
AcDbLinetypeTableRecord
  2
ACAD_ISO14W100
 70
0
  3
ISO dash triple-dot __ . . . __ . . . __ . . . _
 72
65
 73
8
 40
24.0
 49
12.0
 74
0
 49
-3.0
 74
0
 49
0.0
 74
0
 49
-3.0
 74
0
 49
0.0
 74
0
 49
-3.0
 74
0
 49
0.0
 74
0
 49
-3.0
 74
0
  0
LTYPE
  5
48
100
AcDbSymbolTableRecord
100
AcDbLinetypeTableRecord
  2
ACAD_ISO15W100
 70
0
  3
ISO double-dash triple-dot __ __ . . . __ __ . .
 72
65
 73
10
 40
39.0
 49
12.0
 74
0
 49
-3.0
 74
0
 49
12.0
 74
0
 49
-3.0
 74
0
 49
0.0
 74
0
 49
-3.0
 74
0
 49
0.0
 74
0
 49
-3.0
 74
0
 49
0.0
 74
0
 49
-3.0
 74
0
  0
LTYPE
  5
49
100
AcDbSymbolTableRecord
100
AcDbLinetypeTableRecord
  2
PHANTOM
 70
0
  3
Phantom ______  __  __  ______  __  __  ______ 
 72
65
 73
6
 40
63.5000000000000071
 49
31.75
 74
0
 49
-6.3499999999999996
 74
0
 49
6.3499999999999996
 74
0
 49
-6.3499999999999996
 74
0
 49
6.3499999999999996
 74
0
 49
-6.3499999999999996
 74
0
  0
LTYPE
  5
4A
100
AcDbSymbolTableRecord
100
AcDbLinetypeTableRecord
  2
DOTX2
 70
0
  3
Dot (2x) .  .  .  .  .  .  .  .  .  .  .  .  .  .
 72
65
 73
2
 40
12.6999999999999993
 49
0.0
 74
0
 49
-12.6999999999999993
 74
0
  0
LTYPE
  5
4B
100
AcDbSymbolTableRecord
100
AcDbLinetypeTableRecord
  2
ACAD_ISO08W100
 70
0
  3
ISO long-dash short-dash ____ __ ____ __ ____ _
 72
65
 73
4
 40
36.0
 49
24.0
 74
0
 49
-3.0
 74
0
 49
6.0
 74
0
 49
-3.0
 74
0
  0
LTYPE
  5
4C
100
AcDbSymbolTableRecord
100
AcDbLinetypeTableRecord
  2
ACAD_ISO10W100
 70
0
  3
ISO dash dot __ . __ . __ . __ . __ . __ . __ . 
 72
65
 73
4
 40
18.0
 49
12.0
 74
0
 49
-3.0
 74
0
 49
0.0
 74
0
 49
-3.0
 74
0
  0
LTYPE
  5
4D
100
AcDbSymbolTableRecord
100
AcDbLinetypeTableRecord
  2
PHANTOMX2
 70
0
  3
Phantom (2x) ____________    ____    ____   _
 72
65
 73
6
 40
127.0000000000000142
 49
63.5
 74
0
 49
-12.6999999999999993
 74
0
 49
12.6999999999999993
 74
0
 49
-12.6999999999999993
 74
0
 49
12.6999999999999993
 74
0
 49
-12.6999999999999993
 74
0
  0
LTYPE
  5
4E
100
AcDbSymbolTableRecord
100
AcDbLinetypeTableRecord
  2
HIDDENX2
 70
0
  3
Hidden (2x) ____ ____ ____ ____ ____ ____ ____ 
 72
65
 73
2
 40
19.0499999999999972
 49
12.6999999999999993
 74
0
 49
-6.3499999999999996
 74
0
  0
LTYPE
  5
4F
100
AcDbSymbolTableRecord
100
AcDbLinetypeTableRecord
  2
ACAD_ISO11W100
 70
0
  3
ISO double-dash dot __ __ . __ __ . __ __ . __ _
 72
65
 73
6
 40
33.0
 49
12.0
 74
0
 49
-3.0
 74
0
 49
12.0
 74
0
 49
-3.0
 74
0
 49
0.0
 74
0
 49
-3.0
 74
0
  0
LTYPE
  5
50
100
AcDbSymbolTableRecord
100
AcDbLinetypeTableRecord
  2
BORDERX2
 70
0
  3
Border (2x) ____  ____  .  ____  ____  .  ___
 72
65
 73
6
 40
88.8999999999999915
 49
25.3999999999999986
 74
0
 49
-12.6999999999999993
 74
0
 49
25.3999999999999986
 74
0
 49
-12.6999999999999993
 74
0
 49
0.0
 74
0
 49
-12.6999999999999993
 74
0
  0
LTYPE
  5
51
100
AcDbSymbolTableRecord
100
AcDbLinetypeTableRecord
  2
ACAD_ISO13W100
 70
0
  3
ISO double-dash double-dot __ __ . . __ __ . . _
 72
65
 73
8
 40
36.0
 49
12.0
 74
0
 49
-3.0
 74
0
 49
12.0
 74
0
 49
-3.0
 74
0
 49
0.0
 74
0
 49
-3.0
 74
0
 49
0.0
 74
0
 49
-3.0
 74
0
  0
LTYPE
  5
52
100
AcDbSymbolTableRecord
100
AcDbLinetypeTableRecord
  2
DIVIDE
 70
0
  3
Divide ____ . . ____ . . ____ . . ____ . . ____
 72
65
 73
6
 40
31.75
 49
12.6999999999999993
 74
0
 49
-6.3499999999999996
 74
0
 49
0.0
 74
0
 49
-6.3499999999999996
 74
0
 49
0.0
 74
0
 49
-6.3499999999999996
 74
0
  0
LTYPE
  5
53
100
AcDbSymbolTableRecord
100
AcDbLinetypeTableRecord
  2
CENTER2
 70
0
  3
Center (.5x) ___ _ ___ _ ___ _ ___ _ ___ _ ___
 72
65
 73
4
 40
28.5750000000000028
 49
19.0500000000000007
 74
0
 49
-3.1749999999999998
 74
0
 49
3.1749999999999998
 74
0
 49
-3.1749999999999998
 74
0
  0
LTYPE
  5
54
100
AcDbSymbolTableRecord
100
AcDbLinetypeTableRecord
  2
ACAD_ISO06W100
 70
0
  3
ISO long-dash triple-dot ____ ... ____ ... ____
 72
65
 73
8
 40
36.0
 49
24.0
 74
0
 49
-3.0
 74
0
 49
0.0
 74
0
 49
-3.0
 74
0
 49
0.0
 74
0
 49
-3.0
 74
0
 49
0.0
 74
0
 49
-3.0
 74
0
  0
LTYPE
  5
55
100
AcDbSymbolTableRecord
100
AcDbLinetypeTableRecord
  2
DASHED
 70
0
  3
Dashed __ __ __ __ __ __ __ __ __ __ __ __ __ _
 72
65
 73
2
 40
19.0499999999999972
 49
12.6999999999999993
 74
0
 49
-6.3499999999999996
 74
0
  0
LTYPE
  5
15
100
AcDbSymbolTableRecord
100
AcDbLinetypeTableRecord
  2
BYLAYER
 70
0
  3

 72
65
 73
0
 40
0.0
  0
LTYPE
  5
56
100
AcDbSymbolTableRecord
100
AcDbLinetypeTableRecord
  2
HIDDEN
 70
0
  3
Hidden __ __ __ __ __ __ __ __ __ __ __ __ __ __
 72
65
 73
2
 40
9.5249999999999986
 49
6.3499999999999996
 74
0
 49
-3.1749999999999998
 74
0
  0
ENDTAB
  0
TABLE
  2
LAYER
  5
2
100
AcDbSymbolTable
 70
1
  0
LAYER
  5
10
100
AcDbSymbolTableRecord
100
AcDbLayerTableRecord
  2
0
 70
0
 62
7
420
16777215
  6
Continuous
370
25
390
F
  0
ENDTAB
  0
TABLE
  2
STYLE
  5
3
100
AcDbSymbolTable
 70
1
  0
STYLE
  5
57
100
AcDbSymbolTableRecord
100
AcDbTextStyleTableRecord
  2
Standard
 70
0
 40
0.0
 41
1.0
 50
0.0
 71
0
 42
2.5
  3

  4

1001
ACAD
1000
txt
1071
0
  0
ENDTAB
  0
TABLE
  2
VIEW
  5
6
100
AcDbSymbolTable
 70
0
  0
ENDTAB
  0
TABLE
  2
UCS
  5
7
100
AcDbSymbolTable
 70
0
  0
ENDTAB
  0
TABLE
  2
APPID
  5
9
100
AcDbSymbolTable
 70
1
  0
APPID
  5
12
100
AcDbSymbolTableRecord
100
AcDbRegAppTableRecord
  2
ACAD
 70
0
  0
APPID
  5
58
100
AcDbSymbolTableRecord
100
AcDbRegAppTableRecord
  2
QCAD
 70
0
  0
ENDTAB
  0
TABLE
  2
DIMSTYLE
  5
A
100
AcDbSymbolTable
 70
1
100
AcDbDimStyleTable
 71
0
  0
DIMSTYLE
105
27
100
AcDbSymbolTableRecord
100
AcDbDimStyleTableRecord
  2
Standard
 41
2.5
 42
0.625
 43
3.75
 44
1.25
 70
0
 73
0
 74
0
 77
1
 78
8
140
2.5
141
2.5
143
0.03937007874016
147
0.625
171
3
172
1
271
2
272
2
274
3
278
44
283
0
284
8
340
57
  0
ENDTAB
  0
TABLE
  2
BLOCK_RECORD
  5
1
100
AcDbSymbolTable
 70
1
  0
BLOCK_RECORD
  5
1F
100
AcDbSymbolTableRecord
100
AcDbBlockTableRecord
  2
*Model_Space
340
22
  0
BLOCK_RECORD
  5
1B
100
AcDbSymbolTableRecord
100
AcDbBlockTableRecord
  2
*Paper_Space
340
1E
  0
BLOCK_RECORD
  5
23
100
AcDbSymbolTableRecord
100
AcDbBlockTableRecord
  2
*Paper_Space0
340
26
  0
ENDTAB
  0
ENDSEC
  0
SECTION
  2
BLOCKS
  0
BLOCK
  5
20
100
AcDbEntity
  8
0
100
AcDbBlockBegin
  2
*Model_Space
 70
0
 10
0.0
 20
0.0
 30
0.0
  3
*Model_Space
  1

  0
ENDBLK
  5
21
100
AcDbEntity
  8
0
100
AcDbBlockEnd
  0
BLOCK
  5
1C
100
AcDbEntity
 67
1
  8
0
100
AcDbBlockBegin
  2
*Paper_Space
 70
0
 10
0.0
 20
0.0
 30
0.0
  3
*Paper_Space
  1

  0
ENDBLK
  5
1D
100
AcDbEntity
 67
1
  8
0
100
AcDbBlockEnd
  0
BLOCK
  5
24
100
AcDbEntity
  8
0
100
AcDbBlockBegin
  2
*Paper_Space0
 70
0
 10
0.0
 20
0.0
 30
0.0
  3
*Paper_Space0
  1

  0
ENDBLK
  5
25
100
AcDbEntity
  8
0
100
AcDbBlockEnd
  0
ENDSEC
  0
SECTION
  2
ENTITIES
  0
LINE
  5
59
100
AcDbEntity
  8
0
 62
256
370
-1
 48
1.0
  6
BYLAYER
100
AcDbLine
 10
170.0
 20
96.0
 30
0.0
 11
170.0
 21
126.0
 31
0.0
  0
LINE
  5
5A
100
AcDbEntity
  8
0
 62
256
370
-1
 48
1.0
  6
BYLAYER
100
AcDbLine
 10
170.0
 20
126.0
 30
0.0
 11
177.4980010986328125
 21
126.0
 31
0.0
  0
LINE
  5
5B
100
AcDbEntity
  8
0
 62
256
370
-1
 48
1.0
  6
BYLAYER
100
AcDbLine
 10
177.4980010986328125
 20
126.0
 30
0.0
 11
192.5030059814453125
 21
126.0
 31
0.0
  0
LINE
  5
5C
100
AcDbEntity
  8
0
 62
256
370
-1
 48
1.0
  6
BYLAYER
100
AcDbLine
 10
192.5030059814453125
 20
126.0
 30
0.0
 11
200.0
 21
126.0
 31
0.0
  0
LINE
  5
5D
100
AcDbEntity
  8
0
 62
256
370
-1
 48
1.0
  6
BYLAYER
100
AcDbLine
 10
200.0
 20
126.0
 30
0.0
 11
200.0
 21
103.4980010986328125
 31
0.0
  0
LINE
  5
5E
100
AcDbEntity
  8
0
 62
256
370
-1
 48
1.0
  6
BYLAYER
100
AcDbLine
 10
200.0
 20
103.4980010986328125
 30
0.0
 11
200.0
 21
96.0
 31
0.0
  0
LINE
  5
5F
100
AcDbEntity
  8
0
 62
256
370
-1
 48
1.0
  6
BYLAYER
100
AcDbLine
 10
200.0
 20
96.0
 30
0.0
 11
177.4980010986328125
 21
96.0
 31
0.0
  0
LINE
  5
60
100
AcDbEntity
  8
0
 62
256
370
-1
 48
1.0
  6
BYLAYER
100
AcDbLine
 10
177.4980010986328125
 20
96.0
 30
0.0
 11
170.0
 21
96.0
 31
0.0
  0
LINE
  5
61
100
AcDbEntity
  8
0
 62
256
370
-1
 48
1.0
  6
BYLAYER
100
AcDbLine
 10
-38.0
 20
-162.0030059814453125
 30
0.0
 11
-38.0
 21
-172.0
 31
0.0
  0
LINE
  5
62
100
AcDbEntity
  8
0
 62
256
370
-1
 48
1.0
  6
BYLAYER
100
AcDbLine
 10
-38.0
 20
-172.0
 30
0.0
 11
-38.0
 21
-175.0
 31
0.0
  0
LINE
  5
63
100
AcDbEntity
  8
0
 62
256
370
-1
 48
1.0
  6
BYLAYER
100
AcDbLine
 10
-38.0
 20
-175.0
 30
0.0
 11
-158.0
 21
-175.0
 31
0.0
  0
LINE
  5
64
100
AcDbEntity
  8
0
 62
256
370
-1
 48
1.0
  6
BYLAYER
100
AcDbLine
 10
-158.0
 20
-175.0
 30
0.0
 11
-158.0
 21
-172.0
 31
0.0
  0
LINE
  5
65
100
AcDbEntity
  8
0
 62
256
370
-1
 48
1.0
  6
BYLAYER
100
AcDbLine
 10
-158.0
 20
-172.0
 30
0.0
 11
-158.0
 21
-162.0030059814453125
 31
0.0
  0
LINE
  5
66
100
AcDbEntity
  8
0
 62
256
370
-1
 48
1.0
  6
BYLAYER
100
AcDbLine
 10
-158.0
 20
-162.0030059814453125
 30
0.0
 11
-158.0
 21
-22.0
 31
0.0
  0
LINE
  5
67
100
AcDbEntity
  8
0
 62
256
370
-1
 48
1.0
  6
BYLAYER
100
AcDbLine
 10
-158.0
 20
-22.0
 30
0.0
 11
-42.0029983520507812
 21
-22.0
 31
0.0
  0
LINE
  5
68
100
AcDbEntity
  8
0
 62
256
370
-1
 48
1.0
  6
BYLAYER
100
AcDbLine
 10
-42.0029983520507812
 20
-22.0
 30
0.0
 11
-42.0029983520507812
 21
-162.0030059814453125
 31
0.0
  0
LINE
  5
69
100
AcDbEntity
  8
0
 62
256
370
-1
 48
1.0
  6
BYLAYER
100
AcDbLine
 10
-42.0029983520507812
 20
-162.0030059814453125
 30
0.0
 11
-38.0
 21
-162.0030059814453125
 31
0.0
  0
LINE
  5
6A
100
AcDbEntity
  8
0
 62
256
370
-1
 48
1.0
  6
BYLAYER
100
AcDbLine
 10
86.0
 20
60.0
 30
0.0
 11
86.0
 21
90.0
 31
0.0
  0
LINE
  5
6B
100
AcDbEntity
  8
0
 62
256
370
-1
 48
1.0
  6
BYLAYER
100
AcDbLine
 10
86.0
 20
90.0
 30
0.0
 11
94.0
 21
90.0
 31
0.0
  0
LINE
  5
6C
100
AcDbEntity
  8
0
 62
256
370
-1
 48
1.0
  6
BYLAYER
100
AcDbLine
 10
94.0
 20
90.0
 30
0.0
 11
118.0
 21
90.0
 31
0.0
  0
LINE
  5
6D
100
AcDbEntity
  8
0
 62
256
370
-1
 48
1.0
  6
BYLAYER
100
AcDbLine
 10
118.0
 20
90.0
 30
0.0
 11
120.0
 21
90.0
 31
0.0
  0
LINE
  5
6E
100
AcDbEntity
  8
0
 62
256
370
-1
 48
1.0
  6
BYLAYER
100
AcDbLine
 10
120.0
 20
90.0
 30
0.0
 11
121.0
 21
90.0
 31
0.0
  0
LINE
  5
6F
100
AcDbEntity
  8
0
 62
256
370
-1
 48
1.0
  6
BYLAYER
100
AcDbLine
 10
121.0
 20
90.0
 30
0.0
 11
121.0
 21
60.0
 31
0.0
  0
LINE
  5
70
100
AcDbEntity
  8
0
 62
256
370
-1
 48
1.0
  6
BYLAYER
100
AcDbLine
 10
121.0
 20
60.0
 30
0.0
 11
86.0
 21
60.0
 31
0.0
  0
LINE
  5
71
100
AcDbEntity
  8
0
 62
256
370
-1
 48
1.0
  6
BYLAYER
100
AcDbLine
 10
-1.0898541212081909
 20
239.9980010986328125
 30
0.0
 11
-1.076913595199585
 21
239.9980010986328125
 31
0.0
  0
LINE
  5
72
100
AcDbEntity
  8
0
 62
256
370
-1
 48
1.0
  6
BYLAYER
100
AcDbLine
 10
-1.076913595199585
 20
239.9980010986328125
 30
0.0
 11
-0.996999979019165
 21
239.9980010986328125
 31
0.0
  0
LINE
  5
73
100
AcDbEntity
  8
0
 62
256
370
-1
 48
1.0
  6
BYLAYER
100
AcDbLine
 10
-0.996999979019165
 20
239.9980010986328125
 30
0.0
 11
-0.9979749917984009
 21
279.00201416015625
 31
0.0
  0
LINE
  5
74
100
AcDbEntity
  8
0
 62
256
370
-1
 48
1.0
  6
BYLAYER
100
AcDbLine
 10
-0.9979749917984009
 20
279.00201416015625
 30
0.0
 11
-0.9979810118675232
 21
279.241546630859375
 31
0.0
  0
LINE
  5
75
100
AcDbEntity
  8
0
 62
256
370
-1
 48
1.0
  6
BYLAYER
100
AcDbLine
 10
-0.9979810118675232
 20
279.241546630859375
 30
0.0
 11
-0.9979900717735291
 21
279.603668212890625
 31
0.0
  0
LINE
  5
76
100
AcDbEntity
  8
0
 62
256
370
-1
 48
1.0
  6
BYLAYER
100
AcDbLine
 10
-0.9979900717735291
 20
279.603668212890625
 30
0.0
 11
-0.9979975819587708
 21
279.906158447265625
 31
0.0
  0
LINE
  5
77
100
AcDbEntity
  8
0
 62
256
370
-1
 48
1.0
  6
BYLAYER
100
AcDbLine
 10
-0.9979975819587708
 20
279.906158447265625
 30
0.0
 11
-0.9980000257492065
 21
280.00201416015625
 31
0.0
  0
LINE
  5
78
100
AcDbEntity
  8
0
 62
256
370
-1
 48
1.0
  6
BYLAYER
100
AcDbLine
 10
-0.9980000257492065
 20
280.00201416015625
 30
0.0
 11
-1.0898541212081909
 21
280.00201416015625
 31
0.0
  0
LINE
  5
79
100
AcDbEntity
  8
0
 62
256
370
-1
 48
1.0
  6
BYLAYER
100
AcDbLine
 10
-1.0898541212081909
 20
280.00201416015625
 30
0.0
 11
-1.0709999799728394
 21
280.03900146484375
 31
0.0
  0
LINE
  5
7A
100
AcDbEntity
  8
0
 62
256
370
-1
 48
1.0
  6
BYLAYER
100
AcDbLine
 10
-1.0709999799728394
 20
280.03900146484375
 30
0.0
 11
-0.998012363910675
 21
280.49566650390625
 31
0.0
  0
LINE
  5
7B
100
AcDbEntity
  8
0
 62
256
370
-1
 48
1.0
  6
BYLAYER
100
AcDbLine
 10
-0.998012363910675
 20
280.49566650390625
 30
0.0
 11
-0.996999979019165
 21
280.50201416015625
 31
0.0
  0
LINE
  5
7C
100
AcDbEntity
  8
0
 62
256
370
-1
 48
1.0
  6
BYLAYER
100
AcDbLine
 10
-0.996999979019165
 20
280.50201416015625
 30
0.0
 11
-0.9980126619338989
 21
280.50836181640625
 31
0.0
  0
LINE
  5
7D
100
AcDbEntity
  8
0
 62
256
370
-1
 48
1.0
  6
BYLAYER
100
AcDbLine
 10
-0.9980126619338989
 20
280.50836181640625
 30
0.0
 11
-1.0709999799728394
 21
280.96600341796875
 31
0.0
  0
LINE
  5
7E
100
AcDbEntity
  8
0
 62
256
370
-1
 48
1.0
  6
BYLAYER
100
AcDbLine
 10
-1.0709999799728394
 20
280.96600341796875
 30
0.0
 11
-1.284000039100647
 21
281.384002685546875
 31
0.0
  0
LINE
  5
7F
100
AcDbEntity
  8
0
 62
256
370
-1
 48
1.0
  6
BYLAYER
100
AcDbLine
 10
-1.284000039100647
 20
281.384002685546875
 30
0.0
 11
-1.6169999837875366
 21
281.71600341796875
 31
0.0
  0
LINE
  5
80
100
AcDbEntity
  8
0
 62
256
370
-1
 48
1.0
  6
BYLAYER
100
AcDbLine
 10
-1.6169999837875366
 20
281.71600341796875
 30
0.0
 11
-2.0360000133514404
 21
281.928985595703125
 31
0.0
  0
LINE
  5
81
100
AcDbEntity
  8
0
 62
256
370
-1
 48
1.0
  6
BYLAYER
100
AcDbLine
 10
-2.0360000133514404
 20
281.928985595703125
 30
0.0
 11
-2.0480000972747803
 21
281.930908203125
 31
0.0
  0
LINE
  5
82
100
AcDbEntity
  8
0
 62
256
370
-1
 48
1.0
  6
BYLAYER
100
AcDbLine
 10
-2.0480000972747803
 20
281.930908203125
 30
0.0
 11
-2.5
 21
282.00299072265625
 31
0.0
  0
LINE
  5
83
100
AcDbEntity
  8
0
 62
256
370
-1
 48
1.0
  6
BYLAYER
100
AcDbLine
 10
-2.5
 20
282.00299072265625
 30
0.0
 11
-2.9639999866485596
 21
281.928985595703125
 31
0.0
  0
LINE
  5
84
100
AcDbEntity
  8
0
 62
256
370
-1
 48
1.0
  6
BYLAYER
100
AcDbLine
 10
-2.9639999866485596
 20
281.928985595703125
 30
0.0
 11
-3.3829998970031738
 21
281.71600341796875
 31
0.0
  0
LINE
  5
85
100
AcDbEntity
  8
0
 62
256
370
-1
 48
1.0
  6
BYLAYER
100
AcDbLine
 10
-3.3829998970031738
 20
281.71600341796875
 30
0.0
 11
-3.7160000801086426
 21
281.384002685546875
 31
0.0
  0
LINE
  5
86
100
AcDbEntity
  8
0
 62
256
370
-1
 48
1.0
  6
BYLAYER
100
AcDbLine
 10
-3.7160000801086426
 20
281.384002685546875
 30
0.0
 11
-3.9289999008178711
 21
280.96600341796875
 31
0.0
  0
LINE
  5
87
100
AcDbEntity
  8
0
 62
256
370
-1
 48
1.0
  6
BYLAYER
100
AcDbLine
 10
-3.9289999008178711
 20
280.96600341796875
 30
0.0
 11
-4.0029997825622559
 21
280.50201416015625
 31
0.0
  0
LINE
  5
88
100
AcDbEntity
  8
0
 62
256
370
-1
 48
1.0
  6
BYLAYER
100
AcDbLine
 10
-4.0029997825622559
 20
280.50201416015625
 30
0.0
 11
-3.9289999008178711
 21
280.03900146484375
 31
0.0
  0
LINE
  5
89
100
AcDbEntity
  8
0
 62
256
370
-1
 48
1.0
  6
BYLAYER
100
AcDbLine
 10
-3.9289999008178711
 20
280.03900146484375
 30
0.0
 11
-3.9101459980010986
 21
280.00201416015625
 31
0.0
  0
LINE
  5
8A
100
AcDbEntity
  8
0
 62
256
370
-1
 48
1.0
  6
BYLAYER
100
AcDbLine
 10
-3.9101459980010986
 20
280.00201416015625
 30
0.0
 11
-3.923086404800415
 21
280.00201416015625
 31
0.0
  0
LINE
  5
8B
100
AcDbEntity
  8
0
 62
256
370
-1
 48
1.0
  6
BYLAYER
100
AcDbLine
 10
-3.923086404800415
 20
280.00201416015625
 30
0.0
 11
-4.0029997825622559
 21
280.00201416015625
 31
0.0
  0
LINE
  5
8C
100
AcDbEntity
  8
0
 62
256
370
-1
 48
1.0
  6
BYLAYER
100
AcDbLine
 10
-4.0029997825622559
 20
280.00201416015625
 30
0.0
 11
-4.0029997825622559
 21
239.9980010986328125
 31
0.0
  0
LINE
  5
8D
100
AcDbEntity
  8
0
 62
256
370
-1
 48
1.0
  6
BYLAYER
100
AcDbLine
 10
-4.0029997825622559
 20
239.9980010986328125
 30
0.0
 11
-3.9101459980010986
 21
239.9980010986328125
 31
0.0
  0
LINE
  5
8E
100
AcDbEntity
  8
0
 62
256
370
-1
 48
1.0
  6
BYLAYER
100
AcDbLine
 10
-3.9101459980010986
 20
239.9980010986328125
 30
0.0
 11
-3.9289999008178711
 21
239.96099853515625
 31
0.0
  0
LINE
  5
8F
100
AcDbEntity
  8
0
 62
256
370
-1
 48
1.0
  6
BYLAYER
100
AcDbLine
 10
-3.9289999008178711
 20
239.96099853515625
 30
0.0
 11
-4.0029997825622559
 21
239.4980010986328125
 31
0.0
  0
LINE
  5
90
100
AcDbEntity
  8
0
 62
256
370
-1
 48
1.0
  6
BYLAYER
100
AcDbLine
 10
-4.0029997825622559
 20
239.4980010986328125
 30
0.0
 11
-3.9289999008178711
 21
239.03399658203125
 31
0.0
  0
LINE
  5
91
100
AcDbEntity
  8
0
 62
256
370
-1
 48
1.0
  6
BYLAYER
100
AcDbLine
 10
-3.9289999008178711
 20
239.03399658203125
 30
0.0
 11
-3.7160000801086426
 21
238.615997314453125
 31
0.0
  0
LINE
  5
92
100
AcDbEntity
  8
0
 62
256
370
-1
 48
1.0
  6
BYLAYER
100
AcDbLine
 10
-3.7160000801086426
 20
238.615997314453125
 30
0.0
 11
-3.3829998970031738
 21
238.28399658203125
 31
0.0
  0
LINE
  5
93
100
AcDbEntity
  8
0
 62
256
370
-1
 48
1.0
  6
BYLAYER
100
AcDbLine
 10
-3.3829998970031738
 20
238.28399658203125
 30
0.0
 11
-2.9639999866485596
 21
238.0709991455078125
 31
0.0
  0
LINE
  5
94
100
AcDbEntity
  8
0
 62
256
370
-1
 48
1.0
  6
BYLAYER
100
AcDbLine
 10
-2.9639999866485596
 20
238.0709991455078125
 30
0.0
 11
-2.5
 21
237.9980010986328125
 31
0.0
  0
LINE
  5
95
100
AcDbEntity
  8
0
 62
256
370
-1
 48
1.0
  6
BYLAYER
100
AcDbLine
 10
-2.5
 20
237.9980010986328125
 30
0.0
 11
-2.0480000972747803
 21
238.0691070556640625
 31
0.0
  0
LINE
  5
96
100
AcDbEntity
  8
0
 62
256
370
-1
 48
1.0
  6
BYLAYER
100
AcDbLine
 10
-2.0480000972747803
 20
238.0691070556640625
 30
0.0
 11
-2.0360000133514404
 21
238.0709991455078125
 31
0.0
  0
LINE
  5
97
100
AcDbEntity
  8
0
 62
256
370
-1
 48
1.0
  6
BYLAYER
100
AcDbLine
 10
-2.0360000133514404
 20
238.0709991455078125
 30
0.0
 11
-1.6169999837875366
 21
238.28399658203125
 31
0.0
  0
LINE
  5
98
100
AcDbEntity
  8
0
 62
256
370
-1
 48
1.0
  6
BYLAYER
100
AcDbLine
 10
-1.6169999837875366
 20
238.28399658203125
 30
0.0
 11
-1.284000039100647
 21
238.615997314453125
 31
0.0
  0
LINE
  5
99
100
AcDbEntity
  8
0
 62
256
370
-1
 48
1.0
  6
BYLAYER
100
AcDbLine
 10
-1.284000039100647
 20
238.615997314453125
 30
0.0
 11
-1.0709999799728394
 21
239.03399658203125
 31
0.0
  0
LINE
  5
9A
100
AcDbEntity
  8
0
 62
256
370
-1
 48
1.0
  6
BYLAYER
100
AcDbLine
 10
-1.0709999799728394
 20
239.03399658203125
 30
0.0
 11
-0.996999979019165
 21
239.4980010986328125
 31
0.0
  0
LINE
  5
9B
100
AcDbEntity
  8
0
 62
256
370
-1
 48
1.0
  6
BYLAYER
100
AcDbLine
 10
-0.996999979019165
 20
239.4980010986328125
 30
0.0
 11
-1.0709999799728394
 21
239.96099853515625
 31
0.0
  0
LINE
  5
9C
100
AcDbEntity
  8
0
 62
256
370
-1
 48
1.0
  6
BYLAYER
100
AcDbLine
 10
-1.0709999799728394
 20
239.96099853515625
 30
0.0
 11
-1.0898541212081909
 21
239.9980010986328125
 31
0.0
  0
LINE
  5
9D
100
AcDbEntity
  8
0
 62
256
370
-1
 48
1.0
  6
BYLAYER
100
AcDbLine
 10
122.0
 20
60.0
 30
0.0
 11
122.0
 21
90.0
 31
0.0
  0
LINE
  5
9E
100
AcDbEntity
  8
0
 62
256
370
-1
 48
1.0
  6
BYLAYER
100
AcDbLine
 10
122.0
 20
90.0
 30
0.0
 11
144.0
 21
90.0
 31
0.0
  0
LINE
  5
9F
100
AcDbEntity
  8
0
 62
256
370
-1
 48
1.0
  6
BYLAYER
100
AcDbLine
 10
144.0
 20
90.0
 30
0.0
 11
157.0
 21
90.0
 31
0.0
  0
LINE
  5
A0
100
AcDbEntity
  8
0
 62
256
370
-1
 48
1.0
  6
BYLAYER
100
AcDbLine
 10
157.0
 20
90.0
 30
0.0
 11
157.0
 21
60.0
 31
0.0
  0
LINE
  5
A1
100
AcDbEntity
  8
0
 62
256
370
-1
 48
1.0
  6
BYLAYER
100
AcDbLine
 10
157.0
 20
60.0
 30
0.0
 11
122.0
 21
60.0
 31
0.0
  0
LINE
  5
A2
100
AcDbEntity
  8
0
 62
256
370
-1
 48
1.0
  6
BYLAYER
100
AcDbLine
 10
185.06500244140625
 20
288.980987548828125
 30
0.0
 11
185.0879974365234375
 21
288.97821044921875
 31
0.0
  0
LINE
  5
A3
100
AcDbEntity
  8
0
 62
256
370
-1
 48
1.0
  6
BYLAYER
100
AcDbLine
 10
185.0879974365234375
 20
288.97821044921875
 30
0.0
 11
185.0980072021484375
 21
288.97698974609375
 31
0.0
  0
LINE
  5
A4
100
AcDbEntity
  8
0
 62
256
370
-1
 48
1.0
  6
BYLAYER
100
AcDbLine
 10
185.0980072021484375
 20
288.97698974609375
 30
0.0
 11
185.1320037841796875
 21
288.972991943359375
 31
0.0
  0
LINE
  5
A5
100
AcDbEntity
  8
0
 62
256
370
-1
 48
1.0
  6
BYLAYER
100
AcDbLine
 10
185.1320037841796875
 20
288.972991943359375
 30
0.0
 11
185.1649932861328125
 21
288.968994140625
 31
0.0
  0
LINE
  5
A6
100
AcDbEntity
  8
0
 62
256
370
-1
 48
1.0
  6
BYLAYER
100
AcDbLine
 10
185.1649932861328125
 20
288.968994140625
 30
0.0
 11
185.16900634765625
 21
288.9683837890625
 31
0.0
  0
LINE
  5
A7
100
AcDbEntity
  8
0
 62
256
370
-1
 48
1.0
  6
BYLAYER
100
AcDbLine
 10
185.16900634765625
 20
288.9683837890625
 30
0.0
 11
185.197998046875
 21
288.9639892578125
 31
0.0
  0
LINE
  5
A8
100
AcDbEntity
  8
0
 62
256
370
-1
 48
1.0
  6
BYLAYER
100
AcDbLine
 10
185.197998046875
 20
288.9639892578125
 30
0.0
 11
185.23199462890625
 21
288.959014892578125
 31
0.0
  0
LINE
  5
A9
100
AcDbEntity
  8
0
 62
256
370
-1
 48
1.0
  6
BYLAYER
100
AcDbLine
 10
185.23199462890625
 20
288.959014892578125
 30
0.0
 11
185.23699951171875
 21
288.958099365234375
 31
0.0
  0
LINE
  5
AA
100
AcDbEntity
  8
0
 62
256
370
-1
 48
1.0
  6
BYLAYER
100
AcDbLine
 10
185.23699951171875
 20
288.958099365234375
 30
0.0
 11
185.2649993896484375
 21
288.9530029296875
 31
0.0
  0
LINE
  5
AB
100
AcDbEntity
  8
0
 62
256
370
-1
 48
1.0
  6
BYLAYER
100
AcDbLine
 10
185.2649993896484375
 20
288.9530029296875
 30
0.0
 11
185.298004150390625
 21
288.947998046875
 31
0.0
  0
LINE
  5
AC
100
AcDbEntity
  8
0
 62
256
370
-1
 48
1.0
  6
BYLAYER
100
AcDbLine
 10
185.298004150390625
 20
288.947998046875
 30
0.0
 11
185.332000732421875
 21
288.941986083984375
 31
0.0
  0
LINE
  5
AD
100
AcDbEntity
  8
0
 62
256
370
-1
 48
1.0
  6
BYLAYER
100
AcDbLine
 10
185.332000732421875
 20
288.941986083984375
 30
0.0
 11
185.343994140625
 21
288.9398193359375
 31
0.0
  0
LINE
  5
AE
100
AcDbEntity
  8
0
 62
256
370
-1
 48
1.0
  6
BYLAYER
100
AcDbLine
 10
185.343994140625
 20
288.9398193359375
 30
0.0
 11
185.3650054931640625
 21
288.936004638671875
 31
0.0
  0
LINE
  5
AF
100
AcDbEntity
  8
0
 62
256
370
-1
 48
1.0
  6
BYLAYER
100
AcDbLine
 10
185.3650054931640625
 20
288.936004638671875
 30
0.0
 11
185.3990020751953125
 21
288.928985595703125
 31
0.0
  0
LINE
  5
B0
100
AcDbEntity
  8
0
 62
256
370
-1
 48
1.0
  6
BYLAYER
100
AcDbLine
 10
185.3990020751953125
 20
288.928985595703125
 30
0.0
 11
185.464996337890625
 21
288.915008544921875
 31
0.0
  0
LINE
  5
B1
100
AcDbEntity
  8
0
 62
256
370
-1
 48
1.0
  6
BYLAYER
100
AcDbLine
 10
185.464996337890625
 20
288.915008544921875
 30
0.0
 11
185.498992919921875
 21
288.907012939453125
 31
0.0
  0
LINE
  5
B2
100
AcDbEntity
  8
0
 62
256
370
-1
 48
1.0
  6
BYLAYER
100
AcDbLine
 10
185.498992919921875
 20
288.907012939453125
 30
0.0
 11
185.5319976806640625
 21
288.89898681640625
 31
0.0
  0
LINE
  5
B3
100
AcDbEntity
  8
0
 62
256
370
-1
 48
1.0
  6
BYLAYER
100
AcDbLine
 10
185.5319976806640625
 20
288.89898681640625
 30
0.0
 11
185.5659942626953125
 21
288.8909912109375
 31
0.0
  0
LINE
  5
B4
100
AcDbEntity
  8
0
 62
256
370
-1
 48
1.0
  6
BYLAYER
100
AcDbLine
 10
185.5659942626953125
 20
288.8909912109375
 30
0.0
 11
185.574005126953125
 21
288.888824462890625
 31
0.0
  0
LINE
  5
B5
100
AcDbEntity
  8
0
 62
256
370
-1
 48
1.0
  6
BYLAYER
100
AcDbLine
 10
185.574005126953125
 20
288.888824462890625
 30
0.0
 11
185.600006103515625
 21
288.8817138671875
 31
0.0
  0
LINE
  5
B6
100
AcDbEntity
  8
0
 62
256
370
-1
 48
1.0
  6
BYLAYER
100
AcDbLine
 10
185.600006103515625
 20
288.8817138671875
 30
0.0
 11
185.6320037841796875
 21
288.87298583984375
 31
0.0
  0
LINE
  5
B7
100
AcDbEntity
  8
0
 62
256
370
-1
 48
1.0
  6
BYLAYER
100
AcDbLine
 10
185.6320037841796875
 20
288.87298583984375
 30
0.0
 11
185.6660003662109375
 21
288.864013671875
 31
0.0
  0
LINE
  5
B8
100
AcDbEntity
  8
0
 62
256
370
-1
 48
1.0
  6
BYLAYER
100
AcDbLine
 10
185.6660003662109375
 20
288.864013671875
 30
0.0
 11
185.699005126953125
 21
288.855010986328125
 31
0.0
  0
LINE
  5
B9
100
AcDbEntity
  8
0
 62
256
370
-1
 48
1.0
  6
BYLAYER
100
AcDbLine
 10
185.699005126953125
 20
288.855010986328125
 30
0.0
 11
185.7035064697265625
 21
288.853485107421875
 31
0.0
  0
LINE
  5
BA
100
AcDbEntity
  8
0
 62
256
370
-1
 48
1.0
  6
BYLAYER
100
AcDbLine
 10
185.7035064697265625
 20
288.853485107421875
 30
0.0
 11
185.7220001220703125
 21
288.847320556640625
 31
0.0
  0
LINE
  5
BB
100
AcDbEntity
  8
0
 62
256
370
-1
 48
1.0
  6
BYLAYER
100
AcDbLine
 10
185.7220001220703125
 20
288.847320556640625
 30
0.0
 11
185.73199462890625
 21
288.843994140625
 31
0.0
  0
LINE
  5
BC
100
AcDbEntity
  8
0
 62
256
370
-1
 48
1.0
  6
BYLAYER
100
AcDbLine
 10
185.73199462890625
 20
288.843994140625
 30
0.0
 11
185.7660064697265625
 21
288.834014892578125
 31
0.0
  0
LINE
  5
BD
100
AcDbEntity
  8
0
 62
256
370
-1
 48
1.0
  6
BYLAYER
100
AcDbLine
 10
185.7660064697265625
 20
288.834014892578125
 30
0.0
 11
185.7989959716796875
 21
288.824005126953125
 31
0.0
  0
LINE
  5
BE
100
AcDbEntity
  8
0
 62
256
370
-1
 48
1.0
  6
BYLAYER
100
AcDbLine
 10
185.7989959716796875
 20
288.824005126953125
 30
0.0
 11
185.8329925537109375
 21
288.81201171875
 31
0.0
  0
LINE
  5
BF
100
AcDbEntity
  8
0
 62
256
370
-1
 48
1.0
  6
BYLAYER
100
AcDbLine
 10
185.8329925537109375
 20
288.81201171875
 30
0.0
 11
185.8560028076171875
 21
288.8043212890625
 31
0.0
  0
LINE
  5
C0
100
AcDbEntity
  8
0
 62
256
370
-1
 48
1.0
  6
BYLAYER
100
AcDbLine
 10
185.8560028076171875
 20
288.8043212890625
 30
0.0
 11
185.865997314453125
 21
288.800994873046875
 31
0.0
  0
LINE
  5
C1
100
AcDbEntity
  8
0
 62
256
370
-1
 48
1.0
  6
BYLAYER
100
AcDbLine
 10
185.865997314453125
 20
288.800994873046875
 30
0.0
 11
185.8990020751953125
 21
288.78900146484375
 31
0.0
  0
LINE
  5
C2
100
AcDbEntity
  8
0
 62
256
370
-1
 48
1.0
  6
BYLAYER
100
AcDbLine
 10
185.8990020751953125
 20
288.78900146484375
 30
0.0
 11
185.9329986572265625
 21
288.777008056640625
 31
0.0
  0
LINE
  5
C3
100
AcDbEntity
  8
0
 62
256
370
-1
 48
1.0
  6
BYLAYER
100
AcDbLine
 10
185.9329986572265625
 20
288.777008056640625
 30
0.0
 11
185.9577484130859375
 21
288.76800537109375
 31
0.0
  0
LINE
  5
C4
100
AcDbEntity
  8
0
 62
256
370
-1
 48
1.0
  6
BYLAYER
100
AcDbLine
 10
185.9577484130859375
 20
288.76800537109375
 30
0.0
 11
185.96600341796875
 21
288.7650146484375
 31
0.0
  0
LINE
  5
C5
100
AcDbEntity
  8
0
 62
256
370
-1
 48
1.0
  6
BYLAYER
100
AcDbLine
 10
185.96600341796875
 20
288.7650146484375
 30
0.0
 11
186.0
 21
288.75201416015625
 31
0.0
  0
LINE
  5
C6
100
AcDbEntity
  8
0
 62
256
370
-1
 48
1.0
  6
BYLAYER
100
AcDbLine
 10
186.0
 20
288.75201416015625
 30
0.0
 11
186.0330047607421875
 21
288.738006591796875
 31
0.0
  0
LINE
  5
C7
100
AcDbEntity
  8
0
 62
256
370
-1
 48
1.0
  6
BYLAYER
100
AcDbLine
 10
186.0330047607421875
 20
288.738006591796875
 30
0.0
 11
186.0659942626953125
 21
288.725006103515625
 31
0.0
  0
LINE
  5
C8
100
AcDbEntity
  8
0
 62
256
370
-1
 48
1.0
  6
BYLAYER
100
AcDbLine
 10
186.0659942626953125
 20
288.725006103515625
 30
0.0
 11
186.100006103515625
 21
288.71099853515625
 31
0.0
  0
LINE
  5
C9
100
AcDbEntity
  8
0
 62
256
370
-1
 48
1.0
  6
BYLAYER
100
AcDbLine
 10
186.100006103515625
 20
288.71099853515625
 30
0.0
 11
186.1660003662109375
 21
288.680999755859375
 31
0.0
  0
LINE
  5
CA
100
AcDbEntity
  8
0
 62
256
370
-1
 48
1.0
  6
BYLAYER
100
AcDbLine
 10
186.1660003662109375
 20
288.680999755859375
 30
0.0
 11
186.1999969482421875
 21
288.665985107421875
 31
0.0
  0
LINE
  5
CB
100
AcDbEntity
  8
0
 62
256
370
-1
 48
1.0
  6
BYLAYER
100
AcDbLine
 10
186.1999969482421875
 20
288.665985107421875
 30
0.0
 11
186.214996337890625
 21
288.658721923828125
 31
0.0
  0
LINE
  5
CC
100
AcDbEntity
  8
0
 62
256
370
-1
 48
1.0
  6
BYLAYER
100
AcDbLine
 10
186.214996337890625
 20
288.658721923828125
 30
0.0
 11
186.233001708984375
 21
288.649993896484375
 31
0.0
  0
LINE
  5
CD
100
AcDbEntity
  8
0
 62
256
370
-1
 48
1.0
  6
BYLAYER
100
AcDbLine
 10
186.233001708984375
 20
288.649993896484375
 30
0.0
 11
186.266998291015625
 21
288.634002685546875
 31
0.0
  0
LINE
  5
CE
100
AcDbEntity
  8
0
 62
256
370
-1
 48
1.0
  6
BYLAYER
100
AcDbLine
 10
186.266998291015625
 20
288.634002685546875
 30
0.0
 11
186.2830047607421875
 21
288.625762939453125
 31
0.0
  0
LINE
  5
CF
100
AcDbEntity
  8
0
 62
256
370
-1
 48
1.0
  6
BYLAYER
100
AcDbLine
 10
186.2830047607421875
 20
288.625762939453125
 30
0.0
 11
186.3329925537109375
 21
288.600006103515625
 31
0.0
  0
LINE
  5
D0
100
AcDbEntity
  8
0
 62
256
370
-1
 48
1.0
  6
BYLAYER
100
AcDbLine
 10
186.3329925537109375
 20
288.600006103515625
 30
0.0
 11
186.36700439453125
 21
288.582000732421875
 31
0.0
  0
LINE
  5
D1
100
AcDbEntity
  8
0
 62
256
370
-1
 48
1.0
  6
BYLAYER
100
AcDbLine
 10
186.36700439453125
 20
288.582000732421875
 30
0.0
 11
186.3679962158203125
 21
288.581451416015625
 31
0.0
  0
LINE
  5
D2
100
AcDbEntity
  8
0
 62
256
370
-1
 48
1.0
  6
BYLAYER
100
AcDbLine
 10
186.3679962158203125
 20
288.581451416015625
 30
0.0
 11
186.4329986572265625
 21
288.545989990234375
 31
0.0
  0
LINE
  5
D3
100
AcDbEntity
  8
0
 62
256
370
-1
 48
1.0
  6
BYLAYER
100
AcDbLine
 10
186.4329986572265625
 20
288.545989990234375
 30
0.0
 11
186.4669952392578125
 21
288.527008056640625
 31
0.0
  0
LINE
  5
D4
100
AcDbEntity
  8
0
 62
256
370
-1
 48
1.0
  6
BYLAYER
100
AcDbLine
 10
186.4669952392578125
 20
288.527008056640625
 30
0.0
 11
186.4917449951171875
 21
288.511993408203125
 31
0.0
  0
LINE
  5
D5
100
AcDbEntity
  8
0
 62
256
370
-1
 48
1.0
  6
BYLAYER
100
AcDbLine
 10
186.4917449951171875
 20
288.511993408203125
 30
0.0
 11
186.5
 21
288.506988525390625
 31
0.0
  0
LINE
  5
D6
100
AcDbEntity
  8
0
 62
256
370
-1
 48
1.0
  6
BYLAYER
100
AcDbLine
 10
186.5
 20
288.506988525390625
 30
0.0
 11
186.53399658203125
 21
288.48699951171875
 31
0.0
  0
LINE
  5
D7
100
AcDbEntity
  8
0
 62
256
370
-1
 48
1.0
  6
BYLAYER
100
AcDbLine
 10
186.53399658203125
 20
288.48699951171875
 30
0.0
 11
186.5670013427734375
 21
288.467010498046875
 31
0.0
  0
LINE
  5
D8
100
AcDbEntity
  8
0
 62
256
370
-1
 48
1.0
  6
BYLAYER
100
AcDbLine
 10
186.5670013427734375
 20
288.467010498046875
 30
0.0
 11
186.600006103515625
 21
288.44500732421875
 31
0.0
  0
LINE
  5
D9
100
AcDbEntity
  8
0
 62
256
370
-1
 48
1.0
  6
BYLAYER
100
AcDbLine
 10
186.600006103515625
 20
288.44500732421875
 30
0.0
 11
186.634002685546875
 21
288.42401123046875
 31
0.0
  0
LINE
  5
DA
100
AcDbEntity
  8
0
 62
256
370
-1
 48
1.0
  6
BYLAYER
100
AcDbLine
 10
186.634002685546875
 20
288.42401123046875
 30
0.0
 11
186.6670074462890625
 21
288.402008056640625
 31
0.0
  0
LINE
  5
DB
100
AcDbEntity
  8
0
 62
256
370
-1
 48
1.0
  6
BYLAYER
100
AcDbLine
 10
186.6670074462890625
 20
288.402008056640625
 30
0.0
 11
186.7010040283203125
 21
288.378997802734375
 31
0.0
  0
LINE
  5
DC
100
AcDbEntity
  8
0
 62
256
370
-1
 48
1.0
  6
BYLAYER
100
AcDbLine
 10
186.7010040283203125
 20
288.378997802734375
 30
0.0
 11
186.7230072021484375
 21
288.363006591796875
 31
0.0
  0
LINE
  5
DD
100
AcDbEntity
  8
0
 62
256
370
-1
 48
1.0
  6
BYLAYER
100
AcDbLine
 10
186.7230072021484375
 20
288.363006591796875
 30
0.0
 11
186.766998291015625
 21
288.33099365234375
 31
0.0
  0
LINE
  5
DE
100
AcDbEntity
  8
0
 62
256
370
-1
 48
1.0
  6
BYLAYER
100
AcDbLine
 10
186.766998291015625
 20
288.33099365234375
 30
0.0
 11
186.800994873046875
 21
288.305999755859375
 31
0.0
  0
LINE
  5
DF
100
AcDbEntity
  8
0
 62
256
370
-1
 48
1.0
  6
BYLAYER
100
AcDbLine
 10
186.800994873046875
 20
288.305999755859375
 30
0.0
 11
186.8339996337890625
 21
288.281005859375
 31
0.0
  0
LINE
  5
E0
100
AcDbEntity
  8
0
 62
256
370
-1
 48
1.0
  6
BYLAYER
100
AcDbLine
 10
186.8339996337890625
 20
288.281005859375
 30
0.0
 11
186.8657379150390625
 21
288.256011962890625
 31
0.0
  0
LINE
  5
E1
100
AcDbEntity
  8
0
 62
256
370
-1
 48
1.0
  6
BYLAYER
100
AcDbLine
 10
186.8657379150390625
 20
288.256011962890625
 30
0.0
 11
186.86700439453125
 21
288.2550048828125
 31
0.0
  0
LINE
  5
E2
100
AcDbEntity
  8
0
 62
256
370
-1
 48
1.0
  6
BYLAYER
100
AcDbLine
 10
186.86700439453125
 20
288.2550048828125
 30
0.0
 11
186.8800048828125
 21
288.24468994140625
 31
0.0
  0
LINE
  5
E3
100
AcDbEntity
  8
0
 62
256
370
-1
 48
1.0
  6
BYLAYER
100
AcDbLine
 10
186.8800048828125
 20
288.24468994140625
 30
0.0
 11
186.9010009765625
 21
288.227996826171875
 31
0.0
  0
LINE
  5
E4
100
AcDbEntity
  8
0
 62
256
370
-1
 48
1.0
  6
BYLAYER
100
AcDbLine
 10
186.9010009765625
 20
288.227996826171875
 30
0.0
 11
186.9340057373046875
 21
288.20098876953125
 31
0.0
  0
LINE
  5
E5
100
AcDbEntity
  8
0
 62
256
370
-1
 48
1.0
  6
BYLAYER
100
AcDbLine
 10
186.9340057373046875
 20
288.20098876953125
 30
0.0
 11
186.9680023193359375
 21
288.173004150390625
 31
0.0
  0
LINE
  5
E6
100
AcDbEntity
  8
0
 62
256
370
-1
 48
1.0
  6
BYLAYER
100
AcDbLine
 10
186.9680023193359375
 20
288.173004150390625
 30
0.0
 11
187.001007080078125
 21
288.144012451171875
 31
0.0
  0
LINE
  5
E7
100
AcDbEntity
  8
0
 62
256
370
-1
 48
1.0
  6
BYLAYER
100
AcDbLine
 10
187.001007080078125
 20
288.144012451171875
 30
0.0
 11
187.03399658203125
 21
288.114013671875
 31
0.0
  0
LINE
  5
E8
100
AcDbEntity
  8
0
 62
256
370
-1
 48
1.0
  6
BYLAYER
100
AcDbLine
 10
187.03399658203125
 20
288.114013671875
 30
0.0
 11
187.0359954833984375
 21
288.1121826171875
 31
0.0
  0
LINE
  5
E9
100
AcDbEntity
  8
0
 62
256
370
-1
 48
1.0
  6
BYLAYER
100
AcDbLine
 10
187.0359954833984375
 20
288.1121826171875
 30
0.0
 11
187.0679931640625
 21
288.0830078125
 31
0.0
  0
LINE
  5
EA
100
AcDbEntity
  8
0
 62
256
370
-1
 48
1.0
  6
BYLAYER
100
AcDbLine
 10
187.0679931640625
 20
288.0830078125
 30
0.0
 11
187.1009979248046875
 21
288.050994873046875
 31
0.0
  0
LINE
  5
EB
100
AcDbEntity
  8
0
 62
256
370
-1
 48
1.0
  6
BYLAYER
100
AcDbLine
 10
187.1009979248046875
 20
288.050994873046875
 30
0.0
 11
187.1349945068359375
 21
288.019012451171875
 31
0.0
  0
LINE
  5
EC
100
AcDbEntity
  8
0
 62
256
370
-1
 48
1.0
  6
BYLAYER
100
AcDbLine
 10
187.1349945068359375
 20
288.019012451171875
 30
0.0
 11
187.1534423828125
 21
288.0
 31
0.0
  0
LINE
  5
ED
100
AcDbEntity
  8
0
 62
256
370
-1
 48
1.0
  6
BYLAYER
100
AcDbLine
 10
187.1534423828125
 20
288.0
 30
0.0
 11
187.167999267578125
 21
287.9849853515625
 31
0.0
  0
LINE
  5
EE
100
AcDbEntity
  8
0
 62
256
370
-1
 48
1.0
  6
BYLAYER
100
AcDbLine
 10
187.167999267578125
 20
287.9849853515625
 30
0.0
 11
187.2010040283203125
 21
287.95001220703125
 31
0.0
  0
LINE
  5
EF
100
AcDbEntity
  8
0
 62
256
370
-1
 48
1.0
  6
BYLAYER
100
AcDbLine
 10
187.2010040283203125
 20
287.95001220703125
 30
0.0
 11
187.2350006103515625
 21
287.915008544921875
 31
0.0
  0
LINE
  5
F0
100
AcDbEntity
  8
0
 62
256
370
-1
 48
1.0
  6
BYLAYER
100
AcDbLine
 10
187.2350006103515625
 20
287.915008544921875
 30
0.0
 11
187.25250244140625
 21
287.8953857421875
 31
0.0
  0
LINE
  5
F1
100
AcDbEntity
  8
0
 62
256
370
-1
 48
1.0
  6
BYLAYER
100
AcDbLine
 10
187.25250244140625
 20
287.8953857421875
 30
0.0
 11
187.26800537109375
 21
287.87799072265625
 31
0.0
  0
LINE
  5
F2
100
AcDbEntity
  8
0
 62
256
370
-1
 48
1.0
  6
BYLAYER
100
AcDbLine
 10
187.26800537109375
 20
287.87799072265625
 30
0.0
 11
187.300994873046875
 21
287.839996337890625
 31
0.0
  0
LINE
  5
F3
100
AcDbEntity
  8
0
 62
256
370
-1
 48
1.0
  6
BYLAYER
100
AcDbLine
 10
187.300994873046875
 20
287.839996337890625
 30
0.0
 11
187.3350067138671875
 21
287.800994873046875
 31
0.0
  0
LINE
  5
F4
100
AcDbEntity
  8
0
 62
256
370
-1
 48
1.0
  6
BYLAYER
100
AcDbLine
 10
187.3350067138671875
 20
287.800994873046875
 30
0.0
 11
187.336669921875
 21
287.798919677734375
 31
0.0
  0
LINE
  5
F5
100
AcDbEntity
  8
0
 62
256
370
-1
 48
1.0
  6
BYLAYER
100
AcDbLine
 10
187.336669921875
 20
287.798919677734375
 30
0.0
 11
187.3679962158203125
 21
287.760009765625
 31
0.0
  0
LINE
  5
F6
100
AcDbEntity
  8
0
 62
256
370
-1
 48
1.0
  6
BYLAYER
100
AcDbLine
 10
187.3679962158203125
 20
287.760009765625
 30
0.0
 11
187.380645751953125
 21
287.743988037109375
 31
0.0
  0
LINE
  5
F7
100
AcDbEntity
  8
0
 62
256
370
-1
 48
1.0
  6
BYLAYER
100
AcDbLine
 10
187.380645751953125
 20
287.743988037109375
 30
0.0
 11
187.391998291015625
 21
287.729644775390625
 31
0.0
  0
LINE
  5
F8
100
AcDbEntity
  8
0
 62
256
370
-1
 48
1.0
  6
BYLAYER
100
AcDbLine
 10
187.391998291015625
 20
287.729644775390625
 30
0.0
 11
187.4019927978515625
 21
287.717010498046875
 31
0.0
  0
LINE
  5
F9
100
AcDbEntity
  8
0
 62
256
370
-1
 48
1.0
  6
BYLAYER
100
AcDbLine
 10
187.4019927978515625
 20
287.717010498046875
 30
0.0
 11
187.43499755859375
 21
287.67401123046875
 31
0.0
  0
LINE
  5
FA
100
AcDbEntity
  8
0
 62
256
370
-1
 48
1.0
  6
BYLAYER
100
AcDbLine
 10
187.43499755859375
 20
287.67401123046875
 30
0.0
 11
187.4680023193359375
 21
287.62799072265625
 31
0.0
  0
LINE
  5
FB
100
AcDbEntity
  8
0
 62
256
370
-1
 48
1.0
  6
BYLAYER
100
AcDbLine
 10
187.4680023193359375
 20
287.62799072265625
 30
0.0
 11
187.5019989013671875
 21
287.58099365234375
 31
0.0
  0
LINE
  5
FC
100
AcDbEntity
  8
0
 62
256
370
-1
 48
1.0
  6
BYLAYER
100
AcDbLine
 10
187.5019989013671875
 20
287.58099365234375
 30
0.0
 11
187.5052490234375
 21
287.576080322265625
 31
0.0
  0
LINE
  5
FD
100
AcDbEntity
  8
0
 62
256
370
-1
 48
1.0
  6
BYLAYER
100
AcDbLine
 10
187.5052490234375
 20
287.576080322265625
 30
0.0
 11
187.535003662109375
 21
287.531005859375
 31
0.0
  0
LINE
  5
FE
100
AcDbEntity
  8
0
 62
256
370
-1
 48
1.0
  6
BYLAYER
100
AcDbLine
 10
187.535003662109375
 20
287.531005859375
 30
0.0
 11
187.569000244140625
 21
287.47900390625
 31
0.0
  0
LINE
  5
FF
100
AcDbEntity
  8
0
 62
256
370
-1
 48
1.0
  6
BYLAYER
100
AcDbLine
 10
187.569000244140625
 20
287.47900390625
 30
0.0
 11
187.6020050048828125
 21
287.42498779296875
 31
0.0
  0
LINE
  5
100
100
AcDbEntity
  8
0
 62
256
370
-1
 48
1.0
  6
BYLAYER
100
AcDbLine
 10
187.6020050048828125
 20
287.42498779296875
 30
0.0
 11
187.6349945068359375
 21
287.368011474609375
 31
0.0
  0
LINE
  5
101
100
AcDbEntity
  8
0
 62
256
370
-1
 48
1.0
  6
BYLAYER
100
AcDbLine
 10
187.6349945068359375
 20
287.368011474609375
 30
0.0
 11
187.66900634765625
 21
287.3070068359375
 31
0.0
  0
LINE
  5
102
100
AcDbEntity
  8
0
 62
256
370
-1
 48
1.0
  6
BYLAYER
100
AcDbLine
 10
187.66900634765625
 20
287.3070068359375
 30
0.0
 11
187.701995849609375
 21
287.243011474609375
 31
0.0
  0
LINE
  5
103
100
AcDbEntity
  8
0
 62
256
370
-1
 48
1.0
  6
BYLAYER
100
AcDbLine
 10
187.701995849609375
 20
287.243011474609375
 30
0.0
 11
187.70733642578125
 21
287.23199462890625
 31
0.0
  0
LINE
  5
104
100
AcDbEntity
  8
0
 62
256
370
-1
 48
1.0
  6
BYLAYER
100
AcDbLine
 10
187.70733642578125
 20
287.23199462890625
 30
0.0
 11
187.7350006103515625
 21
287.17498779296875
 31
0.0
  0
LINE
  5
105
100
AcDbEntity
  8
0
 62
256
370
-1
 48
1.0
  6
BYLAYER
100
AcDbLine
 10
187.7350006103515625
 20
287.17498779296875
 30
0.0
 11
187.7689971923828125
 21
287.10198974609375
 31
0.0
  0
LINE
  5
106
100
AcDbEntity
  8
0
 62
256
370
-1
 48
1.0
  6
BYLAYER
100
AcDbLine
 10
187.7689971923828125
 20
287.10198974609375
 30
0.0
 11
187.802001953125
 21
287.02301025390625
 31
0.0
  0
LINE
  5
107
100
AcDbEntity
  8
0
 62
256
370
-1
 48
1.0
  6
BYLAYER
100
AcDbLine
 10
187.802001953125
 20
287.02301025390625
 30
0.0
 11
187.83599853515625
 21
286.936004638671875
 31
0.0
  0
LINE
  5
108
100
AcDbEntity
  8
0
 62
256
370
-1
 48
1.0
  6
BYLAYER
100
AcDbLine
 10
187.83599853515625
 20
286.936004638671875
 30
0.0
 11
187.8690032958984375
 21
286.8389892578125
 31
0.0
  0
LINE
  5
109
100
AcDbEntity
  8
0
 62
256
370
-1
 48
1.0
  6
BYLAYER
100
AcDbLine
 10
187.8690032958984375
 20
286.8389892578125
 30
0.0
 11
187.9019927978515625
 21
286.727996826171875
 31
0.0
  0
LINE
  5
10A
100
AcDbEntity
  8
0
 62
256
370
-1
 48
1.0
  6
BYLAYER
100
AcDbLine
 10
187.9019927978515625
 20
286.727996826171875
 30
0.0
 11
187.9040679931640625
 21
286.720001220703125
 31
0.0
  0
LINE
  5
10B
100
AcDbEntity
  8
0
 62
256
370
-1
 48
1.0
  6
BYLAYER
100
AcDbLine
 10
187.9040679931640625
 20
286.720001220703125
 30
0.0
 11
187.936004638671875
 21
286.59600830078125
 31
0.0
  0
LINE
  5
10C
100
AcDbEntity
  8
0
 62
256
370
-1
 48
1.0
  6
BYLAYER
100
AcDbLine
 10
187.936004638671875
 20
286.59600830078125
 30
0.0
 11
187.968994140625
 21
286.420989990234375
 31
0.0
  0
LINE
  5
10D
100
AcDbEntity
  8
0
 62
256
370
-1
 48
1.0
  6
BYLAYER
100
AcDbLine
 10
187.968994140625
 20
286.420989990234375
 30
0.0
 11
188.0
 21
286.035308837890625
 31
0.0
  0
LINE
  5
10E
100
AcDbEntity
  8
0
 62
256
370
-1
 48
1.0
  6
BYLAYER
100
AcDbLine
 10
188.0
 20
286.035308837890625
 30
0.0
 11
188.0
 21
285.99798583984375
 31
0.0
  0
LINE
  5
10F
100
AcDbEntity
  8
0
 62
256
370
-1
 48
1.0
  6
BYLAYER
100
AcDbLine
 10
188.0
 20
285.99798583984375
 30
0.0
 11
188.0
 21
233.5030059814453125
 31
0.0
  0
LINE
  5
110
100
AcDbEntity
  8
0
 62
256
370
-1
 48
1.0
  6
BYLAYER
100
AcDbLine
 10
188.0
 20
233.5030059814453125
 30
0.0
 11
188.0
 21
233.4720001220703125
 31
0.0
  0
LINE
  5
111
100
AcDbEntity
  8
0
 62
256
370
-1
 48
1.0
  6
BYLAYER
100
AcDbLine
 10
188.0
 20
233.4720001220703125
 30
0.0
 11
188.0
 21
233.427001953125
 31
0.0
  0
LINE
  5
112
100
AcDbEntity
  8
0
 62
256
370
-1
 48
1.0
  6
BYLAYER
100
AcDbLine
 10
188.0
 20
233.427001953125
 30
0.0
 11
188.0
 21
233.4145050048828125
 31
0.0
  0
LINE
  5
113
100
AcDbEntity
  8
0
 62
256
370
-1
 48
1.0
  6
BYLAYER
100
AcDbLine
 10
188.0
 20
233.4145050048828125
 30
0.0
 11
187.998992919921875
 21
233.4019927978515625
 31
0.0
  0
LINE
  5
114
100
AcDbEntity
  8
0
 62
256
370
-1
 48
1.0
  6
BYLAYER
100
AcDbLine
 10
187.998992919921875
 20
233.4019927978515625
 30
0.0
 11
187.9980010986328125
 21
233.3769989013671875
 31
0.0
  0
LINE
  5
115
100
AcDbEntity
  8
0
 62
256
370
-1
 48
1.0
  6
BYLAYER
100
AcDbLine
 10
187.9980010986328125
 20
233.3769989013671875
 30
0.0
 11
187.9949951171875
 21
233.3520050048828125
 31
0.0
  0
LINE
  5
116
100
AcDbEntity
  8
0
 62
256
370
-1
 48
1.0
  6
BYLAYER
100
AcDbLine
 10
187.9949951171875
 20
233.3520050048828125
 30
0.0
 11
187.9929962158203125
 21
233.326995849609375
 31
0.0
  0
LINE
  5
117
100
AcDbEntity
  8
0
 62
256
370
-1
 48
1.0
  6
BYLAYER
100
AcDbLine
 10
187.9929962158203125
 20
233.326995849609375
 30
0.0
 11
187.9900054931640625
 21
233.302001953125
 31
0.0
  0
LINE
  5
118
100
AcDbEntity
  8
0
 62
256
370
-1
 48
1.0
  6
BYLAYER
100
AcDbLine
 10
187.9900054931640625
 20
233.302001953125
 30
0.0
 11
187.985992431640625
 21
233.2769927978515625
 31
0.0
  0
LINE
  5
119
100
AcDbEntity
  8
0
 62
256
370
-1
 48
1.0
  6
BYLAYER
100
AcDbLine
 10
187.985992431640625
 20
233.2769927978515625
 30
0.0
 11
187.977996826171875
 21
233.2270050048828125
 31
0.0
  0
LINE
  5
11A
100
AcDbEntity
  8
0
 62
256
370
-1
 48
1.0
  6
BYLAYER
100
AcDbLine
 10
187.977996826171875
 20
233.2270050048828125
 30
0.0
 11
187.975799560546875
 21
233.21600341796875
 31
0.0
  0
LINE
  5
11B
100
AcDbEntity
  8
0
 62
256
370
-1
 48
1.0
  6
BYLAYER
100
AcDbLine
 10
187.975799560546875
 20
233.21600341796875
 30
0.0
 11
187.9629974365234375
 21
233.1519927978515625
 31
0.0
  0
LINE
  5
11C
100
AcDbEntity
  8
0
 62
256
370
-1
 48
1.0
  6
BYLAYER
100
AcDbLine
 10
187.9629974365234375
 20
233.1519927978515625
 30
0.0
 11
187.9510040283203125
 21
233.1020050048828125
 31
0.0
  0
LINE
  5
11D
100
AcDbEntity
  8
0
 62
256
370
-1
 48
1.0
  6
BYLAYER
100
AcDbLine
 10
187.9510040283203125
 20
233.1020050048828125
 30
0.0
 11
187.92999267578125
 21
233.0269927978515625
 31
0.0
  0
LINE
  5
11E
100
AcDbEntity
  8
0
 62
256
370
-1
 48
1.0
  6
BYLAYER
100
AcDbLine
 10
187.92999267578125
 20
233.0269927978515625
 30
0.0
 11
187.9219970703125
 21
233.0019989013671875
 31
0.0
  0
LINE
  5
11F
100
AcDbEntity
  8
0
 62
256
370
-1
 48
1.0
  6
BYLAYER
100
AcDbLine
 10
187.9219970703125
 20
233.0019989013671875
 30
0.0
 11
187.912994384765625
 21
232.9759979248046875
 31
0.0
  0
LINE
  5
120
100
AcDbEntity
  8
0
 62
256
370
-1
 48
1.0
  6
BYLAYER
100
AcDbLine
 10
187.912994384765625
 20
232.9759979248046875
 30
0.0
 11
187.9072418212890625
 21
232.9600067138671875
 31
0.0
  0
LINE
  5
121
100
AcDbEntity
  8
0
 62
256
370
-1
 48
1.0
  6
BYLAYER
100
AcDbLine
 10
187.9072418212890625
 20
232.9600067138671875
 30
0.0
 11
187.9040069580078125
 21
232.9510040283203125
 31
0.0
  0
LINE
  5
122
100
AcDbEntity
  8
0
 62
256
370
-1
 48
1.0
  6
BYLAYER
100
AcDbLine
 10
187.9040069580078125
 20
232.9510040283203125
 30
0.0
 11
187.8950042724609375
 21
232.925994873046875
 31
0.0
  0
LINE
  5
123
100
AcDbEntity
  8
0
 62
256
370
-1
 48
1.0
  6
BYLAYER
100
AcDbLine
 10
187.8950042724609375
 20
232.925994873046875
 30
0.0
 11
187.8650054931640625
 21
232.8509979248046875
 31
0.0
  0
LINE
  5
124
100
AcDbEntity
  8
0
 62
256
370
-1
 48
1.0
  6
BYLAYER
100
AcDbLine
 10
187.8650054931640625
 20
232.8509979248046875
 30
0.0
 11
187.85400390625
 21
232.8260040283203125
 31
0.0
  0
LINE
  5
125
100
AcDbEntity
  8
0
 62
256
370
-1
 48
1.0
  6
BYLAYER
100
AcDbLine
 10
187.85400390625
 20
232.8260040283203125
 30
0.0
 11
187.8179931640625
 21
232.751007080078125
 31
0.0
  0
LINE
  5
126
100
AcDbEntity
  8
0
 62
256
370
-1
 48
1.0
  6
BYLAYER
100
AcDbLine
 10
187.8179931640625
 20
232.751007080078125
 30
0.0
 11
187.7935638427734375
 21
232.7039947509765625
 31
0.0
  0
LINE
  5
127
100
AcDbEntity
  8
0
 62
256
370
-1
 48
1.0
  6
BYLAYER
100
AcDbLine
 10
187.7935638427734375
 20
232.7039947509765625
 30
0.0
 11
187.7920074462890625
 21
232.7010040283203125
 31
0.0
  0
LINE
  5
128
100
AcDbEntity
  8
0
 62
256
370
-1
 48
1.0
  6
BYLAYER
100
AcDbLine
 10
187.7920074462890625
 20
232.7010040283203125
 30
0.0
 11
187.764007568359375
 21
232.6510009765625
 31
0.0
  0
LINE
  5
129
100
AcDbEntity
  8
0
 62
256
370
-1
 48
1.0
  6
BYLAYER
100
AcDbLine
 10
187.764007568359375
 20
232.6510009765625
 30
0.0
 11
187.7339935302734375
 21
232.6009979248046875
 31
0.0
  0
LINE
  5
12A
100
AcDbEntity
  8
0
 62
256
370
-1
 48
1.0
  6
BYLAYER
100
AcDbLine
 10
187.7339935302734375
 20
232.6009979248046875
 30
0.0
 11
187.701995849609375
 21
232.550994873046875
 31
0.0
  0
LINE
  5
12B
100
AcDbEntity
  8
0
 62
256
370
-1
 48
1.0
  6
BYLAYER
100
AcDbLine
 10
187.701995849609375
 20
232.550994873046875
 30
0.0
 11
187.667999267578125
 21
232.501007080078125
 31
0.0
  0
LINE
  5
12C
100
AcDbEntity
  8
0
 62
256
370
-1
 48
1.0
  6
BYLAYER
100
AcDbLine
 10
187.667999267578125
 20
232.501007080078125
 30
0.0
 11
187.649993896484375
 21
232.475006103515625
 31
0.0
  0
LINE
  5
12D
100
AcDbEntity
  8
0
 62
256
370
-1
 48
1.0
  6
BYLAYER
100
AcDbLine
 10
187.649993896484375
 20
232.475006103515625
 30
0.0
 11
187.6320037841796875
 21
232.4499969482421875
 31
0.0
  0
LINE
  5
12E
100
AcDbEntity
  8
0
 62
256
370
-1
 48
1.0
  6
BYLAYER
100
AcDbLine
 10
187.6320037841796875
 20
232.4499969482421875
 30
0.0
 11
187.6304779052734375
 21
232.447998046875
 31
0.0
  0
LINE
  5
12F
100
AcDbEntity
  8
0
 62
256
370
-1
 48
1.0
  6
BYLAYER
100
AcDbLine
 10
187.6304779052734375
 20
232.447998046875
 30
0.0
 11
187.593994140625
 21
232.399993896484375
 31
0.0
  0
LINE
  5
130
100
AcDbEntity
  8
0
 62
256
370
-1
 48
1.0
  6
BYLAYER
100
AcDbLine
 10
187.593994140625
 20
232.399993896484375
 30
0.0
 11
187.5540008544921875
 21
232.350006103515625
 31
0.0
  0
LINE
  5
131
100
AcDbEntity
  8
0
 62
256
370
-1
 48
1.0
  6
BYLAYER
100
AcDbLine
 10
187.5540008544921875
 20
232.350006103515625
 30
0.0
 11
187.5330047607421875
 21
232.3249969482421875
 31
0.0
  0
LINE
  5
132
100
AcDbEntity
  8
0
 62
256
370
-1
 48
1.0
  6
BYLAYER
100
AcDbLine
 10
187.5330047607421875
 20
232.3249969482421875
 30
0.0
 11
187.4889984130859375
 21
232.274993896484375
 31
0.0
  0
LINE
  5
133
100
AcDbEntity
  8
0
 62
256
370
-1
 48
1.0
  6
BYLAYER
100
AcDbLine
 10
187.4889984130859375
 20
232.274993896484375
 30
0.0
 11
187.46600341796875
 21
232.25
 31
0.0
  0
LINE
  5
134
100
AcDbEntity
  8
0
 62
256
370
-1
 48
1.0
  6
BYLAYER
100
AcDbLine
 10
187.46600341796875
 20
232.25
 30
0.0
 11
187.3939971923828125
 21
232.1750030517578125
 31
0.0
  0
LINE
  5
135
100
AcDbEntity
  8
0
 62
256
370
-1
 48
1.0
  6
BYLAYER
100
AcDbLine
 10
187.3939971923828125
 20
232.1750030517578125
 30
0.0
 11
187.391998291015625
 21
232.1730804443359375
 31
0.0
  0
LINE
  5
136
100
AcDbEntity
  8
0
 62
256
370
-1
 48
1.0
  6
BYLAYER
100
AcDbLine
 10
187.391998291015625
 20
232.1730804443359375
 30
0.0
 11
187.3159942626953125
 21
232.100006103515625
 31
0.0
  0
LINE
  5
137
100
AcDbEntity
  8
0
 62
256
370
-1
 48
1.0
  6
BYLAYER
100
AcDbLine
 10
187.3159942626953125
 20
232.100006103515625
 30
0.0
 11
187.2599945068359375
 21
232.0500030517578125
 31
0.0
  0
LINE
  5
138
100
AcDbEntity
  8
0
 62
256
370
-1
 48
1.0
  6
BYLAYER
100
AcDbLine
 10
187.2599945068359375
 20
232.0500030517578125
 30
0.0
 11
187.201995849609375
 21
232.0
 31
0.0
  0
LINE
  5
139
100
AcDbEntity
  8
0
 62
256
370
-1
 48
1.0
  6
BYLAYER
100
AcDbLine
 10
187.201995849609375
 20
232.0
 30
0.0
 11
187.1710052490234375
 21
231.9739990234375
 31
0.0
  0
LINE
  5
13A
100
AcDbEntity
  8
0
 62
256
370
-1
 48
1.0
  6
BYLAYER
100
AcDbLine
 10
187.1710052490234375
 20
231.9739990234375
 30
0.0
 11
187.1399993896484375
 21
231.949005126953125
 31
0.0
  0
LINE
  5
13B
100
AcDbEntity
  8
0
 62
256
370
-1
 48
1.0
  6
BYLAYER
100
AcDbLine
 10
187.1399993896484375
 20
231.949005126953125
 30
0.0
 11
187.1233673095703125
 21
231.936004638671875
 31
0.0
  0
LINE
  5
13C
100
AcDbEntity
  8
0
 62
256
370
-1
 48
1.0
  6
BYLAYER
100
AcDbLine
 10
187.1233673095703125
 20
231.936004638671875
 30
0.0
 11
187.108001708984375
 21
231.9239959716796875
 31
0.0
  0
LINE
  5
13D
100
AcDbEntity
  8
0
 62
256
370
-1
 48
1.0
  6
BYLAYER
100
AcDbLine
 10
187.108001708984375
 20
231.9239959716796875
 30
0.0
 11
187.0749969482421875
 21
231.8990020751953125
 31
0.0
  0
LINE
  5
13E
100
AcDbEntity
  8
0
 62
256
370
-1
 48
1.0
  6
BYLAYER
100
AcDbLine
 10
187.0749969482421875
 20
231.8990020751953125
 30
0.0
 11
187.0410003662109375
 21
231.873992919921875
 31
0.0
  0
LINE
  5
13F
100
AcDbEntity
  8
0
 62
256
370
-1
 48
1.0
  6
BYLAYER
100
AcDbLine
 10
187.0410003662109375
 20
231.873992919921875
 30
0.0
 11
186.9709930419921875
 21
231.824005126953125
 31
0.0
  0
LINE
  5
140
100
AcDbEntity
  8
0
 62
256
370
-1
 48
1.0
  6
BYLAYER
100
AcDbLine
 10
186.9709930419921875
 20
231.824005126953125
 30
0.0
 11
186.9340057373046875
 21
231.7989959716796875
 31
0.0
  0
LINE
  5
141
100
AcDbEntity
  8
0
 62
256
370
-1
 48
1.0
  6
BYLAYER
100
AcDbLine
 10
186.9340057373046875
 20
231.7989959716796875
 30
0.0
 11
186.8800048828125
 21
231.7634735107421875
 31
0.0
  0
LINE
  5
142
100
AcDbEntity
  8
0
 62
256
370
-1
 48
1.0
  6
BYLAYER
100
AcDbLine
 10
186.8800048828125
 20
231.7634735107421875
 30
0.0
 11
186.858001708984375
 21
231.748992919921875
 31
0.0
  0
LINE
  5
143
100
AcDbEntity
  8
0
 62
256
370
-1
 48
1.0
  6
BYLAYER
100
AcDbLine
 10
186.858001708984375
 20
231.748992919921875
 30
0.0
 11
186.8179931640625
 21
231.7239990234375
 31
0.0
  0
LINE
  5
144
100
AcDbEntity
  8
0
 62
256
370
-1
 48
1.0
  6
BYLAYER
100
AcDbLine
 10
186.8179931640625
 20
231.7239990234375
 30
0.0
 11
186.7769927978515625
 21
231.699005126953125
 31
0.0
  0
LINE
  5
145
100
AcDbEntity
  8
0
 62
256
370
-1
 48
1.0
  6
BYLAYER
100
AcDbLine
 10
186.7769927978515625
 20
231.699005126953125
 30
0.0
 11
186.7350006103515625
 21
231.6739959716796875
 31
0.0
  0
LINE
  5
146
100
AcDbEntity
  8
0
 62
256
370
-1
 48
1.0
  6
BYLAYER
100
AcDbLine
 10
186.7350006103515625
 20
231.6739959716796875
 30
0.0
 11
186.647003173828125
 21
231.623992919921875
 31
0.0
  0
LINE
  5
147
100
AcDbEntity
  8
0
 62
256
370
-1
 48
1.0
  6
BYLAYER
100
AcDbLine
 10
186.647003173828125
 20
231.623992919921875
 30
0.0
 11
186.5529937744140625
 21
231.574005126953125
 31
0.0
  0
LINE
  5
148
100
AcDbEntity
  8
0
 62
256
370
-1
 48
1.0
  6
BYLAYER
100
AcDbLine
 10
186.5529937744140625
 20
231.574005126953125
 30
0.0
 11
186.503997802734375
 21
231.5489959716796875
 31
0.0
  0
LINE
  5
149
100
AcDbEntity
  8
0
 62
256
370
-1
 48
1.0
  6
BYLAYER
100
AcDbLine
 10
186.503997802734375
 20
231.5489959716796875
 30
0.0
 11
186.4530029296875
 21
231.5240020751953125
 31
0.0
  0
LINE
  5
14A
100
AcDbEntity
  8
0
 62
256
370
-1
 48
1.0
  6
BYLAYER
100
AcDbLine
 10
186.4530029296875
 20
231.5240020751953125
 30
0.0
 11
186.4010009765625
 21
231.498992919921875
 31
0.0
  0
LINE
  5
14B
100
AcDbEntity
  8
0
 62
256
370
-1
 48
1.0
  6
BYLAYER
100
AcDbLine
 10
186.4010009765625
 20
231.498992919921875
 30
0.0
 11
186.3679962158203125
 21
231.4833984375
 31
0.0
  0
LINE
  5
14C
100
AcDbEntity
  8
0
 62
256
370
-1
 48
1.0
  6
BYLAYER
100
AcDbLine
 10
186.3679962158203125
 20
231.4833984375
 30
0.0
 11
186.3459930419921875
 21
231.4730072021484375
 31
0.0
  0
LINE
  5
14D
100
AcDbEntity
  8
0
 62
256
370
-1
 48
1.0
  6
BYLAYER
100
AcDbLine
 10
186.3459930419921875
 20
231.4730072021484375
 30
0.0
 11
186.2899932861328125
 21
231.447998046875
 31
0.0
  0
LINE
  5
14E
100
AcDbEntity
  8
0
 62
256
370
-1
 48
1.0
  6
BYLAYER
100
AcDbLine
 10
186.2899932861328125
 20
231.447998046875
 30
0.0
 11
186.2333526611328125
 21
231.4239959716796875
 31
0.0
  0
LINE
  5
14F
100
AcDbEntity
  8
0
 62
256
370
-1
 48
1.0
  6
BYLAYER
100
AcDbLine
 10
186.2333526611328125
 20
231.4239959716796875
 30
0.0
 11
186.2310028076171875
 21
231.423004150390625
 31
0.0
  0
LINE
  5
150
100
AcDbEntity
  8
0
 62
256
370
-1
 48
1.0
  6
BYLAYER
100
AcDbLine
 10
186.2310028076171875
 20
231.423004150390625
 30
0.0
 11
186.1710052490234375
 21
231.3979949951171875
 31
0.0
  0
LINE
  5
151
100
AcDbEntity
  8
0
 62
256
370
-1
 48
1.0
  6
BYLAYER
100
AcDbLine
 10
186.1710052490234375
 20
231.3979949951171875
 30
0.0
 11
186.10699462890625
 21
231.3730010986328125
 31
0.0
  0
LINE
  5
152
100
AcDbEntity
  8
0
 62
256
370
-1
 48
1.0
  6
BYLAYER
100
AcDbLine
 10
186.10699462890625
 20
231.3730010986328125
 30
0.0
 11
186.0410003662109375
 21
231.3480072021484375
 31
0.0
  0
LINE
  5
153
100
AcDbEntity
  8
0
 62
256
370
-1
 48
1.0
  6
BYLAYER
100
AcDbLine
 10
186.0410003662109375
 20
231.3480072021484375
 30
0.0
 11
185.9720001220703125
 21
231.322998046875
 31
0.0
  0
LINE
  5
154
100
AcDbEntity
  8
0
 62
256
370
-1
 48
1.0
  6
BYLAYER
100
AcDbLine
 10
185.9720001220703125
 20
231.322998046875
 30
0.0
 11
185.899993896484375
 21
231.298004150390625
 31
0.0
  0
LINE
  5
155
100
AcDbEntity
  8
0
 62
256
370
-1
 48
1.0
  6
BYLAYER
100
AcDbLine
 10
185.899993896484375
 20
231.298004150390625
 30
0.0
 11
185.824005126953125
 21
231.2729949951171875
 31
0.0
  0
LINE
  5
156
100
AcDbEntity
  8
0
 62
256
370
-1
 48
1.0
  6
BYLAYER
100
AcDbLine
 10
185.824005126953125
 20
231.2729949951171875
 30
0.0
 11
185.7429962158203125
 21
231.2480010986328125
 31
0.0
  0
LINE
  5
157
100
AcDbEntity
  8
0
 62
256
370
-1
 48
1.0
  6
BYLAYER
100
AcDbLine
 10
185.7429962158203125
 20
231.2480010986328125
 30
0.0
 11
185.6580047607421875
 21
231.2230072021484375
 31
0.0
  0
LINE
  5
158
100
AcDbEntity
  8
0
 62
256
370
-1
 48
1.0
  6
BYLAYER
100
AcDbLine
 10
185.6580047607421875
 20
231.2230072021484375
 30
0.0
 11
185.5670013427734375
 21
231.197998046875
 31
0.0
  0
LINE
  5
159
100
AcDbEntity
  8
0
 62
256
370
-1
 48
1.0
  6
BYLAYER
100
AcDbLine
 10
185.5670013427734375
 20
231.197998046875
 30
0.0
 11
185.470001220703125
 21
231.173004150390625
 31
0.0
  0
LINE
  5
15A
100
AcDbEntity
  8
0
 62
256
370
-1
 48
1.0
  6
BYLAYER
100
AcDbLine
 10
185.470001220703125
 20
231.173004150390625
 30
0.0
 11
185.3639984130859375
 21
231.1479949951171875
 31
0.0
  0
LINE
  5
15B
100
AcDbEntity
  8
0
 62
256
370
-1
 48
1.0
  6
BYLAYER
100
AcDbLine
 10
185.3639984130859375
 20
231.1479949951171875
 30
0.0
 11
185.343994140625
 21
231.1436920166015625
 31
0.0
  0
LINE
  5
15C
100
AcDbEntity
  8
0
 62
256
370
-1
 48
1.0
  6
BYLAYER
100
AcDbLine
 10
185.343994140625
 20
231.1436920166015625
 30
0.0
 11
185.2480010986328125
 21
231.1230010986328125
 31
0.0
  0
LINE
  5
15D
100
AcDbEntity
  8
0
 62
256
370
-1
 48
1.0
  6
BYLAYER
100
AcDbLine
 10
185.2480010986328125
 20
231.1230010986328125
 30
0.0
 11
185.1190032958984375
 21
231.0980072021484375
 31
0.0
  0
LINE
  5
15E
100
AcDbEntity
  8
0
 62
256
370
-1
 48
1.0
  6
BYLAYER
100
AcDbLine
 10
185.1190032958984375
 20
231.0980072021484375
 30
0.0
 11
184.9709930419921875
 21
231.072998046875
 31
0.0
  0
LINE
  5
15F
100
AcDbEntity
  8
0
 62
256
370
-1
 48
1.0
  6
BYLAYER
100
AcDbLine
 10
184.9709930419921875
 20
231.072998046875
 30
0.0
 11
184.7949981689453125
 21
231.048004150390625
 31
0.0
  0
LINE
  5
160
100
AcDbEntity
  8
0
 62
256
370
-1
 48
1.0
  6
BYLAYER
100
AcDbLine
 10
184.7949981689453125
 20
231.048004150390625
 30
0.0
 11
184.5619964599609375
 21
231.0229949951171875
 31
0.0
  0
LINE
  5
161
100
AcDbEntity
  8
0
 62
256
370
-1
 48
1.0
  6
BYLAYER
100
AcDbLine
 10
184.5619964599609375
 20
231.0229949951171875
 30
0.0
 11
184.32000732421875
 21
231.01226806640625
 31
0.0
  0
LINE
  5
162
100
AcDbEntity
  8
0
 62
256
370
-1
 48
1.0
  6
BYLAYER
100
AcDbLine
 10
184.32000732421875
 20
231.01226806640625
 30
0.0
 11
184.043121337890625
 21
231.0
 31
0.0
  0
LINE
  5
163
100
AcDbEntity
  8
0
 62
256
370
-1
 48
1.0
  6
BYLAYER
100
AcDbLine
 10
184.043121337890625
 20
231.0
 30
0.0
 11
183.9980010986328125
 21
231.0
 31
0.0
  0
LINE
  5
164
100
AcDbEntity
  8
0
 62
256
370
-1
 48
1.0
  6
BYLAYER
100
AcDbLine
 10
183.9980010986328125
 20
231.0
 30
0.0
 11
79.0
 21
231.0
 31
0.0
  0
LINE
  5
165
100
AcDbEntity
  8
0
 62
256
370
-1
 48
1.0
  6
BYLAYER
100
AcDbLine
 10
79.0
 20
231.0
 30
0.0
 11
-0.9967750906944275
 21
231.0
 31
0.0
  0
LINE
  5
166
100
AcDbEntity
  8
0
 62
256
370
-1
 48
1.0
  6
BYLAYER
100
AcDbLine
 10
-0.9967750906944275
 20
231.0
 30
0.0
 11
-4.0029997825622559
 21
231.0
 31
0.0
  0
LINE
  5
167
100
AcDbEntity
  8
0
 62
256
370
-1
 48
1.0
  6
BYLAYER
100
AcDbLine
 10
-4.0029997825622559
 20
231.0
 30
0.0
 11
-12.0
 21
231.0
 31
0.0
  0
LINE
  5
168
100
AcDbEntity
  8
0
 62
256
370
-1
 48
1.0
  6
BYLAYER
100
AcDbLine
 10
-12.0
 20
231.0
 30
0.0
 11
-12.0
 21
289.0
 31
0.0
  0
LINE
  5
169
100
AcDbEntity
  8
0
 62
256
370
-1
 48
1.0
  6
BYLAYER
100
AcDbLine
 10
-12.0
 20
289.0
 30
0.0
 11
-4.0029997825622559
 21
289.0
 31
0.0
  0
LINE
  5
16A
100
AcDbEntity
  8
0
 62
256
370
-1
 48
1.0
  6
BYLAYER
100
AcDbLine
 10
-4.0029997825622559
 20
289.0
 30
0.0
 11
-0.9982249140739441
 21
289.0
 31
0.0
  0
LINE
  5
16B
100
AcDbEntity
  8
0
 62
256
370
-1
 48
1.0
  6
BYLAYER
100
AcDbLine
 10
-0.9982249140739441
 20
289.0
 30
0.0
 11
-0.996999979019165
 21
289.0
 31
0.0
  0
LINE
  5
16C
100
AcDbEntity
  8
0
 62
256
370
-1
 48
1.0
  6
BYLAYER
100
AcDbLine
 10
-0.996999979019165
 20
289.0
 30
0.0
 11
79.0
 21
289.0
 31
0.0
  0
LINE
  5
16D
100
AcDbEntity
  8
0
 62
256
370
-1
 48
1.0
  6
BYLAYER
100
AcDbLine
 10
79.0
 20
289.0
 30
0.0
 11
183.9980010986328125
 21
289.0
 31
0.0
  0
LINE
  5
16E
100
AcDbEntity
  8
0
 62
256
370
-1
 48
1.0
  6
BYLAYER
100
AcDbLine
 10
183.9980010986328125
 20
289.0
 30
0.0
 11
184.66400146484375
 21
289.0
 31
0.0
  0
LINE
  5
16F
100
AcDbEntity
  8
0
 62
256
370
-1
 48
1.0
  6
BYLAYER
100
AcDbLine
 10
184.66400146484375
 20
289.0
 30
0.0
 11
184.7660064697265625
 21
289.0
 31
0.0
  0
LINE
  5
170
100
AcDbEntity
  8
0
 62
256
370
-1
 48
1.0
  6
BYLAYER
100
AcDbLine
 10
184.7660064697265625
 20
289.0
 30
0.0
 11
184.798004150390625
 21
289.0
 31
0.0
  0
LINE
  5
171
100
AcDbEntity
  8
0
 62
256
370
-1
 48
1.0
  6
BYLAYER
100
AcDbLine
 10
184.798004150390625
 20
289.0
 30
0.0
 11
184.83099365234375
 21
288.998992919921875
 31
0.0
  0
LINE
  5
172
100
AcDbEntity
  8
0
 62
256
370
-1
 48
1.0
  6
BYLAYER
100
AcDbLine
 10
184.83099365234375
 20
288.998992919921875
 30
0.0
 11
184.832000732421875
 21
288.998931884765625
 31
0.0
  0
LINE
  5
173
100
AcDbEntity
  8
0
 62
256
370
-1
 48
1.0
  6
BYLAYER
100
AcDbLine
 10
184.832000732421875
 20
288.998931884765625
 30
0.0
 11
184.8639984130859375
 21
288.99700927734375
 31
0.0
  0
LINE
  5
174
100
AcDbEntity
  8
0
 62
256
370
-1
 48
1.0
  6
BYLAYER
100
AcDbLine
 10
184.8639984130859375
 20
288.99700927734375
 30
0.0
 11
184.8979949951171875
 21
288.9949951171875
 31
0.0
  0
LINE
  5
175
100
AcDbEntity
  8
0
 62
256
370
-1
 48
1.0
  6
BYLAYER
100
AcDbLine
 10
184.8979949951171875
 20
288.9949951171875
 30
0.0
 11
184.930999755859375
 21
288.993011474609375
 31
0.0
  0
LINE
  5
176
100
AcDbEntity
  8
0
 62
256
370
-1
 48
1.0
  6
BYLAYER
100
AcDbLine
 10
184.930999755859375
 20
288.993011474609375
 30
0.0
 11
184.933197021484375
 21
288.9927978515625
 31
0.0
  0
LINE
  5
177
100
AcDbEntity
  8
0
 62
256
370
-1
 48
1.0
  6
BYLAYER
100
AcDbLine
 10
184.933197021484375
 20
288.9927978515625
 30
0.0
 11
184.964996337890625
 21
288.989990234375
 31
0.0
  0
LINE
  5
178
100
AcDbEntity
  8
0
 62
256
370
-1
 48
1.0
  6
BYLAYER
100
AcDbLine
 10
184.964996337890625
 20
288.989990234375
 30
0.0
 11
184.9980010986328125
 21
288.988006591796875
 31
0.0
  0
LINE
  5
179
100
AcDbEntity
  8
0
 62
256
370
-1
 48
1.0
  6
BYLAYER
100
AcDbLine
 10
184.9980010986328125
 20
288.988006591796875
 30
0.0
 11
185.0256500244140625
 21
288.984649658203125
 31
0.0
  0
LINE
  5
17A
100
AcDbEntity
  8
0
 62
256
370
-1
 48
1.0
  6
BYLAYER
100
AcDbLine
 10
185.0256500244140625
 20
288.984649658203125
 30
0.0
 11
185.031005859375
 21
288.9840087890625
 31
0.0
  0
LINE
  5
17B
100
AcDbEntity
  8
0
 62
256
370
-1
 48
1.0
  6
BYLAYER
100
AcDbLine
 10
185.031005859375
 20
288.9840087890625
 30
0.0
 11
185.06500244140625
 21
288.980987548828125
 31
0.0
  0
LINE
  5
17C
100
AcDbEntity
  8
0
 62
256
370
-1
 48
1.0
  6
BYLAYER
100
AcDbLine
 10
79.0
 20
-19.0
 30
0.0
 11
123.0
 21
-19.0
 31
0.0
  0
LINE
  5
17D
100
AcDbEntity
  8
0
 62
256
370
-1
 48
1.0
  6
BYLAYER
100
AcDbLine
 10
123.0
 20
-19.0
 30
0.0
 11
123.0
 21
-172.0
 31
0.0
  0
LINE
  5
17E
100
AcDbEntity
  8
0
 62
256
370
-1
 48
1.0
  6
BYLAYER
100
AcDbLine
 10
123.0
 20
-172.0
 30
0.0
 11
88.5
 21
-172.0
 31
0.0
  0
LINE
  5
17F
100
AcDbEntity
  8
0
 62
256
370
-1
 48
1.0
  6
BYLAYER
100
AcDbLine
 10
88.5
 20
-172.0
 30
0.0
 11
83.5
 21
-172.0
 31
0.0
  0
LINE
  5
180
100
AcDbEntity
  8
0
 62
256
370
-1
 48
1.0
  6
BYLAYER
100
AcDbLine
 10
83.5
 20
-172.0
 30
0.0
 11
48.0
 21
-172.0
 31
0.0
  0
LINE
  5
181
100
AcDbEntity
  8
0
 62
256
370
-1
 48
1.0
  6
BYLAYER
100
AcDbLine
 10
48.0
 20
-172.0
 30
0.0
 11
48.0
 21
-19.0
 31
0.0
  0
LINE
  5
182
100
AcDbEntity
  8
0
 62
256
370
-1
 48
1.0
  6
BYLAYER
100
AcDbLine
 10
48.0
 20
-19.0
 30
0.0
 11
79.0
 21
-19.0
 31
0.0
  0
LINE
  5
183
100
AcDbEntity
  8
0
 62
256
370
-1
 48
1.0
  6
BYLAYER
100
AcDbLine
 10
-130.0
 20
-15.0
 30
0.0
 11
-283.0
 21
-15.0
 31
0.0
  0
LINE
  5
184
100
AcDbEntity
  8
0
 62
256
370
-1
 48
1.0
  6
BYLAYER
100
AcDbLine
 10
-283.0
 20
-15.0
 30
0.0
 11
-283.0
 21
71.0
 31
0.0
  0
LINE
  5
185
100
AcDbEntity
  8
0
 62
256
370
-1
 48
1.0
  6
BYLAYER
100
AcDbLine
 10
-283.0
 20
71.0
 30
0.0
 11
-130.0
 21
71.0
 31
0.0
  0
LINE
  5
186
100
AcDbEntity
  8
0
 62
256
370
-1
 48
1.0
  6
BYLAYER
100
AcDbLine
 10
-130.0
 20
71.0
 30
0.0
 11
-130.0
 21
-15.0
 31
0.0
  0
LINE
  5
187
100
AcDbEntity
  8
0
 62
256
370
-1
 48
1.0
  6
BYLAYER
100
AcDbLine
 10
81.0
 20
203.0
 30
0.0
 11
81.0
 21
190.0
 31
0.0
  0
LINE
  5
188
100
AcDbEntity
  8
0
 62
256
370
-1
 48
1.0
  6
BYLAYER
100
AcDbLine
 10
81.0
 20
190.0
 30
0.0
 11
81.0
 21
177.0
 31
0.0
  0
LINE
  5
189
100
AcDbEntity
  8
0
 62
256
370
-1
 48
1.0
  6
BYLAYER
100
AcDbLine
 10
81.0
 20
177.0
 30
0.0
 11
81.0
 21
173.0
 31
0.0
  0
LINE
  5
18A
100
AcDbEntity
  8
0
 62
256
370
-1
 48
1.0
  6
BYLAYER
100
AcDbLine
 10
81.0
 20
173.0
 30
0.0
 11
79.0
 21
173.0
 31
0.0
  0
LINE
  5
18B
100
AcDbEntity
  8
0
 62
256
370
-1
 48
1.0
  6
BYLAYER
100
AcDbLine
 10
79.0
 20
173.0
 30
0.0
 11
46.0
 21
173.0
 31
0.0
  0
LINE
  5
18C
100
AcDbEntity
  8
0
 62
256
370
-1
 48
1.0
  6
BYLAYER
100
AcDbLine
 10
46.0
 20
173.0
 30
0.0
 11
46.0
 21
194.0
 31
0.0
  0
LINE
  5
18D
100
AcDbEntity
  8
0
 62
256
370
-1
 48
1.0
  6
BYLAYER
100
AcDbLine
 10
46.0
 20
194.0
 30
0.0
 11
46.0
 21
203.0
 31
0.0
  0
LINE
  5
18E
100
AcDbEntity
  8
0
 62
256
370
-1
 48
1.0
  6
BYLAYER
100
AcDbLine
 10
46.0
 20
203.0
 30
0.0
 11
79.0
 21
203.0
 31
0.0
  0
LINE
  5
18F
100
AcDbEntity
  8
0
 62
256
370
-1
 48
1.0
  6
BYLAYER
100
AcDbLine
 10
79.0
 20
203.0
 30
0.0
 11
81.0
 21
203.0
 31
0.0
  0
LINE
  5
190
100
AcDbEntity
  8
0
 62
256
370
-1
 48
1.0
  6
BYLAYER
100
AcDbLine
 10
148.0
 20
167.0
 30
0.0
 11
131.9980010986328125
 21
167.0
 31
0.0
  0
LINE
  5
191
100
AcDbEntity
  8
0
 62
256
370
-1
 48
1.0
  6
BYLAYER
100
AcDbLine
 10
131.9980010986328125
 20
167.0
 30
0.0
 11
124.0
 21
167.0
 31
0.0
  0
LINE
  5
192
100
AcDbEntity
  8
0
 62
256
370
-1
 48
1.0
  6
BYLAYER
100
AcDbLine
 10
124.0
 20
167.0
 30
0.0
 11
124.0
 21
173.0
 31
0.0
  0
LINE
  5
193
100
AcDbEntity
  8
0
 62
256
370
-1
 48
1.0
  6
BYLAYER
100
AcDbLine
 10
124.0
 20
173.0
 30
0.0
 11
124.0
 21
177.0
 31
0.0
  0
LINE
  5
194
100
AcDbEntity
  8
0
 62
256
370
-1
 48
1.0
  6
BYLAYER
100
AcDbLine
 10
124.0
 20
177.0
 30
0.0
 11
124.0
 21
190.0
 31
0.0
  0
LINE
  5
195
100
AcDbEntity
  8
0
 62
256
370
-1
 48
1.0
  6
BYLAYER
100
AcDbLine
 10
124.0
 20
190.0
 30
0.0
 11
124.0
 21
202.0
 31
0.0
  0
LINE
  5
196
100
AcDbEntity
  8
0
 62
256
370
-1
 48
1.0
  6
BYLAYER
100
AcDbLine
 10
124.0
 20
202.0
 30
0.0
 11
148.0
 21
202.0
 31
0.0
  0
LINE
  5
197
100
AcDbEntity
  8
0
 62
256
370
-1
 48
1.0
  6
BYLAYER
100
AcDbLine
 10
148.0
 20
202.0
 30
0.0
 11
148.0
 21
190.0
 31
0.0
  0
LINE
  5
198
100
AcDbEntity
  8
0
 62
256
370
-1
 48
1.0
  6
BYLAYER
100
AcDbLine
 10
148.0
 20
190.0
 30
0.0
 11
148.0
 21
177.0
 31
0.0
  0
LINE
  5
199
100
AcDbEntity
  8
0
 62
256
370
-1
 48
1.0
  6
BYLAYER
100
AcDbLine
 10
148.0
 20
177.0
 30
0.0
 11
148.0
 21
173.0
 31
0.0
  0
LINE
  5
19A
100
AcDbEntity
  8
0
 62
256
370
-1
 48
1.0
  6
BYLAYER
100
AcDbLine
 10
148.0
 20
173.0
 30
0.0
 11
148.0
 21
169.147003173828125
 31
0.0
  0
LINE
  5
19B
100
AcDbEntity
  8
0
 62
256
370
-1
 48
1.0
  6
BYLAYER
100
AcDbLine
 10
148.0
 20
169.147003173828125
 30
0.0
 11
148.0
 21
167.0
 31
0.0
  0
LINE
  5
19C
100
AcDbEntity
  8
0
 62
256
370
-1
 48
1.0
  6
BYLAYER
100
AcDbLine
 10
-283.0
 20
-19.0
 30
0.0
 11
-167.0
 21
-19.0
 31
0.0
  0
LINE
  5
19D
100
AcDbEntity
  8
0
 62
256
370
-1
 48
1.0
  6
BYLAYER
100
AcDbLine
 10
-167.0
 20
-19.0
 30
0.0
 11
-167.0
 21
-22.0
 31
0.0
  0
LINE
  5
19E
100
AcDbEntity
  8
0
 62
256
370
-1
 48
1.0
  6
BYLAYER
100
AcDbLine
 10
-167.0
 20
-22.0
 30
0.0
 11
-167.0
 21
-172.0
 31
0.0
  0
LINE
  5
19F
100
AcDbEntity
  8
0
 62
256
370
-1
 48
1.0
  6
BYLAYER
100
AcDbLine
 10
-167.0
 20
-172.0
 30
0.0
 11
-287.0
 21
-172.0
 31
0.0
  0
LINE
  5
1A0
100
AcDbEntity
  8
0
 62
256
370
-1
 48
1.0
  6
BYLAYER
100
AcDbLine
 10
-287.0
 20
-172.0
 30
0.0
 11
-287.0
 21
-19.0
 31
0.0
  0
LINE
  5
1A1
100
AcDbEntity
  8
0
 62
256
370
-1
 48
1.0
  6
BYLAYER
100
AcDbLine
 10
-287.0
 20
-19.0
 30
0.0
 11
-283.0
 21
-19.0
 31
0.0
  0
LINE
  5
1A2
100
AcDbEntity
  8
0
 62
256
370
-1
 48
1.0
  6
BYLAYER
100
AcDbLine
 10
-10.5
 20
-293.5
 30
0.0
 11
-10.5
 21
-293.0
 31
0.0
  0
LINE
  5
1A3
100
AcDbEntity
  8
0
 62
256
370
-1
 48
1.0
  6
BYLAYER
100
AcDbLine
 10
-10.5
 20
-293.0
 30
0.0
 11
-10.5
 21
-290.0
 31
0.0
  0
LINE
  5
1A4
100
AcDbEntity
  8
0
 62
256
370
-1
 48
1.0
  6
BYLAYER
100
AcDbLine
 10
-10.5
 20
-290.0
 30
0.0
 11
-10.5
 21
-207.5
 31
0.0
  0
LINE
  5
1A5
100
AcDbEntity
  8
0
 62
256
370
-1
 48
1.0
  6
BYLAYER
100
AcDbLine
 10
-10.5
 20
-207.5
 30
0.0
 11
18.0
 21
-207.5
 31
0.0
  0
LINE
  5
1A6
100
AcDbEntity
  8
0
 62
256
370
-1
 48
1.0
  6
BYLAYER
100
AcDbLine
 10
18.0
 20
-207.5
 30
0.0
 11
23.5
 21
-207.5
 31
0.0
  0
LINE
  5
1A7
100
AcDbEntity
  8
0
 62
256
370
-1
 48
1.0
  6
BYLAYER
100
AcDbLine
 10
23.5
 20
-207.5
 30
0.0
 11
83.5
 21
-207.5
 31
0.0
  0
LINE
  5
1A8
100
AcDbEntity
  8
0
 62
256
370
-1
 48
1.0
  6
BYLAYER
100
AcDbLine
 10
83.5
 20
-207.5
 30
0.0
 11
142.5
 21
-207.5
 31
0.0
  0
LINE
  5
1A9
100
AcDbEntity
  8
0
 62
256
370
-1
 48
1.0
  6
BYLAYER
100
AcDbLine
 10
142.5
 20
-207.5
 30
0.0
 11
142.5
 21
-293.0
 31
0.0
  0
LINE
  5
1AA
100
AcDbEntity
  8
0
 62
256
370
-1
 48
1.0
  6
BYLAYER
100
AcDbLine
 10
142.5
 20
-293.0
 30
0.0
 11
142.5
 21
-293.5
 31
0.0
  0
LINE
  5
1AB
100
AcDbEntity
  8
0
 62
256
370
-1
 48
1.0
  6
BYLAYER
100
AcDbLine
 10
142.5
 20
-293.5
 30
0.0
 11
-10.5
 21
-293.5
 31
0.0
  0
LINE
  5
1AC
100
AcDbEntity
  8
0
 62
256
370
-1
 48
1.0
  6
BYLAYER
100
AcDbLine
 10
18.9549999237060547
 20
-193.061004638671875
 30
0.0
 11
19.0160007476806641
 21
-193.0
 31
0.0
  0
LINE
  5
1AD
100
AcDbEntity
  8
0
 62
256
370
-1
 48
1.0
  6
BYLAYER
100
AcDbLine
 10
19.0160007476806641
 20
-193.0
 30
0.0
 11
20.0610008239746094
 21
-191.9550018310546875
 31
0.0
  0
LINE
  5
1AE
100
AcDbEntity
  8
0
 62
256
370
-1
 48
1.0
  6
BYLAYER
100
AcDbLine
 10
20.0610008239746094
 20
-191.9550018310546875
 30
0.0
 11
21.4549999237060547
 21
-191.2449951171875
 31
0.0
  0
LINE
  5
1AF
100
AcDbEntity
  8
0
 62
256
370
-1
 48
1.0
  6
BYLAYER
100
AcDbLine
 10
21.4549999237060547
 20
-191.2449951171875
 30
0.0
 11
23.0
 21
-191.0
 31
0.0
  0
LINE
  5
1B0
100
AcDbEntity
  8
0
 62
256
370
-1
 48
1.0
  6
BYLAYER
100
AcDbLine
 10
23.0
 20
-191.0
 30
0.0
 11
23.5
 21
-191.07928466796875
 31
0.0
  0
LINE
  5
1B1
100
AcDbEntity
  8
0
 62
256
370
-1
 48
1.0
  6
BYLAYER
100
AcDbLine
 10
23.5
 20
-191.07928466796875
 30
0.0
 11
23.5
 21
-191.0
 31
0.0
  0
LINE
  5
1B2
100
AcDbEntity
  8
0
 62
256
370
-1
 48
1.0
  6
BYLAYER
100
AcDbLine
 10
23.5
 20
-191.0
 30
0.0
 11
40.0
 21
-191.0
 31
0.0
  0
LINE
  5
1B3
100
AcDbEntity
  8
0
 62
256
370
-1
 48
1.0
  6
BYLAYER
100
AcDbLine
 10
40.0
 20
-191.0
 30
0.0
 11
83.5
 21
-191.0
 31
0.0
  0
LINE
  5
1B4
100
AcDbEntity
  8
0
 62
256
370
-1
 48
1.0
  6
BYLAYER
100
AcDbLine
 10
83.5
 20
-191.0
 30
0.0
 11
85.0449981689453125
 21
-191.2449951171875
 31
0.0
  0
LINE
  5
1B5
100
AcDbEntity
  8
0
 62
256
370
-1
 48
1.0
  6
BYLAYER
100
AcDbLine
 10
85.0449981689453125
 20
-191.2449951171875
 30
0.0
 11
86.4390029907226562
 21
-191.9550018310546875
 31
0.0
  0
LINE
  5
1B6
100
AcDbEntity
  8
0
 62
256
370
-1
 48
1.0
  6
BYLAYER
100
AcDbLine
 10
86.4390029907226562
 20
-191.9550018310546875
 30
0.0
 11
87.4840011596679688
 21
-193.0
 31
0.0
  0
LINE
  5
1B7
100
AcDbEntity
  8
0
 62
256
370
-1
 48
1.0
  6
BYLAYER
100
AcDbLine
 10
87.4840011596679688
 20
-193.0
 30
0.0
 11
87.5449981689453125
 21
-193.061004638671875
 31
0.0
  0
LINE
  5
1B8
100
AcDbEntity
  8
0
 62
256
370
-1
 48
1.0
  6
BYLAYER
100
AcDbLine
 10
87.5449981689453125
 20
-193.061004638671875
 30
0.0
 11
88.2549972534179688
 21
-194.4550018310546875
 31
0.0
  0
LINE
  5
1B9
100
AcDbEntity
  8
0
 62
256
370
-1
 48
1.0
  6
BYLAYER
100
AcDbLine
 10
88.2549972534179688
 20
-194.4550018310546875
 30
0.0
 11
88.5
 21
-196.0
 31
0.0
  0
LINE
  5
1BA
100
AcDbEntity
  8
0
 62
256
370
-1
 48
1.0
  6
BYLAYER
100
AcDbLine
 10
88.5
 20
-196.0
 30
0.0
 11
88.4035873413085938
 21
-196.608001708984375
 31
0.0
  0
LINE
  5
1BB
100
AcDbEntity
  8
0
 62
256
370
-1
 48
1.0
  6
BYLAYER
100
AcDbLine
 10
88.4035873413085938
 20
-196.608001708984375
 30
0.0
 11
88.26165771484375
 21
-197.5030059814453125
 31
0.0
  0
LINE
  5
1BC
100
AcDbEntity
  8
0
 62
256
370
-1
 48
1.0
  6
BYLAYER
100
AcDbLine
 10
88.26165771484375
 20
-197.5030059814453125
 30
0.0
 11
88.2549972534179688
 21
-197.5449981689453125
 31
0.0
  0
LINE
  5
1BD
100
AcDbEntity
  8
0
 62
256
370
-1
 48
1.0
  6
BYLAYER
100
AcDbLine
 10
88.2549972534179688
 20
-197.5449981689453125
 30
0.0
 11
87.5449981689453125
 21
-198.938995361328125
 31
0.0
  0
LINE
  5
1BE
100
AcDbEntity
  8
0
 62
256
370
-1
 48
1.0
  6
BYLAYER
100
AcDbLine
 10
87.5449981689453125
 20
-198.938995361328125
 30
0.0
 11
86.4390029907226562
 21
-200.0449981689453125
 31
0.0
  0
LINE
  5
1BF
100
AcDbEntity
  8
0
 62
256
370
-1
 48
1.0
  6
BYLAYER
100
AcDbLine
 10
86.4390029907226562
 20
-200.0449981689453125
 30
0.0
 11
85.0449981689453125
 21
-200.7550048828125
 31
0.0
  0
LINE
  5
1C0
100
AcDbEntity
  8
0
 62
256
370
-1
 48
1.0
  6
BYLAYER
100
AcDbLine
 10
85.0449981689453125
 20
-200.7550048828125
 30
0.0
 11
83.5
 21
-201.0
 31
0.0
  0
LINE
  5
1C1
100
AcDbEntity
  8
0
 62
256
370
-1
 48
1.0
  6
BYLAYER
100
AcDbLine
 10
83.5
 20
-201.0
 30
0.0
 11
82.9980010986328125
 21
-201.0
 31
0.0
  0
LINE
  5
1C2
100
AcDbEntity
  8
0
 62
256
370
-1
 48
1.0
  6
BYLAYER
100
AcDbLine
 10
82.9980010986328125
 20
-201.0
 30
0.0
 11
23.5
 21
-201.0
 31
0.0
  0
LINE
  5
1C3
100
AcDbEntity
  8
0
 62
256
370
-1
 48
1.0
  6
BYLAYER
100
AcDbLine
 10
23.5
 20
-201.0
 30
0.0
 11
23.5
 21
-200.92071533203125
 31
0.0
  0
LINE
  5
1C4
100
AcDbEntity
  8
0
 62
256
370
-1
 48
1.0
  6
BYLAYER
100
AcDbLine
 10
23.5
 20
-200.92071533203125
 30
0.0
 11
23.0
 21
-201.0
 31
0.0
  0
LINE
  5
1C5
100
AcDbEntity
  8
0
 62
256
370
-1
 48
1.0
  6
BYLAYER
100
AcDbLine
 10
23.0
 20
-201.0
 30
0.0
 11
21.4549999237060547
 21
-200.7550048828125
 31
0.0
  0
LINE
  5
1C6
100
AcDbEntity
  8
0
 62
256
370
-1
 48
1.0
  6
BYLAYER
100
AcDbLine
 10
21.4549999237060547
 20
-200.7550048828125
 30
0.0
 11
20.9979991912841797
 21
-200.5222320556640625
 31
0.0
  0
LINE
  5
1C7
100
AcDbEntity
  8
0
 62
256
370
-1
 48
1.0
  6
BYLAYER
100
AcDbLine
 10
20.9979991912841797
 20
-200.5222320556640625
 30
0.0
 11
20.0610008239746094
 21
-200.0449981689453125
 31
0.0
  0
LINE
  5
1C8
100
AcDbEntity
  8
0
 62
256
370
-1
 48
1.0
  6
BYLAYER
100
AcDbLine
 10
20.0610008239746094
 20
-200.0449981689453125
 30
0.0
 11
18.9549999237060547
 21
-198.938995361328125
 31
0.0
  0
LINE
  5
1C9
100
AcDbEntity
  8
0
 62
256
370
-1
 48
1.0
  6
BYLAYER
100
AcDbLine
 10
18.9549999237060547
 20
-198.938995361328125
 30
0.0
 11
18.2450008392333984
 21
-197.5449981689453125
 31
0.0
  0
LINE
  5
1CA
100
AcDbEntity
  8
0
 62
256
370
-1
 48
1.0
  6
BYLAYER
100
AcDbLine
 10
18.2450008392333984
 20
-197.5449981689453125
 30
0.0
 11
18.0964145660400391
 21
-196.608001708984375
 31
0.0
  0
LINE
  5
1CB
100
AcDbEntity
  8
0
 62
256
370
-1
 48
1.0
  6
BYLAYER
100
AcDbLine
 10
18.0964145660400391
 20
-196.608001708984375
 30
0.0
 11
18.0
 21
-196.0
 31
0.0
  0
LINE
  5
1CC
100
AcDbEntity
  8
0
 62
256
370
-1
 48
1.0
  6
BYLAYER
100
AcDbLine
 10
18.0
 20
-196.0
 30
0.0
 11
18.2450008392333984
 21
-194.4550018310546875
 31
0.0
  0
LINE
  5
1CD
100
AcDbEntity
  8
0
 62
256
370
-1
 48
1.0
  6
BYLAYER
100
AcDbLine
 10
18.2450008392333984
 20
-194.4550018310546875
 30
0.0
 11
18.9549999237060547
 21
-193.061004638671875
 31
0.0
  0
LINE
  5
1CE
100
AcDbEntity
  8
0
 62
256
370
-1
 48
1.0
  6
BYLAYER
100
AcDbLine
 10
-34.0
 20
248.0
 30
0.0
 11
-88.0
 21
248.0
 31
0.0
  0
LINE
  5
1CF
100
AcDbEntity
  8
0
 62
256
370
-1
 48
1.0
  6
BYLAYER
100
AcDbLine
 10
-88.0
 20
248.0
 30
0.0
 11
-102.197998046875
 21
248.0
 31
0.0
  0
LINE
  5
1D0
100
AcDbEntity
  8
0
 62
256
370
-1
 48
1.0
  6
BYLAYER
100
AcDbLine
 10
-102.197998046875
 20
248.0
 30
0.0
 11
-124.5019989013671875
 21
248.0
 31
0.0
  0
LINE
  5
1D1
100
AcDbEntity
  8
0
 62
256
370
-1
 48
1.0
  6
BYLAYER
100
AcDbLine
 10
-124.5019989013671875
 20
248.0
 30
0.0
 11
-130.0
 21
248.0
 31
0.0
  0
LINE
  5
1D2
100
AcDbEntity
  8
0
 62
256
370
-1
 48
1.0
  6
BYLAYER
100
AcDbLine
 10
-130.0
 20
248.0
 30
0.0
 11
-134.0
 21
248.0
 31
0.0
  0
LINE
  5
1D3
100
AcDbEntity
  8
0
 62
256
370
-1
 48
1.0
  6
BYLAYER
100
AcDbLine
 10
-134.0
 20
248.0
 30
0.0
 11
-134.0
 21
288.0
 31
0.0
  0
LINE
  5
1D4
100
AcDbEntity
  8
0
 62
256
370
-1
 48
1.0
  6
BYLAYER
100
AcDbLine
 10
-134.0
 20
288.0
 30
0.0
 11
-130.0
 21
288.0
 31
0.0
  0
LINE
  5
1D5
100
AcDbEntity
  8
0
 62
256
370
-1
 48
1.0
  6
BYLAYER
100
AcDbLine
 10
-130.0
 20
288.0
 30
0.0
 11
-124.5019989013671875
 21
288.0
 31
0.0
  0
LINE
  5
1D6
100
AcDbEntity
  8
0
 62
256
370
-1
 48
1.0
  6
BYLAYER
100
AcDbLine
 10
-124.5019989013671875
 20
288.0
 30
0.0
 11
-102.197998046875
 21
288.0
 31
0.0
  0
LINE
  5
1D7
100
AcDbEntity
  8
0
 62
256
370
-1
 48
1.0
  6
BYLAYER
100
AcDbLine
 10
-102.197998046875
 20
288.0
 30
0.0
 11
-88.0
 21
288.0
 31
0.0
  0
LINE
  5
1D8
100
AcDbEntity
  8
0
 62
256
370
-1
 48
1.0
  6
BYLAYER
100
AcDbLine
 10
-88.0
 20
288.0
 30
0.0
 11
-34.0
 21
288.0
 31
0.0
  0
LINE
  5
1D9
100
AcDbEntity
  8
0
 62
256
370
-1
 48
1.0
  6
BYLAYER
100
AcDbLine
 10
-34.0
 20
288.0
 30
0.0
 11
-34.0
 21
248.0
 31
0.0
  0
LINE
  5
1DA
100
AcDbEntity
  8
0
 62
256
370
-1
 48
1.0
  6
BYLAYER
100
AcDbLine
 10
171.0
 20
190.0
 30
0.0
 11
171.0
 21
203.0
 31
0.0
  0
LINE
  5
1DB
100
AcDbEntity
  8
0
 62
256
370
-1
 48
1.0
  6
BYLAYER
100
AcDbLine
 10
171.0
 20
203.0
 30
0.0
 11
171.0
 21
220.0
 31
0.0
  0
LINE
  5
1DC
100
AcDbEntity
  8
0
 62
256
370
-1
 48
1.0
  6
BYLAYER
100
AcDbLine
 10
171.0
 20
220.0
 30
0.0
 11
178.4980010986328125
 21
220.0
 31
0.0
  0
LINE
  5
1DD
100
AcDbEntity
  8
0
 62
256
370
-1
 48
1.0
  6
BYLAYER
100
AcDbLine
 10
178.4980010986328125
 20
220.0
 30
0.0
 11
188.0
 21
220.0
 31
0.0
  0
LINE
  5
1DE
100
AcDbEntity
  8
0
 62
256
370
-1
 48
1.0
  6
BYLAYER
100
AcDbLine
 10
188.0
 20
220.0
 30
0.0
 11
193.5030059814453125
 21
220.0
 31
0.0
  0
LINE
  5
1DF
100
AcDbEntity
  8
0
 62
256
370
-1
 48
1.0
  6
BYLAYER
100
AcDbLine
 10
193.5030059814453125
 20
220.0
 30
0.0
 11
201.0
 21
220.0
 31
0.0
  0
LINE
  5
1E0
100
AcDbEntity
  8
0
 62
256
370
-1
 48
1.0
  6
BYLAYER
100
AcDbLine
 10
201.0
 20
220.0
 30
0.0
 11
201.0
 21
197.4980010986328125
 31
0.0
  0
LINE
  5
1E1
100
AcDbEntity
  8
0
 62
256
370
-1
 48
1.0
  6
BYLAYER
100
AcDbLine
 10
201.0
 20
197.4980010986328125
 30
0.0
 11
201.0
 21
190.0
 31
0.0
  0
LINE
  5
1E2
100
AcDbEntity
  8
0
 62
256
370
-1
 48
1.0
  6
BYLAYER
100
AcDbLine
 10
201.0
 20
190.0
 30
0.0
 11
178.4980010986328125
 21
190.0
 31
0.0
  0
LINE
  5
1E3
100
AcDbEntity
  8
0
 62
256
370
-1
 48
1.0
  6
BYLAYER
100
AcDbLine
 10
178.4980010986328125
 20
190.0
 30
0.0
 11
171.0
 21
190.0
 31
0.0
  0
LINE
  5
1E4
100
AcDbEntity
  8
0
 62
256
370
-1
 48
1.0
  6
BYLAYER
100
AcDbLine
 10
79.0
 20
60.0
 30
0.0
 11
79.0
 21
-15.0
 31
0.0
  0
LINE
  5
1E5
100
AcDbEntity
  8
0
 62
256
370
-1
 48
1.0
  6
BYLAYER
100
AcDbLine
 10
79.0
 20
-15.0
 30
0.0
 11
28.9969997406005859
 21
-15.0
 31
0.0
  0
LINE
  5
1E6
100
AcDbEntity
  8
0
 62
256
370
-1
 48
1.0
  6
BYLAYER
100
AcDbLine
 10
28.9969997406005859
 20
-15.0
 30
0.0
 11
-76.9980010986328125
 21
-15.0
 31
0.0
  0
LINE
  5
1E7
100
AcDbEntity
  8
0
 62
256
370
-1
 48
1.0
  6
BYLAYER
100
AcDbLine
 10
-76.9980010986328125
 20
-15.0
 30
0.0
 11
-88.0
 21
-15.0
 31
0.0
  0
LINE
  5
1E8
100
AcDbEntity
  8
0
 62
256
370
-1
 48
1.0
  6
BYLAYER
100
AcDbLine
 10
-88.0
 20
-15.0
 30
0.0
 11
-127.0
 21
-15.0
 31
0.0
  0
LINE
  5
1E9
100
AcDbEntity
  8
0
 62
256
370
-1
 48
1.0
  6
BYLAYER
100
AcDbLine
 10
-127.0
 20
-15.0
 30
0.0
 11
-127.0
 21
71.2480010986328125
 31
0.0
  0
LINE
  5
1EA
100
AcDbEntity
  8
0
 62
256
370
-1
 48
1.0
  6
BYLAYER
100
AcDbLine
 10
-127.0
 20
71.2480010986328125
 30
0.0
 11
-88.0
 21
71.2480010986328125
 31
0.0
  0
LINE
  5
1EB
100
AcDbEntity
  8
0
 62
256
370
-1
 48
1.0
  6
BYLAYER
100
AcDbLine
 10
-88.0
 20
71.2480010986328125
 30
0.0
 11
-76.9980010986328125
 21
71.2480010986328125
 31
0.0
  0
LINE
  5
1EC
100
AcDbEntity
  8
0
 62
256
370
-1
 48
1.0
  6
BYLAYER
100
AcDbLine
 10
-76.9980010986328125
 20
71.2480010986328125
 30
0.0
 11
-76.9980010986328125
 21
194.0
 31
0.0
  0
LINE
  5
1ED
100
AcDbEntity
  8
0
 62
256
370
-1
 48
1.0
  6
BYLAYER
100
AcDbLine
 10
-76.9980010986328125
 20
194.0
 30
0.0
 11
28.9969997406005859
 21
194.0
 31
0.0
  0
LINE
  5
1EE
100
AcDbEntity
  8
0
 62
256
370
-1
 48
1.0
  6
BYLAYER
100
AcDbLine
 10
28.9969997406005859
 20
194.0
 30
0.0
 11
28.9969997406005859
 21
173.0
 31
0.0
  0
LINE
  5
1EF
100
AcDbEntity
  8
0
 62
256
370
-1
 48
1.0
  6
BYLAYER
100
AcDbLine
 10
28.9969997406005859
 20
173.0
 30
0.0
 11
28.9969997406005859
 21
71.2480010986328125
 31
0.0
  0
LINE
  5
1F0
100
AcDbEntity
  8
0
 62
256
370
-1
 48
1.0
  6
BYLAYER
100
AcDbLine
 10
28.9969997406005859
 20
71.2480010986328125
 30
0.0
 11
79.0
 21
71.2480010986328125
 31
0.0
  0
LINE
  5
1F1
100
AcDbEntity
  8
0
 62
256
370
-1
 48
1.0
  6
BYLAYER
100
AcDbLine
 10
79.0
 20
71.2480010986328125
 30
0.0
 11
79.0
 21
60.0
 31
0.0
  0
LINE
  5
1F2
100
AcDbEntity
  8
0
 62
256
370
-1
 48
1.0
  6
BYLAYER
100
AcDbLine
 10
122.0
 20
203.0
 30
0.0
 11
122.0
 21
190.0
 31
0.0
  0
LINE
  5
1F3
100
AcDbEntity
  8
0
 62
256
370
-1
 48
1.0
  6
BYLAYER
100
AcDbLine
 10
122.0
 20
190.0
 30
0.0
 11
122.0
 21
177.0
 31
0.0
  0
LINE
  5
1F4
100
AcDbEntity
  8
0
 62
256
370
-1
 48
1.0
  6
BYLAYER
100
AcDbLine
 10
122.0
 20
177.0
 30
0.0
 11
122.0
 21
173.0
 31
0.0
  0
LINE
  5
1F5
100
AcDbEntity
  8
0
 62
256
370
-1
 48
1.0
  6
BYLAYER
100
AcDbLine
 10
122.0
 20
173.0
 30
0.0
 11
122.0
 21
170.147003173828125
 31
0.0
  0
LINE
  5
1F6
100
AcDbEntity
  8
0
 62
256
370
-1
 48
1.0
  6
BYLAYER
100
AcDbLine
 10
122.0
 20
170.147003173828125
 30
0.0
 11
122.0
 21
168.0
 31
0.0
  0
LINE
  5
1F7
100
AcDbEntity
  8
0
 62
256
370
-1
 48
1.0
  6
BYLAYER
100
AcDbLine
 10
122.0
 20
168.0
 30
0.0
 11
105.9980010986328125
 21
168.0
 31
0.0
  0
LINE
  5
1F8
100
AcDbEntity
  8
0
 62
256
370
-1
 48
1.0
  6
BYLAYER
100
AcDbLine
 10
105.9980010986328125
 20
168.0
 30
0.0
 11
98.0
 21
168.0
 31
0.0
  0
LINE
  5
1F9
100
AcDbEntity
  8
0
 62
256
370
-1
 48
1.0
  6
BYLAYER
100
AcDbLine
 10
98.0
 20
168.0
 30
0.0
 11
98.0
 21
173.0
 31
0.0
  0
LINE
  5
1FA
100
AcDbEntity
  8
0
 62
256
370
-1
 48
1.0
  6
BYLAYER
100
AcDbLine
 10
98.0
 20
173.0
 30
0.0
 11
98.0
 21
177.0
 31
0.0
  0
LINE
  5
1FB
100
AcDbEntity
  8
0
 62
256
370
-1
 48
1.0
  6
BYLAYER
100
AcDbLine
 10
98.0
 20
177.0
 30
0.0
 11
98.0
 21
190.0
 31
0.0
  0
LINE
  5
1FC
100
AcDbEntity
  8
0
 62
256
370
-1
 48
1.0
  6
BYLAYER
100
AcDbLine
 10
98.0
 20
190.0
 30
0.0
 11
98.0
 21
203.0
 31
0.0
  0
LINE
  5
1FD
100
AcDbEntity
  8
0
 62
256
370
-1
 48
1.0
  6
BYLAYER
100
AcDbLine
 10
98.0
 20
203.0
 30
0.0
 11
122.0
 21
203.0
 31
0.0
  0
LINE
  5
1FE
100
AcDbEntity
  8
0
 62
256
370
-1
 48
1.0
  6
BYLAYER
100
AcDbLine
 10
-127.0
 20
82.0
 30
0.0
 11
-130.0
 21
82.0
 31
0.0
  0
LINE
  5
1FF
100
AcDbEntity
  8
0
 62
256
370
-1
 48
1.0
  6
BYLAYER
100
AcDbLine
 10
-130.0
 20
82.0
 30
0.0
 11
-151.9029998779296875
 21
82.0
 31
0.0
  0
LINE
  5
200
100
AcDbEntity
  8
0
 62
256
370
-1
 48
1.0
  6
BYLAYER
100
AcDbLine
 10
-151.9029998779296875
 20
82.0
 30
0.0
 11
-221.897003173828125
 21
82.0
 31
0.0
  0
LINE
  5
201
100
AcDbEntity
  8
0
 62
256
370
-1
 48
1.0
  6
BYLAYER
100
AcDbLine
 10
-221.897003173828125
 20
82.0
 30
0.0
 11
-251.9029998779296875
 21
82.0
 31
0.0
  0
LINE
  5
202
100
AcDbEntity
  8
0
 62
256
370
-1
 48
1.0
  6
BYLAYER
100
AcDbLine
 10
-251.9029998779296875
 20
82.0
 30
0.0
 11
-283.0
 21
82.0
 31
0.0
  0
LINE
  5
203
100
AcDbEntity
  8
0
 62
256
370
-1
 48
1.0
  6
BYLAYER
100
AcDbLine
 10
-283.0
 20
82.0
 30
0.0
 11
-288.0
 21
82.0
 31
0.0
  0
LINE
  5
204
100
AcDbEntity
  8
0
 62
256
370
-1
 48
1.0
  6
BYLAYER
100
AcDbLine
 10
-288.0
 20
82.0
 30
0.0
 11
-288.0
 21
235.0
 31
0.0
  0
LINE
  5
205
100
AcDbEntity
  8
0
 62
256
370
-1
 48
1.0
  6
BYLAYER
100
AcDbLine
 10
-288.0
 20
235.0
 30
0.0
 11
-283.0
 21
235.0
 31
0.0
  0
LINE
  5
206
100
AcDbEntity
  8
0
 62
256
370
-1
 48
1.0
  6
BYLAYER
100
AcDbLine
 10
-283.0
 20
235.0
 30
0.0
 11
-270.0
 21
235.0
 31
0.0
  0
LINE
  5
207
100
AcDbEntity
  8
0
 62
256
370
-1
 48
1.0
  6
BYLAYER
100
AcDbLine
 10
-270.0
 20
235.0
 30
0.0
 11
-251.9029998779296875
 21
235.0
 31
0.0
  0
LINE
  5
208
100
AcDbEntity
  8
0
 62
256
370
-1
 48
1.0
  6
BYLAYER
100
AcDbLine
 10
-251.9029998779296875
 20
235.0
 30
0.0
 11
-221.897003173828125
 21
235.0
 31
0.0
  0
LINE
  5
209
100
AcDbEntity
  8
0
 62
256
370
-1
 48
1.0
  6
BYLAYER
100
AcDbLine
 10
-221.897003173828125
 20
235.0
 30
0.0
 11
-151.9029998779296875
 21
235.0
 31
0.0
  0
LINE
  5
20A
100
AcDbEntity
  8
0
 62
256
370
-1
 48
1.0
  6
BYLAYER
100
AcDbLine
 10
-151.9029998779296875
 20
235.0
 30
0.0
 11
-150.0
 21
235.0
 31
0.0
  0
LINE
  5
20B
100
AcDbEntity
  8
0
 62
256
370
-1
 48
1.0
  6
BYLAYER
100
AcDbLine
 10
-150.0
 20
235.0
 30
0.0
 11
-134.0
 21
235.0
 31
0.0
  0
LINE
  5
20C
100
AcDbEntity
  8
0
 62
256
370
-1
 48
1.0
  6
BYLAYER
100
AcDbLine
 10
-134.0
 20
235.0
 30
0.0
 11
-130.0
 21
235.0
 31
0.0
  0
LINE
  5
20D
100
AcDbEntity
  8
0
 62
256
370
-1
 48
1.0
  6
BYLAYER
100
AcDbLine
 10
-130.0
 20
235.0
 30
0.0
 11
-121.897003173828125
 21
235.0
 31
0.0
  0
LINE
  5
20E
100
AcDbEntity
  8
0
 62
256
370
-1
 48
1.0
  6
BYLAYER
100
AcDbLine
 10
-121.897003173828125
 20
235.0
 30
0.0
 11
-88.0
 21
235.0
 31
0.0
  0
LINE
  5
20F
100
AcDbEntity
  8
0
 62
256
370
-1
 48
1.0
  6
BYLAYER
100
AcDbLine
 10
-88.0
 20
235.0
 30
0.0
 11
-88.0
 21
203.0
 31
0.0
  0
LINE
  5
210
100
AcDbEntity
  8
0
 62
256
370
-1
 48
1.0
  6
BYLAYER
100
AcDbLine
 10
-88.0
 20
203.0
 30
0.0
 11
-88.0
 21
194.0
 31
0.0
  0
LINE
  5
211
100
AcDbEntity
  8
0
 62
256
370
-1
 48
1.0
  6
BYLAYER
100
AcDbLine
 10
-88.0
 20
194.0
 30
0.0
 11
-88.0
 21
82.0
 31
0.0
  0
LINE
  5
212
100
AcDbEntity
  8
0
 62
256
370
-1
 48
1.0
  6
BYLAYER
100
AcDbLine
 10
-88.0
 20
82.0
 30
0.0
 11
-121.897003173828125
 21
82.0
 31
0.0
  0
LINE
  5
213
100
AcDbEntity
  8
0
 62
256
370
-1
 48
1.0
  6
BYLAYER
100
AcDbLine
 10
-121.897003173828125
 20
82.0
 30
0.0
 11
-127.0
 21
82.0
 31
0.0
  0
LINE
  5
214
100
AcDbEntity
  8
0
 62
256
370
-1
 48
1.0
  6
BYLAYER
100
AcDbLine
 10
179.0
 20
147.0
 30
0.0
 11
179.0
 21
173.0
 31
0.0
  0
LINE
  5
215
100
AcDbEntity
  8
0
 62
256
370
-1
 48
1.0
  6
BYLAYER
100
AcDbLine
 10
179.0
 20
173.0
 30
0.0
 11
179.0
 21
177.0
 31
0.0
  0
LINE
  5
216
100
AcDbEntity
  8
0
 62
256
370
-1
 48
1.0
  6
BYLAYER
100
AcDbLine
 10
179.0
 20
177.0
 30
0.0
 11
214.0
 21
177.0
 31
0.0
  0
LINE
  5
217
100
AcDbEntity
  8
0
 62
256
370
-1
 48
1.0
  6
BYLAYER
100
AcDbLine
 10
214.0
 20
177.0
 30
0.0
 11
214.0
 21
173.0
 31
0.0
  0
LINE
  5
218
100
AcDbEntity
  8
0
 62
256
370
-1
 48
1.0
  6
BYLAYER
100
AcDbLine
 10
214.0
 20
173.0
 30
0.0
 11
214.0
 21
147.0
 31
0.0
  0
LINE
  5
219
100
AcDbEntity
  8
0
 62
256
370
-1
 48
1.0
  6
BYLAYER
100
AcDbLine
 10
214.0
 20
147.0
 30
0.0
 11
179.0
 21
147.0
 31
0.0
  0
LINE
  5
21A
100
AcDbEntity
  8
0
 62
256
370
-1
 48
1.0
  6
BYLAYER
100
AcDbLine
 10
144.0
 20
129.0
 30
0.0
 11
144.0
 21
126.0
 31
0.0
  0
LINE
  5
21B
100
AcDbEntity
  8
0
 62
256
370
-1
 48
1.0
  6
BYLAYER
100
AcDbLine
 10
144.0
 20
126.0
 30
0.0
 11
144.0
 21
96.1480026245117188
 31
0.0
  0
LINE
  5
21C
100
AcDbEntity
  8
0
 62
256
370
-1
 48
1.0
  6
BYLAYER
100
AcDbLine
 10
144.0
 20
96.1480026245117188
 30
0.0
 11
144.0
 21
96.0
 31
0.0
  0
LINE
  5
21D
100
AcDbEntity
  8
0
 62
256
370
-1
 48
1.0
  6
BYLAYER
100
AcDbLine
 10
144.0
 20
96.0
 30
0.0
 11
144.0
 21
94.0
 31
0.0
  0
LINE
  5
21E
100
AcDbEntity
  8
0
 62
256
370
-1
 48
1.0
  6
BYLAYER
100
AcDbLine
 10
144.0
 20
94.0
 30
0.0
 11
120.0
 21
94.0
 31
0.0
  0
LINE
  5
21F
100
AcDbEntity
  8
0
 62
256
370
-1
 48
1.0
  6
BYLAYER
100
AcDbLine
 10
120.0
 20
94.0
 30
0.0
 11
120.0
 21
96.0
 31
0.0
  0
LINE
  5
220
100
AcDbEntity
  8
0
 62
256
370
-1
 48
1.0
  6
BYLAYER
100
AcDbLine
 10
120.0
 20
96.0
 30
0.0
 11
120.0
 21
126.0
 31
0.0
  0
LINE
  5
221
100
AcDbEntity
  8
0
 62
256
370
-1
 48
1.0
  6
BYLAYER
100
AcDbLine
 10
120.0
 20
126.0
 30
0.0
 11
120.0
 21
129.0
 31
0.0
  0
LINE
  5
222
100
AcDbEntity
  8
0
 62
256
370
-1
 48
1.0
  6
BYLAYER
100
AcDbLine
 10
120.0
 20
129.0
 30
0.0
 11
144.0
 21
129.0
 31
0.0
  0
LINE
  5
223
100
AcDbEntity
  8
0
 62
256
370
-1
 48
1.0
  6
BYLAYER
100
AcDbLine
 10
-138.0
 20
-184.0
 30
0.0
 11
-138.0
 21
-193.0
 31
0.0
  0
LINE
  5
224
100
AcDbEntity
  8
0
 62
256
370
-1
 48
1.0
  6
BYLAYER
100
AcDbLine
 10
-138.0
 20
-193.0
 30
0.0
 11
-138.0
 21
-290.0
 31
0.0
  0
LINE
  5
225
100
AcDbEntity
  8
0
 62
256
370
-1
 48
1.0
  6
BYLAYER
100
AcDbLine
 10
-138.0
 20
-290.0
 30
0.0
 11
-291.0
 21
-290.0
 31
0.0
  0
LINE
  5
226
100
AcDbEntity
  8
0
 62
256
370
-1
 48
1.0
  6
BYLAYER
100
AcDbLine
 10
-291.0
 20
-290.0
 30
0.0
 11
-291.0
 21
-193.0
 31
0.0
  0
LINE
  5
227
100
AcDbEntity
  8
0
 62
256
370
-1
 48
1.0
  6
BYLAYER
100
AcDbLine
 10
-291.0
 20
-193.0
 30
0.0
 11
-291.0
 21
-184.0
 31
0.0
  0
LINE
  5
228
100
AcDbEntity
  8
0
 62
256
370
-1
 48
1.0
  6
BYLAYER
100
AcDbLine
 10
-291.0
 20
-184.0
 30
0.0
 11
-138.0
 21
-184.0
 31
0.0
  0
LINE
  5
229
100
AcDbEntity
  8
0
 62
256
370
-1
 48
1.0
  6
BYLAYER
100
AcDbLine
 10
-35.0
 20
-174.0
 30
0.0
 11
-35.0
 21
-172.0
 31
0.0
  0
LINE
  5
22A
100
AcDbEntity
  8
0
 62
256
370
-1
 48
1.0
  6
BYLAYER
100
AcDbLine
 10
-35.0
 20
-172.0
 30
0.0
 11
-35.0
 21
-22.0
 31
0.0
  0
LINE
  5
22B
100
AcDbEntity
  8
0
 62
256
370
-1
 48
1.0
  6
BYLAYER
100
AcDbLine
 10
-35.0
 20
-22.0
 30
0.0
 11
-35.0
 21
-21.0
 31
0.0
  0
LINE
  5
22C
100
AcDbEntity
  8
0
 62
256
370
-1
 48
1.0
  6
BYLAYER
100
AcDbLine
 10
-35.0
 20
-21.0
 30
0.0
 11
40.0
 21
-21.0
 31
0.0
  0
LINE
  5
22D
100
AcDbEntity
  8
0
 62
256
370
-1
 48
1.0
  6
BYLAYER
100
AcDbLine
 10
40.0
 20
-21.0
 30
0.0
 11
40.0
 21
-172.0
 31
0.0
  0
LINE
  5
22E
100
AcDbEntity
  8
0
 62
256
370
-1
 48
1.0
  6
BYLAYER
100
AcDbLine
 10
40.0
 20
-172.0
 30
0.0
 11
40.0
 21
-174.0
 31
0.0
  0
LINE
  5
22F
100
AcDbEntity
  8
0
 62
256
370
-1
 48
1.0
  6
BYLAYER
100
AcDbLine
 10
40.0
 20
-174.0
 30
0.0
 11
23.5
 21
-174.0
 31
0.0
  0
LINE
  5
230
100
AcDbEntity
  8
0
 62
256
370
-1
 48
1.0
  6
BYLAYER
100
AcDbLine
 10
23.5
 20
-174.0
 30
0.0
 11
18.0
 21
-174.0
 31
0.0
  0
LINE
  5
231
100
AcDbEntity
  8
0
 62
256
370
-1
 48
1.0
  6
BYLAYER
100
AcDbLine
 10
18.0
 20
-174.0
 30
0.0
 11
-35.0
 21
-174.0
 31
0.0
  0
LINE
  5
232
100
AcDbEntity
  8
0
 62
256
370
-1
 48
1.0
  6
BYLAYER
100
AcDbLine
 10
118.0
 20
95.0
 30
0.0
 11
94.0
 21
95.0
 31
0.0
  0
LINE
  5
233
100
AcDbEntity
  8
0
 62
256
370
-1
 48
1.0
  6
BYLAYER
100
AcDbLine
 10
94.0
 20
95.0
 30
0.0
 11
94.0
 21
96.0
 31
0.0
  0
LINE
  5
234
100
AcDbEntity
  8
0
 62
256
370
-1
 48
1.0
  6
BYLAYER
100
AcDbLine
 10
94.0
 20
96.0
 30
0.0
 11
94.0
 21
126.0
 31
0.0
  0
LINE
  5
235
100
AcDbEntity
  8
0
 62
256
370
-1
 48
1.0
  6
BYLAYER
100
AcDbLine
 10
94.0
 20
126.0
 30
0.0
 11
94.0
 21
130.0
 31
0.0
  0
LINE
  5
236
100
AcDbEntity
  8
0
 62
256
370
-1
 48
1.0
  6
BYLAYER
100
AcDbLine
 10
94.0
 20
130.0
 30
0.0
 11
118.0
 21
130.0
 31
0.0
  0
LINE
  5
237
100
AcDbEntity
  8
0
 62
256
370
-1
 48
1.0
  6
BYLAYER
100
AcDbLine
 10
118.0
 20
130.0
 30
0.0
 11
118.0
 21
126.0
 31
0.0
  0
LINE
  5
238
100
AcDbEntity
  8
0
 62
256
370
-1
 48
1.0
  6
BYLAYER
100
AcDbLine
 10
118.0
 20
126.0
 30
0.0
 11
118.0
 21
97.1480026245117188
 31
0.0
  0
LINE
  5
239
100
AcDbEntity
  8
0
 62
256
370
-1
 48
1.0
  6
BYLAYER
100
AcDbLine
 10
118.0
 20
97.1480026245117188
 30
0.0
 11
118.0
 21
96.0
 31
0.0
  0
LINE
  5
23A
100
AcDbEntity
  8
0
 62
256
370
-1
 48
1.0
  6
BYLAYER
100
AcDbLine
 10
118.0
 20
96.0
 30
0.0
 11
118.0
 21
95.0
 31
0.0
  0
LINE
  5
23B
100
AcDbEntity
  8
0
 62
256
370
-1
 48
1.0
  6
BYLAYER
100
AcDbLine
 10
-150.0
 20
251.0
 30
0.0
 11
-238.197998046875
 21
251.0
 31
0.0
  0
LINE
  5
23C
100
AcDbEntity
  8
0
 62
256
370
-1
 48
1.0
  6
BYLAYER
100
AcDbLine
 10
-238.197998046875
 20
251.0
 30
0.0
 11
-260.50299072265625
 21
251.0
 31
0.0
  0
LINE
  5
23D
100
AcDbEntity
  8
0
 62
256
370
-1
 48
1.0
  6
BYLAYER
100
AcDbLine
 10
-260.50299072265625
 20
251.0
 30
0.0
 11
-270.0
 21
251.0
 31
0.0
  0
LINE
  5
23E
100
AcDbEntity
  8
0
 62
256
370
-1
 48
1.0
  6
BYLAYER
100
AcDbLine
 10
-270.0
 20
251.0
 30
0.0
 11
-270.0
 21
291.0
 31
0.0
  0
LINE
  5
23F
100
AcDbEntity
  8
0
 62
256
370
-1
 48
1.0
  6
BYLAYER
100
AcDbLine
 10
-270.0
 20
291.0
 30
0.0
 11
-260.50299072265625
 21
291.0
 31
0.0
  0
LINE
  5
240
100
AcDbEntity
  8
0
 62
256
370
-1
 48
1.0
  6
BYLAYER
100
AcDbLine
 10
-260.50299072265625
 20
291.0
 30
0.0
 11
-238.197998046875
 21
291.0
 31
0.0
  0
LINE
  5
241
100
AcDbEntity
  8
0
 62
256
370
-1
 48
1.0
  6
BYLAYER
100
AcDbLine
 10
-238.197998046875
 20
291.0
 30
0.0
 11
-150.0
 21
291.0
 31
0.0
  0
LINE
  5
242
100
AcDbEntity
  8
0
 62
256
370
-1
 48
1.0
  6
BYLAYER
100
AcDbLine
 10
-150.0
 20
291.0
 30
0.0
 11
-150.0
 21
251.0
 31
0.0
  0
LINE
  5
243
100
AcDbEntity
  8
0
 62
256
370
-1
 48
1.0
  6
BYLAYER
100
AcDbLine
 10
175.0
 20
-282.0
 30
0.0
 11
175.0
 21
-193.0
 31
0.0
  0
LINE
  5
244
100
AcDbEntity
  8
0
 62
256
370
-1
 48
1.0
  6
BYLAYER
100
AcDbLine
 10
175.0
 20
-193.0
 30
0.0
 11
175.0
 21
-172.0
 31
0.0
  0
LINE
  5
245
100
AcDbEntity
  8
0
 62
256
370
-1
 48
1.0
  6
BYLAYER
100
AcDbLine
 10
175.0
 20
-172.0
 30
0.0
 11
175.0
 21
-129.0
 31
0.0
  0
LINE
  5
246
100
AcDbEntity
  8
0
 62
256
370
-1
 48
1.0
  6
BYLAYER
100
AcDbLine
 10
175.0
 20
-129.0
 30
0.0
 11
224.4980010986328125
 21
-129.0
 31
0.0
  0
LINE
  5
247
100
AcDbEntity
  8
0
 62
256
370
-1
 48
1.0
  6
BYLAYER
100
AcDbLine
 10
224.4980010986328125
 20
-129.0
 30
0.0
 11
231.5030059814453125
 21
-129.0
 31
0.0
  0
LINE
  5
248
100
AcDbEntity
  8
0
 62
256
370
-1
 48
1.0
  6
BYLAYER
100
AcDbLine
 10
231.5030059814453125
 20
-129.0
 30
0.0
 11
281.0
 21
-129.0
 31
0.0
  0
LINE
  5
249
100
AcDbEntity
  8
0
 62
256
370
-1
 48
1.0
  6
BYLAYER
100
AcDbLine
 10
281.0
 20
-129.0
 30
0.0
 11
281.0
 21
-152.0030059814453125
 31
0.0
  0
LINE
  5
24A
100
AcDbEntity
  8
0
 62
256
370
-1
 48
1.0
  6
BYLAYER
100
AcDbLine
 10
281.0
 20
-152.0030059814453125
 30
0.0
 11
281.0
 21
-172.0
 31
0.0
  0
LINE
  5
24B
100
AcDbEntity
  8
0
 62
256
370
-1
 48
1.0
  6
BYLAYER
100
AcDbLine
 10
281.0
 20
-172.0
 30
0.0
 11
281.0
 21
-193.0
 31
0.0
  0
LINE
  5
24C
100
AcDbEntity
  8
0
 62
256
370
-1
 48
1.0
  6
BYLAYER
100
AcDbLine
 10
281.0
 20
-193.0
 30
0.0
 11
281.0
 21
-282.0
 31
0.0
  0
LINE
  5
24D
100
AcDbEntity
  8
0
 62
256
370
-1
 48
1.0
  6
BYLAYER
100
AcDbLine
 10
281.0
 20
-282.0
 30
0.0
 11
175.0
 21
-282.0
 31
0.0
  0
LINE
  5
24E
100
AcDbEntity
  8
0
 62
256
370
-1
 48
1.0
  6
BYLAYER
100
AcDbLine
 10
136.9656219482421875
 20
177.0
 30
0.0
 11
136.0
 21
177.1529998779296875
 31
0.0
  0
LINE
  5
24F
100
AcDbEntity
  8
0
 62
256
370
-1
 48
1.0
  6
BYLAYER
100
AcDbLine
 10
136.0
 20
177.1529998779296875
 30
0.0
 11
135.0343780517578125
 21
177.0
 31
0.0
  0
LINE
  5
250
100
AcDbEntity
  8
0
 62
256
370
-1
 48
1.0
  6
BYLAYER
100
AcDbLine
 10
135.0343780517578125
 20
177.0
 30
0.0
 11
134.76300048828125
 21
176.957000732421875
 31
0.0
  0
LINE
  5
251
100
AcDbEntity
  8
0
 62
256
370
-1
 48
1.0
  6
BYLAYER
100
AcDbLine
 10
134.76300048828125
 20
176.957000732421875
 30
0.0
 11
133.647003173828125
 21
176.38800048828125
 31
0.0
  0
LINE
  5
252
100
AcDbEntity
  8
0
 62
256
370
-1
 48
1.0
  6
BYLAYER
100
AcDbLine
 10
133.647003173828125
 20
176.38800048828125
 30
0.0
 11
132.761993408203125
 21
175.5030059814453125
 31
0.0
  0
LINE
  5
253
100
AcDbEntity
  8
0
 62
256
370
-1
 48
1.0
  6
BYLAYER
100
AcDbLine
 10
132.761993408203125
 20
175.5030059814453125
 30
0.0
 11
132.1929931640625
 21
174.386993408203125
 31
0.0
  0
LINE
  5
254
100
AcDbEntity
  8
0
 62
256
370
-1
 48
1.0
  6
BYLAYER
100
AcDbLine
 10
132.1929931640625
 20
174.386993408203125
 30
0.0
 11
131.9980010986328125
 21
173.149993896484375
 31
0.0
  0
LINE
  5
255
100
AcDbEntity
  8
0
 62
256
370
-1
 48
1.0
  6
BYLAYER
100
AcDbLine
 10
131.9980010986328125
 20
173.149993896484375
 30
0.0
 11
132.0216522216796875
 21
173.0
 31
0.0
  0
LINE
  5
256
100
AcDbEntity
  8
0
 62
256
370
-1
 48
1.0
  6
BYLAYER
100
AcDbLine
 10
132.0216522216796875
 20
173.0
 30
0.0
 11
132.1742401123046875
 21
172.0319976806640625
 31
0.0
  0
LINE
  5
257
100
AcDbEntity
  8
0
 62
256
370
-1
 48
1.0
  6
BYLAYER
100
AcDbLine
 10
132.1742401123046875
 20
172.0319976806640625
 30
0.0
 11
132.1929931640625
 21
171.912994384765625
 31
0.0
  0
LINE
  5
258
100
AcDbEntity
  8
0
 62
256
370
-1
 48
1.0
  6
BYLAYER
100
AcDbLine
 10
132.1929931640625
 20
171.912994384765625
 30
0.0
 11
132.761993408203125
 21
170.7969970703125
 31
0.0
  0
LINE
  5
259
100
AcDbEntity
  8
0
 62
256
370
-1
 48
1.0
  6
BYLAYER
100
AcDbLine
 10
132.761993408203125
 20
170.7969970703125
 30
0.0
 11
133.647003173828125
 21
169.9120025634765625
 31
0.0
  0
LINE
  5
25A
100
AcDbEntity
  8
0
 62
256
370
-1
 48
1.0
  6
BYLAYER
100
AcDbLine
 10
133.647003173828125
 20
169.9120025634765625
 30
0.0
 11
134.76300048828125
 21
169.3430023193359375
 31
0.0
  0
LINE
  5
25B
100
AcDbEntity
  8
0
 62
256
370
-1
 48
1.0
  6
BYLAYER
100
AcDbLine
 10
134.76300048828125
 20
169.3430023193359375
 30
0.0
 11
136.0
 21
169.147003173828125
 31
0.0
  0
LINE
  5
25C
100
AcDbEntity
  8
0
 62
256
370
-1
 48
1.0
  6
BYLAYER
100
AcDbLine
 10
136.0
 20
169.147003173828125
 30
0.0
 11
137.23699951171875
 21
169.3430023193359375
 31
0.0
  0
LINE
  5
25D
100
AcDbEntity
  8
0
 62
256
370
-1
 48
1.0
  6
BYLAYER
100
AcDbLine
 10
137.23699951171875
 20
169.3430023193359375
 30
0.0
 11
138.352996826171875
 21
169.9120025634765625
 31
0.0
  0
LINE
  5
25E
100
AcDbEntity
  8
0
 62
256
370
-1
 48
1.0
  6
BYLAYER
100
AcDbLine
 10
138.352996826171875
 20
169.9120025634765625
 30
0.0
 11
139.238006591796875
 21
170.7969970703125
 31
0.0
  0
LINE
  5
25F
100
AcDbEntity
  8
0
 62
256
370
-1
 48
1.0
  6
BYLAYER
100
AcDbLine
 10
139.238006591796875
 20
170.7969970703125
 30
0.0
 11
139.8070068359375
 21
171.912994384765625
 31
0.0
  0
LINE
  5
260
100
AcDbEntity
  8
0
 62
256
370
-1
 48
1.0
  6
BYLAYER
100
AcDbLine
 10
139.8070068359375
 20
171.912994384765625
 30
0.0
 11
139.8258514404296875
 21
172.0319976806640625
 31
0.0
  0
LINE
  5
261
100
AcDbEntity
  8
0
 62
256
370
-1
 48
1.0
  6
BYLAYER
100
AcDbLine
 10
139.8258514404296875
 20
172.0319976806640625
 30
0.0
 11
139.9792327880859375
 21
173.0
 31
0.0
  0
LINE
  5
262
100
AcDbEntity
  8
0
 62
256
370
-1
 48
1.0
  6
BYLAYER
100
AcDbLine
 10
139.9792327880859375
 20
173.0
 30
0.0
 11
140.0030059814453125
 21
173.149993896484375
 31
0.0
  0
LINE
  5
263
100
AcDbEntity
  8
0
 62
256
370
-1
 48
1.0
  6
BYLAYER
100
AcDbLine
 10
140.0030059814453125
 20
173.149993896484375
 30
0.0
 11
139.8070068359375
 21
174.386993408203125
 31
0.0
  0
LINE
  5
264
100
AcDbEntity
  8
0
 62
256
370
-1
 48
1.0
  6
BYLAYER
100
AcDbLine
 10
139.8070068359375
 20
174.386993408203125
 30
0.0
 11
139.238006591796875
 21
175.5030059814453125
 31
0.0
  0
LINE
  5
265
100
AcDbEntity
  8
0
 62
256
370
-1
 48
1.0
  6
BYLAYER
100
AcDbLine
 10
139.238006591796875
 20
175.5030059814453125
 30
0.0
 11
138.352996826171875
 21
176.38800048828125
 31
0.0
  0
LINE
  5
266
100
AcDbEntity
  8
0
 62
256
370
-1
 48
1.0
  6
BYLAYER
100
AcDbLine
 10
138.352996826171875
 20
176.38800048828125
 30
0.0
 11
137.23699951171875
 21
176.957000732421875
 31
0.0
  0
LINE
  5
267
100
AcDbEntity
  8
0
 62
256
370
-1
 48
1.0
  6
BYLAYER
100
AcDbLine
 10
137.23699951171875
 20
176.957000732421875
 30
0.0
 11
136.9656219482421875
 21
177.0
 31
0.0
  0
LINE
  5
268
100
AcDbEntity
  8
0
 62
256
370
-1
 48
1.0
  6
BYLAYER
100
AcDbLine
 10
192.1349945068359375
 20
108.6819992065429688
 30
0.0
 11
192.5030059814453125
 21
111.0
 31
0.0
  0
LINE
  5
269
100
AcDbEntity
  8
0
 62
256
370
-1
 48
1.0
  6
BYLAYER
100
AcDbLine
 10
192.5030059814453125
 20
111.0
 30
0.0
 11
192.1349945068359375
 21
113.3180007934570312
 31
0.0
  0
LINE
  5
26A
100
AcDbEntity
  8
0
 62
256
370
-1
 48
1.0
  6
BYLAYER
100
AcDbLine
 10
192.1349945068359375
 20
113.3180007934570312
 30
0.0
 11
191.43756103515625
 21
114.6880035400390625
 31
0.0
  0
LINE
  5
26B
100
AcDbEntity
  8
0
 62
256
370
-1
 48
1.0
  6
BYLAYER
100
AcDbLine
 10
191.43756103515625
 20
114.6880035400390625
 30
0.0
 11
191.07000732421875
 21
115.410003662109375
 31
0.0
  0
LINE
  5
26C
100
AcDbEntity
  8
0
 62
256
370
-1
 48
1.0
  6
BYLAYER
100
AcDbLine
 10
191.07000732421875
 20
115.410003662109375
 30
0.0
 11
189.410003662109375
 21
117.0699996948242188
 31
0.0
  0
LINE
  5
26D
100
AcDbEntity
  8
0
 62
256
370
-1
 48
1.0
  6
BYLAYER
100
AcDbLine
 10
189.410003662109375
 20
117.0699996948242188
 30
0.0
 11
187.3179931640625
 21
118.1350021362304688
 31
0.0
  0
LINE
  5
26E
100
AcDbEntity
  8
0
 62
256
370
-1
 48
1.0
  6
BYLAYER
100
AcDbLine
 10
187.3179931640625
 20
118.1350021362304688
 30
0.0
 11
185.0
 21
118.5029983520507812
 31
0.0
  0
LINE
  5
26F
100
AcDbEntity
  8
0
 62
256
370
-1
 48
1.0
  6
BYLAYER
100
AcDbLine
 10
185.0
 20
118.5029983520507812
 30
0.0
 11
182.6820068359375
 21
118.1350021362304688
 31
0.0
  0
LINE
  5
270
100
AcDbEntity
  8
0
 62
256
370
-1
 48
1.0
  6
BYLAYER
100
AcDbLine
 10
182.6820068359375
 20
118.1350021362304688
 30
0.0
 11
180.589996337890625
 21
117.0699996948242188
 31
0.0
  0
LINE
  5
271
100
AcDbEntity
  8
0
 62
256
370
-1
 48
1.0
  6
BYLAYER
100
AcDbLine
 10
180.589996337890625
 20
117.0699996948242188
 30
0.0
 11
178.92999267578125
 21
115.410003662109375
 31
0.0
  0
LINE
  5
272
100
AcDbEntity
  8
0
 62
256
370
-1
 48
1.0
  6
BYLAYER
100
AcDbLine
 10
178.92999267578125
 20
115.410003662109375
 30
0.0
 11
178.56243896484375
 21
114.6880035400390625
 31
0.0
  0
LINE
  5
273
100
AcDbEntity
  8
0
 62
256
370
-1
 48
1.0
  6
BYLAYER
100
AcDbLine
 10
178.56243896484375
 20
114.6880035400390625
 30
0.0
 11
177.8650054931640625
 21
113.3180007934570312
 31
0.0
  0
LINE
  5
274
100
AcDbEntity
  8
0
 62
256
370
-1
 48
1.0
  6
BYLAYER
100
AcDbLine
 10
177.8650054931640625
 20
113.3180007934570312
 30
0.0
 11
177.4980010986328125
 21
111.0
 31
0.0
  0
LINE
  5
275
100
AcDbEntity
  8
0
 62
256
370
-1
 48
1.0
  6
BYLAYER
100
AcDbLine
 10
177.4980010986328125
 20
111.0
 30
0.0
 11
177.8650054931640625
 21
108.6819992065429688
 31
0.0
  0
LINE
  5
276
100
AcDbEntity
  8
0
 62
256
370
-1
 48
1.0
  6
BYLAYER
100
AcDbLine
 10
177.8650054931640625
 20
108.6819992065429688
 30
0.0
 11
178.92999267578125
 21
106.589996337890625
 31
0.0
  0
LINE
  5
277
100
AcDbEntity
  8
0
 62
256
370
-1
 48
1.0
  6
BYLAYER
100
AcDbLine
 10
178.92999267578125
 20
106.589996337890625
 30
0.0
 11
180.589996337890625
 21
104.9300003051757812
 31
0.0
  0
LINE
  5
278
100
AcDbEntity
  8
0
 62
256
370
-1
 48
1.0
  6
BYLAYER
100
AcDbLine
 10
180.589996337890625
 20
104.9300003051757812
 30
0.0
 11
182.6820068359375
 21
103.8649978637695312
 31
0.0
  0
LINE
  5
279
100
AcDbEntity
  8
0
 62
256
370
-1
 48
1.0
  6
BYLAYER
100
AcDbLine
 10
182.6820068359375
 20
103.8649978637695312
 30
0.0
 11
185.0
 21
103.4980010986328125
 31
0.0
  0
LINE
  5
27A
100
AcDbEntity
  8
0
 62
256
370
-1
 48
1.0
  6
BYLAYER
100
AcDbLine
 10
185.0
 20
103.4980010986328125
 30
0.0
 11
187.3179931640625
 21
103.8649978637695312
 31
0.0
  0
LINE
  5
27B
100
AcDbEntity
  8
0
 62
256
370
-1
 48
1.0
  6
BYLAYER
100
AcDbLine
 10
187.3179931640625
 20
103.8649978637695312
 30
0.0
 11
189.410003662109375
 21
104.9300003051757812
 31
0.0
  0
LINE
  5
27C
100
AcDbEntity
  8
0
 62
256
370
-1
 48
1.0
  6
BYLAYER
100
AcDbLine
 10
189.410003662109375
 20
104.9300003051757812
 30
0.0
 11
191.07000732421875
 21
106.589996337890625
 31
0.0
  0
LINE
  5
27D
100
AcDbEntity
  8
0
 62
256
370
-1
 48
1.0
  6
BYLAYER
100
AcDbLine
 10
191.07000732421875
 20
106.589996337890625
 30
0.0
 11
192.1349945068359375
 21
108.6819992065429688
 31
0.0
  0
LINE
  5
27E
100
AcDbEntity
  8
0
 62
256
370
-1
 48
1.0
  6
BYLAYER
100
AcDbLine
 10
183.6820068359375
 20
197.8650054931640625
 30
0.0
 11
186.0
 21
197.4980010986328125
 31
0.0
  0
LINE
  5
27F
100
AcDbEntity
  8
0
 62
256
370
-1
 48
1.0
  6
BYLAYER
100
AcDbLine
 10
186.0
 20
197.4980010986328125
 30
0.0
 11
188.3179931640625
 21
197.8650054931640625
 31
0.0
  0
LINE
  5
280
100
AcDbEntity
  8
0
 62
256
370
-1
 48
1.0
  6
BYLAYER
100
AcDbLine
 10
188.3179931640625
 20
197.8650054931640625
 30
0.0
 11
190.410003662109375
 21
198.92999267578125
 31
0.0
  0
LINE
  5
281
100
AcDbEntity
  8
0
 62
256
370
-1
 48
1.0
  6
BYLAYER
100
AcDbLine
 10
190.410003662109375
 20
198.92999267578125
 30
0.0
 11
192.07000732421875
 21
200.589996337890625
 31
0.0
  0
LINE
  5
282
100
AcDbEntity
  8
0
 62
256
370
-1
 48
1.0
  6
BYLAYER
100
AcDbLine
 10
192.07000732421875
 20
200.589996337890625
 30
0.0
 11
193.1349945068359375
 21
202.6820068359375
 31
0.0
  0
LINE
  5
283
100
AcDbEntity
  8
0
 62
256
370
-1
 48
1.0
  6
BYLAYER
100
AcDbLine
 10
193.1349945068359375
 20
202.6820068359375
 30
0.0
 11
193.47125244140625
 21
204.8000030517578125
 31
0.0
  0
LINE
  5
284
100
AcDbEntity
  8
0
 62
256
370
-1
 48
1.0
  6
BYLAYER
100
AcDbLine
 10
193.47125244140625
 20
204.8000030517578125
 30
0.0
 11
193.5030059814453125
 21
205.0
 31
0.0
  0
LINE
  5
285
100
AcDbEntity
  8
0
 62
256
370
-1
 48
1.0
  6
BYLAYER
100
AcDbLine
 10
193.5030059814453125
 20
205.0
 30
0.0
 11
193.1349945068359375
 21
207.3179931640625
 31
0.0
  0
LINE
  5
286
100
AcDbEntity
  8
0
 62
256
370
-1
 48
1.0
  6
BYLAYER
100
AcDbLine
 10
193.1349945068359375
 20
207.3179931640625
 30
0.0
 11
192.07000732421875
 21
209.410003662109375
 31
0.0
  0
LINE
  5
287
100
AcDbEntity
  8
0
 62
256
370
-1
 48
1.0
  6
BYLAYER
100
AcDbLine
 10
192.07000732421875
 20
209.410003662109375
 30
0.0
 11
190.410003662109375
 21
211.07000732421875
 31
0.0
  0
LINE
  5
288
100
AcDbEntity
  8
0
 62
256
370
-1
 48
1.0
  6
BYLAYER
100
AcDbLine
 10
190.410003662109375
 20
211.07000732421875
 30
0.0
 11
188.3179931640625
 21
212.1349945068359375
 31
0.0
  0
LINE
  5
289
100
AcDbEntity
  8
0
 62
256
370
-1
 48
1.0
  6
BYLAYER
100
AcDbLine
 10
188.3179931640625
 20
212.1349945068359375
 30
0.0
 11
186.0
 21
212.5030059814453125
 31
0.0
  0
LINE
  5
28A
100
AcDbEntity
  8
0
 62
256
370
-1
 48
1.0
  6
BYLAYER
100
AcDbLine
 10
186.0
 20
212.5030059814453125
 30
0.0
 11
183.6820068359375
 21
212.1349945068359375
 31
0.0
  0
LINE
  5
28B
100
AcDbEntity
  8
0
 62
256
370
-1
 48
1.0
  6
BYLAYER
100
AcDbLine
 10
183.6820068359375
 20
212.1349945068359375
 30
0.0
 11
181.589996337890625
 21
211.07000732421875
 31
0.0
  0
LINE
  5
28C
100
AcDbEntity
  8
0
 62
256
370
-1
 48
1.0
  6
BYLAYER
100
AcDbLine
 10
181.589996337890625
 20
211.07000732421875
 30
0.0
 11
179.92999267578125
 21
209.410003662109375
 31
0.0
  0
LINE
  5
28D
100
AcDbEntity
  8
0
 62
256
370
-1
 48
1.0
  6
BYLAYER
100
AcDbLine
 10
179.92999267578125
 20
209.410003662109375
 30
0.0
 11
178.8650054931640625
 21
207.3179931640625
 31
0.0
  0
LINE
  5
28E
100
AcDbEntity
  8
0
 62
256
370
-1
 48
1.0
  6
BYLAYER
100
AcDbLine
 10
178.8650054931640625
 20
207.3179931640625
 30
0.0
 11
178.4980010986328125
 21
205.0
 31
0.0
  0
LINE
  5
28F
100
AcDbEntity
  8
0
 62
256
370
-1
 48
1.0
  6
BYLAYER
100
AcDbLine
 10
178.4980010986328125
 20
205.0
 30
0.0
 11
178.5296630859375
 21
204.8000030517578125
 31
0.0
  0
LINE
  5
290
100
AcDbEntity
  8
0
 62
256
370
-1
 48
1.0
  6
BYLAYER
100
AcDbLine
 10
178.5296630859375
 20
204.8000030517578125
 30
0.0
 11
178.8650054931640625
 21
202.6820068359375
 31
0.0
  0
LINE
  5
291
100
AcDbEntity
  8
0
 62
256
370
-1
 48
1.0
  6
BYLAYER
100
AcDbLine
 10
178.8650054931640625
 20
202.6820068359375
 30
0.0
 11
179.92999267578125
 21
200.589996337890625
 31
0.0
  0
LINE
  5
292
100
AcDbEntity
  8
0
 62
256
370
-1
 48
1.0
  6
BYLAYER
100
AcDbLine
 10
179.92999267578125
 20
200.589996337890625
 30
0.0
 11
181.589996337890625
 21
198.92999267578125
 31
0.0
  0
LINE
  5
293
100
AcDbEntity
  8
0
 62
256
370
-1
 48
1.0
  6
BYLAYER
100
AcDbLine
 10
181.589996337890625
 20
198.92999267578125
 30
0.0
 11
183.6820068359375
 21
197.8650054931640625
 31
0.0
  0
LINE
  5
294
100
AcDbEntity
  8
0
 62
256
370
-1
 48
1.0
  6
BYLAYER
100
AcDbLine
 10
113.2379989624023438
 20
176.5030059814453125
 30
0.0
 11
112.740997314453125
 21
177.0
 31
0.0
  0
LINE
  5
295
100
AcDbEntity
  8
0
 62
256
370
-1
 48
1.0
  6
BYLAYER
100
AcDbLine
 10
112.740997314453125
 20
177.0
 30
0.0
 11
112.352996826171875
 21
177.38800048828125
 31
0.0
  0
LINE
  5
296
100
AcDbEntity
  8
0
 62
256
370
-1
 48
1.0
  6
BYLAYER
100
AcDbLine
 10
112.352996826171875
 20
177.38800048828125
 30
0.0
 11
111.23699951171875
 21
177.957000732421875
 31
0.0
  0
LINE
  5
297
100
AcDbEntity
  8
0
 62
256
370
-1
 48
1.0
  6
BYLAYER
100
AcDbLine
 10
111.23699951171875
 20
177.957000732421875
 30
0.0
 11
110.0
 21
178.1529998779296875
 31
0.0
  0
LINE
  5
298
100
AcDbEntity
  8
0
 62
256
370
-1
 48
1.0
  6
BYLAYER
100
AcDbLine
 10
110.0
 20
178.1529998779296875
 30
0.0
 11
108.76300048828125
 21
177.957000732421875
 31
0.0
  0
LINE
  5
299
100
AcDbEntity
  8
0
 62
256
370
-1
 48
1.0
  6
BYLAYER
100
AcDbLine
 10
108.76300048828125
 20
177.957000732421875
 30
0.0
 11
107.647003173828125
 21
177.38800048828125
 31
0.0
  0
LINE
  5
29A
100
AcDbEntity
  8
0
 62
256
370
-1
 48
1.0
  6
BYLAYER
100
AcDbLine
 10
107.647003173828125
 20
177.38800048828125
 30
0.0
 11
107.259002685546875
 21
177.0
 31
0.0
  0
LINE
  5
29B
100
AcDbEntity
  8
0
 62
256
370
-1
 48
1.0
  6
BYLAYER
100
AcDbLine
 10
107.259002685546875
 20
177.0
 30
0.0
 11
106.7620010375976562
 21
176.5030059814453125
 31
0.0
  0
LINE
  5
29C
100
AcDbEntity
  8
0
 62
256
370
-1
 48
1.0
  6
BYLAYER
100
AcDbLine
 10
106.7620010375976562
 20
176.5030059814453125
 30
0.0
 11
106.1930007934570312
 21
175.386993408203125
 31
0.0
  0
LINE
  5
29D
100
AcDbEntity
  8
0
 62
256
370
-1
 48
1.0
  6
BYLAYER
100
AcDbLine
 10
106.1930007934570312
 20
175.386993408203125
 30
0.0
 11
105.9980010986328125
 21
174.149993896484375
 31
0.0
  0
LINE
  5
29E
100
AcDbEntity
  8
0
 62
256
370
-1
 48
1.0
  6
BYLAYER
100
AcDbLine
 10
105.9980010986328125
 20
174.149993896484375
 30
0.0
 11
106.1792831420898438
 21
173.0
 31
0.0
  0
LINE
  5
29F
100
AcDbEntity
  8
0
 62
256
370
-1
 48
1.0
  6
BYLAYER
100
AcDbLine
 10
106.1792831420898438
 20
173.0
 30
0.0
 11
106.1930007934570312
 21
172.912994384765625
 31
0.0
  0
LINE
  5
2A0
100
AcDbEntity
  8
0
 62
256
370
-1
 48
1.0
  6
BYLAYER
100
AcDbLine
 10
106.1930007934570312
 20
172.912994384765625
 30
0.0
 11
106.642181396484375
 21
172.0319976806640625
 31
0.0
  0
LINE
  5
2A1
100
AcDbEntity
  8
0
 62
256
370
-1
 48
1.0
  6
BYLAYER
100
AcDbLine
 10
106.642181396484375
 20
172.0319976806640625
 30
0.0
 11
106.7620010375976562
 21
171.7969970703125
 31
0.0
  0
LINE
  5
2A2
100
AcDbEntity
  8
0
 62
256
370
-1
 48
1.0
  6
BYLAYER
100
AcDbLine
 10
106.7620010375976562
 20
171.7969970703125
 30
0.0
 11
107.647003173828125
 21
170.9120025634765625
 31
0.0
  0
LINE
  5
2A3
100
AcDbEntity
  8
0
 62
256
370
-1
 48
1.0
  6
BYLAYER
100
AcDbLine
 10
107.647003173828125
 20
170.9120025634765625
 30
0.0
 11
108.76300048828125
 21
170.3430023193359375
 31
0.0
  0
LINE
  5
2A4
100
AcDbEntity
  8
0
 62
256
370
-1
 48
1.0
  6
BYLAYER
100
AcDbLine
 10
108.76300048828125
 20
170.3430023193359375
 30
0.0
 11
110.0
 21
170.147003173828125
 31
0.0
  0
LINE
  5
2A5
100
AcDbEntity
  8
0
 62
256
370
-1
 48
1.0
  6
BYLAYER
100
AcDbLine
 10
110.0
 20
170.147003173828125
 30
0.0
 11
111.23699951171875
 21
170.3430023193359375
 31
0.0
  0
LINE
  5
2A6
100
AcDbEntity
  8
0
 62
256
370
-1
 48
1.0
  6
BYLAYER
100
AcDbLine
 10
111.23699951171875
 20
170.3430023193359375
 30
0.0
 11
112.352996826171875
 21
170.9120025634765625
 31
0.0
  0
LINE
  5
2A7
100
AcDbEntity
  8
0
 62
256
370
-1
 48
1.0
  6
BYLAYER
100
AcDbLine
 10
112.352996826171875
 20
170.9120025634765625
 30
0.0
 11
113.2379989624023438
 21
171.7969970703125
 31
0.0
  0
LINE
  5
2A8
100
AcDbEntity
  8
0
 62
256
370
-1
 48
1.0
  6
BYLAYER
100
AcDbLine
 10
113.2379989624023438
 20
171.7969970703125
 30
0.0
 11
113.357818603515625
 21
172.0319976806640625
 31
0.0
  0
LINE
  5
2A9
100
AcDbEntity
  8
0
 62
256
370
-1
 48
1.0
  6
BYLAYER
100
AcDbLine
 10
113.357818603515625
 20
172.0319976806640625
 30
0.0
 11
113.8069992065429688
 21
172.912994384765625
 31
0.0
  0
LINE
  5
2AA
100
AcDbEntity
  8
0
 62
256
370
-1
 48
1.0
  6
BYLAYER
100
AcDbLine
 10
113.8069992065429688
 20
172.912994384765625
 30
0.0
 11
113.8207855224609375
 21
173.0
 31
0.0
  0
LINE
  5
2AB
100
AcDbEntity
  8
0
 62
256
370
-1
 48
1.0
  6
BYLAYER
100
AcDbLine
 10
113.8207855224609375
 20
173.0
 30
0.0
 11
114.0029983520507812
 21
174.149993896484375
 31
0.0
  0
LINE
  5
2AC
100
AcDbEntity
  8
0
 62
256
370
-1
 48
1.0
  6
BYLAYER
100
AcDbLine
 10
114.0029983520507812
 20
174.149993896484375
 30
0.0
 11
113.8069992065429688
 21
175.386993408203125
 31
0.0
  0
LINE
  5
2AD
100
AcDbEntity
  8
0
 62
256
370
-1
 48
1.0
  6
BYLAYER
100
AcDbLine
 10
113.8069992065429688
 20
175.386993408203125
 30
0.0
 11
113.2379989624023438
 21
176.5030059814453125
 31
0.0
  0
LINE
  5
2AE
100
AcDbEntity
  8
0
 62
256
370
-1
 48
1.0
  6
BYLAYER
100
AcDbLine
 10
135.8070068359375
 20
98.9130020141601562
 30
0.0
 11
136.0030059814453125
 21
100.1500015258789062
 31
0.0
  0
LINE
  5
2AF
100
AcDbEntity
  8
0
 62
256
370
-1
 48
1.0
  6
BYLAYER
100
AcDbLine
 10
136.0030059814453125
 20
100.1500015258789062
 30
0.0
 11
135.8070068359375
 21
101.3870010375976562
 31
0.0
  0
LINE
  5
2B0
100
AcDbEntity
  8
0
 62
256
370
-1
 48
1.0
  6
BYLAYER
100
AcDbLine
 10
135.8070068359375
 20
101.3870010375976562
 30
0.0
 11
135.238006591796875
 21
102.5029983520507812
 31
0.0
  0
LINE
  5
2B1
100
AcDbEntity
  8
0
 62
256
370
-1
 48
1.0
  6
BYLAYER
100
AcDbLine
 10
135.238006591796875
 20
102.5029983520507812
 30
0.0
 11
134.352996826171875
 21
103.38800048828125
 31
0.0
  0
LINE
  5
2B2
100
AcDbEntity
  8
0
 62
256
370
-1
 48
1.0
  6
BYLAYER
100
AcDbLine
 10
134.352996826171875
 20
103.38800048828125
 30
0.0
 11
133.23699951171875
 21
103.957000732421875
 31
0.0
  0
LINE
  5
2B3
100
AcDbEntity
  8
0
 62
256
370
-1
 48
1.0
  6
BYLAYER
100
AcDbLine
 10
133.23699951171875
 20
103.957000732421875
 30
0.0
 11
132.0
 21
104.1529998779296875
 31
0.0
  0
LINE
  5
2B4
100
AcDbEntity
  8
0
 62
256
370
-1
 48
1.0
  6
BYLAYER
100
AcDbLine
 10
132.0
 20
104.1529998779296875
 30
0.0
 11
130.76300048828125
 21
103.957000732421875
 31
0.0
  0
LINE
  5
2B5
100
AcDbEntity
  8
0
 62
256
370
-1
 48
1.0
  6
BYLAYER
100
AcDbLine
 10
130.76300048828125
 20
103.957000732421875
 30
0.0
 11
129.647003173828125
 21
103.38800048828125
 31
0.0
  0
LINE
  5
2B6
100
AcDbEntity
  8
0
 62
256
370
-1
 48
1.0
  6
BYLAYER
100
AcDbLine
 10
129.647003173828125
 20
103.38800048828125
 30
0.0
 11
128.761993408203125
 21
102.5029983520507812
 31
0.0
  0
LINE
  5
2B7
100
AcDbEntity
  8
0
 62
256
370
-1
 48
1.0
  6
BYLAYER
100
AcDbLine
 10
128.761993408203125
 20
102.5029983520507812
 30
0.0
 11
128.1929931640625
 21
101.3870010375976562
 31
0.0
  0
LINE
  5
2B8
100
AcDbEntity
  8
0
 62
256
370
-1
 48
1.0
  6
BYLAYER
100
AcDbLine
 10
128.1929931640625
 20
101.3870010375976562
 30
0.0
 11
127.9980010986328125
 21
100.1500015258789062
 31
0.0
  0
LINE
  5
2B9
100
AcDbEntity
  8
0
 62
256
370
-1
 48
1.0
  6
BYLAYER
100
AcDbLine
 10
127.9980010986328125
 20
100.1500015258789062
 30
0.0
 11
128.1929931640625
 21
98.9130020141601562
 31
0.0
  0
LINE
  5
2BA
100
AcDbEntity
  8
0
 62
256
370
-1
 48
1.0
  6
BYLAYER
100
AcDbLine
 10
128.1929931640625
 20
98.9130020141601562
 30
0.0
 11
128.503509521484375
 21
98.3040008544921875
 31
0.0
  0
LINE
  5
2BB
100
AcDbEntity
  8
0
 62
256
370
-1
 48
1.0
  6
BYLAYER
100
AcDbLine
 10
128.503509521484375
 20
98.3040008544921875
 30
0.0
 11
128.761993408203125
 21
97.7969970703125
 31
0.0
  0
LINE
  5
2BC
100
AcDbEntity
  8
0
 62
256
370
-1
 48
1.0
  6
BYLAYER
100
AcDbLine
 10
128.761993408203125
 20
97.7969970703125
 30
0.0
 11
129.647003173828125
 21
96.9120025634765625
 31
0.0
  0
LINE
  5
2BD
100
AcDbEntity
  8
0
 62
256
370
-1
 48
1.0
  6
BYLAYER
100
AcDbLine
 10
129.647003173828125
 20
96.9120025634765625
 30
0.0
 11
130.76300048828125
 21
96.3430023193359375
 31
0.0
  0
LINE
  5
2BE
100
AcDbEntity
  8
0
 62
256
370
-1
 48
1.0
  6
BYLAYER
100
AcDbLine
 10
130.76300048828125
 20
96.3430023193359375
 30
0.0
 11
132.0
 21
96.1480026245117188
 31
0.0
  0
LINE
  5
2BF
100
AcDbEntity
  8
0
 62
256
370
-1
 48
1.0
  6
BYLAYER
100
AcDbLine
 10
132.0
 20
96.1480026245117188
 30
0.0
 11
133.23699951171875
 21
96.3430023193359375
 31
0.0
  0
LINE
  5
2C0
100
AcDbEntity
  8
0
 62
256
370
-1
 48
1.0
  6
BYLAYER
100
AcDbLine
 10
133.23699951171875
 20
96.3430023193359375
 30
0.0
 11
134.352996826171875
 21
96.9120025634765625
 31
0.0
  0
LINE
  5
2C1
100
AcDbEntity
  8
0
 62
256
370
-1
 48
1.0
  6
BYLAYER
100
AcDbLine
 10
134.352996826171875
 20
96.9120025634765625
 30
0.0
 11
135.238006591796875
 21
97.7969970703125
 31
0.0
  0
LINE
  5
2C2
100
AcDbEntity
  8
0
 62
256
370
-1
 48
1.0
  6
BYLAYER
100
AcDbLine
 10
135.238006591796875
 20
97.7969970703125
 30
0.0
 11
135.496490478515625
 21
98.3040008544921875
 31
0.0
  0
LINE
  5
2C3
100
AcDbEntity
  8
0
 62
256
370
-1
 48
1.0
  6
BYLAYER
100
AcDbLine
 10
135.496490478515625
 20
98.3040008544921875
 30
0.0
 11
135.8070068359375
 21
98.9130020141601562
 31
0.0
  0
LINE
  5
2C4
100
AcDbEntity
  8
0
 62
256
370
-1
 48
1.0
  6
BYLAYER
100
AcDbLine
 10
23.5
 20
-194.9010009765625
 30
0.0
 11
23.3829994201660156
 21
-194.78399658203125
 31
0.0
  0
LINE
  5
2C5
100
AcDbEntity
  8
0
 62
256
370
-1
 48
1.0
  6
BYLAYER
100
AcDbLine
 10
23.3829994201660156
 20
-194.78399658203125
 30
0.0
 11
22.9640007019042969
 21
-194.5709991455078125
 31
0.0
  0
LINE
  5
2C6
100
AcDbEntity
  8
0
 62
256
370
-1
 48
1.0
  6
BYLAYER
100
AcDbLine
 10
22.9640007019042969
 20
-194.5709991455078125
 30
0.0
 11
22.5
 21
-194.4980010986328125
 31
0.0
  0
LINE
  5
2C7
100
AcDbEntity
  8
0
 62
256
370
-1
 48
1.0
  6
BYLAYER
100
AcDbLine
 10
22.5
 20
-194.4980010986328125
 30
0.0
 11
22.0359992980957031
 21
-194.5709991455078125
 31
0.0
  0
LINE
  5
2C8
100
AcDbEntity
  8
0
 62
256
370
-1
 48
1.0
  6
BYLAYER
100
AcDbLine
 10
22.0359992980957031
 20
-194.5709991455078125
 30
0.0
 11
21.6170005798339844
 21
-194.78399658203125
 31
0.0
  0
LINE
  5
2C9
100
AcDbEntity
  8
0
 62
256
370
-1
 48
1.0
  6
BYLAYER
100
AcDbLine
 10
21.6170005798339844
 20
-194.78399658203125
 30
0.0
 11
21.2840003967285156
 21
-195.11700439453125
 31
0.0
  0
LINE
  5
2CA
100
AcDbEntity
  8
0
 62
256
370
-1
 48
1.0
  6
BYLAYER
100
AcDbLine
 10
21.2840003967285156
 20
-195.11700439453125
 30
0.0
 11
21.0709991455078125
 21
-195.5359954833984375
 31
0.0
  0
LINE
  5
2CB
100
AcDbEntity
  8
0
 62
256
370
-1
 48
1.0
  6
BYLAYER
100
AcDbLine
 10
21.0709991455078125
 20
-195.5359954833984375
 30
0.0
 11
20.9979991912841797
 21
-196.0
 31
0.0
  0
LINE
  5
2CC
100
AcDbEntity
  8
0
 62
256
370
-1
 48
1.0
  6
BYLAYER
100
AcDbLine
 10
20.9979991912841797
 20
-196.0
 30
0.0
 11
21.0709991455078125
 21
-196.4640045166015625
 31
0.0
  0
LINE
  5
2CD
100
AcDbEntity
  8
0
 62
256
370
-1
 48
1.0
  6
BYLAYER
100
AcDbLine
 10
21.0709991455078125
 20
-196.4640045166015625
 30
0.0
 11
21.1442031860351562
 21
-196.608001708984375
 31
0.0
  0
LINE
  5
2CE
100
AcDbEntity
  8
0
 62
256
370
-1
 48
1.0
  6
BYLAYER
100
AcDbLine
 10
21.1442031860351562
 20
-196.608001708984375
 30
0.0
 11
21.2840003967285156
 21
-196.88299560546875
 31
0.0
  0
LINE
  5
2CF
100
AcDbEntity
  8
0
 62
256
370
-1
 48
1.0
  6
BYLAYER
100
AcDbLine
 10
21.2840003967285156
 20
-196.88299560546875
 30
0.0
 11
21.6170005798339844
 21
-197.21600341796875
 31
0.0
  0
LINE
  5
2D0
100
AcDbEntity
  8
0
 62
256
370
-1
 48
1.0
  6
BYLAYER
100
AcDbLine
 10
21.6170005798339844
 20
-197.21600341796875
 30
0.0
 11
22.0359992980957031
 21
-197.4290008544921875
 31
0.0
  0
LINE
  5
2D1
100
AcDbEntity
  8
0
 62
256
370
-1
 48
1.0
  6
BYLAYER
100
AcDbLine
 10
22.0359992980957031
 20
-197.4290008544921875
 30
0.0
 11
22.5
 21
-197.5030059814453125
 31
0.0
  0
LINE
  5
2D2
100
AcDbEntity
  8
0
 62
256
370
-1
 48
1.0
  6
BYLAYER
100
AcDbLine
 10
22.5
 20
-197.5030059814453125
 30
0.0
 11
22.9640007019042969
 21
-197.4290008544921875
 31
0.0
  0
LINE
  5
2D3
100
AcDbEntity
  8
0
 62
256
370
-1
 48
1.0
  6
BYLAYER
100
AcDbLine
 10
22.9640007019042969
 20
-197.4290008544921875
 30
0.0
 11
23.3829994201660156
 21
-197.21600341796875
 31
0.0
  0
LINE
  5
2D4
100
AcDbEntity
  8
0
 62
256
370
-1
 48
1.0
  6
BYLAYER
100
AcDbLine
 10
23.3829994201660156
 20
-197.21600341796875
 30
0.0
 11
23.5
 21
-197.0989990234375
 31
0.0
  0
LINE
  5
2D5
100
AcDbEntity
  8
0
 62
256
370
-1
 48
1.0
  6
BYLAYER
100
AcDbLine
 10
23.5
 20
-197.0989990234375
 30
0.0
 11
23.7159996032714844
 21
-196.88299560546875
 31
0.0
  0
LINE
  5
2D6
100
AcDbEntity
  8
0
 62
256
370
-1
 48
1.0
  6
BYLAYER
100
AcDbLine
 10
23.7159996032714844
 20
-196.88299560546875
 30
0.0
 11
23.8557968139648438
 21
-196.608001708984375
 31
0.0
  0
LINE
  5
2D7
100
AcDbEntity
  8
0
 62
256
370
-1
 48
1.0
  6
BYLAYER
100
AcDbLine
 10
23.8557968139648438
 20
-196.608001708984375
 30
0.0
 11
23.9290008544921875
 21
-196.4640045166015625
 31
0.0
  0
LINE
  5
2D8
100
AcDbEntity
  8
0
 62
256
370
-1
 48
1.0
  6
BYLAYER
100
AcDbLine
 10
23.9290008544921875
 20
-196.4640045166015625
 30
0.0
 11
24.0030002593994141
 21
-196.0
 31
0.0
  0
LINE
  5
2D9
100
AcDbEntity
  8
0
 62
256
370
-1
 48
1.0
  6
BYLAYER
100
AcDbLine
 10
24.0030002593994141
 20
-196.0
 30
0.0
 11
23.9290008544921875
 21
-195.5359954833984375
 31
0.0
  0
LINE
  5
2DA
100
AcDbEntity
  8
0
 62
256
370
-1
 48
1.0
  6
BYLAYER
100
AcDbLine
 10
23.9290008544921875
 20
-195.5359954833984375
 30
0.0
 11
23.7159996032714844
 21
-195.11700439453125
 31
0.0
  0
LINE
  5
2DB
100
AcDbEntity
  8
0
 62
256
370
-1
 48
1.0
  6
BYLAYER
100
AcDbLine
 10
23.7159996032714844
 20
-195.11700439453125
 30
0.0
 11
23.5
 21
-194.9010009765625
 31
0.0
  0
LINE
  5
2DC
100
AcDbEntity
  8
0
 62
256
370
-1
 48
1.0
  6
BYLAYER
100
AcDbLine
 10
102.7620010375976562
 20
98.7969970703125
 30
0.0
 11
103.2549972534179688
 21
98.3040008544921875
 31
0.0
  0
LINE
  5
2DD
100
AcDbEntity
  8
0
 62
256
370
-1
 48
1.0
  6
BYLAYER
100
AcDbLine
 10
103.2549972534179688
 20
98.3040008544921875
 30
0.0
 11
103.647003173828125
 21
97.9120025634765625
 31
0.0
  0
LINE
  5
2DE
100
AcDbEntity
  8
0
 62
256
370
-1
 48
1.0
  6
BYLAYER
100
AcDbLine
 10
103.647003173828125
 20
97.9120025634765625
 30
0.0
 11
104.76300048828125
 21
97.3430023193359375
 31
0.0
  0
LINE
  5
2DF
100
AcDbEntity
  8
0
 62
256
370
-1
 48
1.0
  6
BYLAYER
100
AcDbLine
 10
104.76300048828125
 20
97.3430023193359375
 30
0.0
 11
106.0
 21
97.1480026245117188
 31
0.0
  0
LINE
  5
2E0
100
AcDbEntity
  8
0
 62
256
370
-1
 48
1.0
  6
BYLAYER
100
AcDbLine
 10
106.0
 20
97.1480026245117188
 30
0.0
 11
107.23699951171875
 21
97.3430023193359375
 31
0.0
  0
LINE
  5
2E1
100
AcDbEntity
  8
0
 62
256
370
-1
 48
1.0
  6
BYLAYER
100
AcDbLine
 10
107.23699951171875
 20
97.3430023193359375
 30
0.0
 11
108.352996826171875
 21
97.9120025634765625
 31
0.0
  0
LINE
  5
2E2
100
AcDbEntity
  8
0
 62
256
370
-1
 48
1.0
  6
BYLAYER
100
AcDbLine
 10
108.352996826171875
 20
97.9120025634765625
 30
0.0
 11
108.7450027465820312
 21
98.3040008544921875
 31
0.0
  0
LINE
  5
2E3
100
AcDbEntity
  8
0
 62
256
370
-1
 48
1.0
  6
BYLAYER
100
AcDbLine
 10
108.7450027465820312
 20
98.3040008544921875
 30
0.0
 11
109.2379989624023438
 21
98.7969970703125
 31
0.0
  0
LINE
  5
2E4
100
AcDbEntity
  8
0
 62
256
370
-1
 48
1.0
  6
BYLAYER
100
AcDbLine
 10
109.2379989624023438
 20
98.7969970703125
 30
0.0
 11
109.8069992065429688
 21
99.9130020141601562
 31
0.0
  0
LINE
  5
2E5
100
AcDbEntity
  8
0
 62
256
370
-1
 48
1.0
  6
BYLAYER
100
AcDbLine
 10
109.8069992065429688
 20
99.9130020141601562
 30
0.0
 11
110.0029983520507812
 21
101.1500015258789062
 31
0.0
  0
LINE
  5
2E6
100
AcDbEntity
  8
0
 62
256
370
-1
 48
1.0
  6
BYLAYER
100
AcDbLine
 10
110.0029983520507812
 20
101.1500015258789062
 30
0.0
 11
109.8069992065429688
 21
102.3870010375976562
 31
0.0
  0
LINE
  5
2E7
100
AcDbEntity
  8
0
 62
256
370
-1
 48
1.0
  6
BYLAYER
100
AcDbLine
 10
109.8069992065429688
 20
102.3870010375976562
 30
0.0
 11
109.2379989624023438
 21
103.5029983520507812
 31
0.0
  0
LINE
  5
2E8
100
AcDbEntity
  8
0
 62
256
370
-1
 48
1.0
  6
BYLAYER
100
AcDbLine
 10
109.2379989624023438
 20
103.5029983520507812
 30
0.0
 11
108.352996826171875
 21
104.38800048828125
 31
0.0
  0
LINE
  5
2E9
100
AcDbEntity
  8
0
 62
256
370
-1
 48
1.0
  6
BYLAYER
100
AcDbLine
 10
108.352996826171875
 20
104.38800048828125
 30
0.0
 11
107.23699951171875
 21
104.957000732421875
 31
0.0
  0
LINE
  5
2EA
100
AcDbEntity
  8
0
 62
256
370
-1
 48
1.0
  6
BYLAYER
100
AcDbLine
 10
107.23699951171875
 20
104.957000732421875
 30
0.0
 11
106.0
 21
105.1529998779296875
 31
0.0
  0
LINE
  5
2EB
100
AcDbEntity
  8
0
 62
256
370
-1
 48
1.0
  6
BYLAYER
100
AcDbLine
 10
106.0
 20
105.1529998779296875
 30
0.0
 11
104.76300048828125
 21
104.957000732421875
 31
0.0
  0
LINE
  5
2EC
100
AcDbEntity
  8
0
 62
256
370
-1
 48
1.0
  6
BYLAYER
100
AcDbLine
 10
104.76300048828125
 20
104.957000732421875
 30
0.0
 11
103.647003173828125
 21
104.38800048828125
 31
0.0
  0
LINE
  5
2ED
100
AcDbEntity
  8
0
 62
256
370
-1
 48
1.0
  6
BYLAYER
100
AcDbLine
 10
103.647003173828125
 20
104.38800048828125
 30
0.0
 11
102.7620010375976562
 21
103.5029983520507812
 31
0.0
  0
LINE
  5
2EE
100
AcDbEntity
  8
0
 62
256
370
-1
 48
1.0
  6
BYLAYER
100
AcDbLine
 10
102.7620010375976562
 20
103.5029983520507812
 30
0.0
 11
102.1930007934570312
 21
102.3870010375976562
 31
0.0
  0
LINE
  5
2EF
100
AcDbEntity
  8
0
 62
256
370
-1
 48
1.0
  6
BYLAYER
100
AcDbLine
 10
102.1930007934570312
 20
102.3870010375976562
 30
0.0
 11
101.9980010986328125
 21
101.1500015258789062
 31
0.0
  0
LINE
  5
2F0
100
AcDbEntity
  8
0
 62
256
370
-1
 48
1.0
  6
BYLAYER
100
AcDbLine
 10
101.9980010986328125
 20
101.1500015258789062
 30
0.0
 11
102.1930007934570312
 21
99.9130020141601562
 31
0.0
  0
LINE
  5
2F1
100
AcDbEntity
  8
0
 62
256
370
-1
 48
1.0
  6
BYLAYER
100
AcDbLine
 10
102.1930007934570312
 20
99.9130020141601562
 30
0.0
 11
102.7620010375976562
 21
98.7969970703125
 31
0.0
  0
LINE
  5
2F2
100
AcDbEntity
  8
0
 62
256
370
-1
 48
1.0
  6
BYLAYER
100
AcDbLine
 10
231.33099365234375
 20
-147.417999267578125
 30
0.0
 11
230.8339996337890625
 21
-146.4409942626953125
 31
0.0
  0
LINE
  5
2F3
100
AcDbEntity
  8
0
 62
256
370
-1
 48
1.0
  6
BYLAYER
100
AcDbLine
 10
230.8339996337890625
 20
-146.4409942626953125
 30
0.0
 11
230.0590057373046875
 21
-145.6660003662109375
 31
0.0
  0
LINE
  5
2F4
100
AcDbEntity
  8
0
 62
256
370
-1
 48
1.0
  6
BYLAYER
100
AcDbLine
 10
230.0590057373046875
 20
-145.6660003662109375
 30
0.0
 11
229.082000732421875
 21
-145.16900634765625
 31
0.0
  0
LINE
  5
2F5
100
AcDbEntity
  8
0
 62
256
370
-1
 48
1.0
  6
BYLAYER
100
AcDbLine
 10
229.082000732421875
 20
-145.16900634765625
 30
0.0
 11
228.0
 21
-144.9980010986328125
 31
0.0
  0
LINE
  5
2F6
100
AcDbEntity
  8
0
 62
256
370
-1
 48
1.0
  6
BYLAYER
100
AcDbLine
 10
228.0
 20
-144.9980010986328125
 30
0.0
 11
226.917999267578125
 21
-145.16900634765625
 31
0.0
  0
LINE
  5
2F7
100
AcDbEntity
  8
0
 62
256
370
-1
 48
1.0
  6
BYLAYER
100
AcDbLine
 10
226.917999267578125
 20
-145.16900634765625
 30
0.0
 11
225.9409942626953125
 21
-145.6660003662109375
 31
0.0
  0
LINE
  5
2F8
100
AcDbEntity
  8
0
 62
256
370
-1
 48
1.0
  6
BYLAYER
100
AcDbLine
 10
225.9409942626953125
 20
-145.6660003662109375
 30
0.0
 11
225.1660003662109375
 21
-146.4409942626953125
 31
0.0
  0
LINE
  5
2F9
100
AcDbEntity
  8
0
 62
256
370
-1
 48
1.0
  6
BYLAYER
100
AcDbLine
 10
225.1660003662109375
 20
-146.4409942626953125
 30
0.0
 11
224.66900634765625
 21
-147.417999267578125
 31
0.0
  0
LINE
  5
2FA
100
AcDbEntity
  8
0
 62
256
370
-1
 48
1.0
  6
BYLAYER
100
AcDbLine
 10
224.66900634765625
 20
-147.417999267578125
 30
0.0
 11
224.662994384765625
 21
-147.45599365234375
 31
0.0
  0
LINE
  5
2FB
100
AcDbEntity
  8
0
 62
256
370
-1
 48
1.0
  6
BYLAYER
100
AcDbLine
 10
224.662994384765625
 20
-147.45599365234375
 30
0.0
 11
224.4980010986328125
 21
-148.5
 31
0.0
  0
LINE
  5
2FC
100
AcDbEntity
  8
0
 62
256
370
-1
 48
1.0
  6
BYLAYER
100
AcDbLine
 10
224.4980010986328125
 20
-148.5
 30
0.0
 11
224.66900634765625
 21
-149.582000732421875
 31
0.0
  0
LINE
  5
2FD
100
AcDbEntity
  8
0
 62
256
370
-1
 48
1.0
  6
BYLAYER
100
AcDbLine
 10
224.66900634765625
 20
-149.582000732421875
 30
0.0
 11
225.1660003662109375
 21
-150.5590057373046875
 31
0.0
  0
LINE
  5
2FE
100
AcDbEntity
  8
0
 62
256
370
-1
 48
1.0
  6
BYLAYER
100
AcDbLine
 10
225.1660003662109375
 20
-150.5590057373046875
 30
0.0
 11
225.9409942626953125
 21
-151.3339996337890625
 31
0.0
  0
LINE
  5
2FF
100
AcDbEntity
  8
0
 62
256
370
-1
 48
1.0
  6
BYLAYER
100
AcDbLine
 10
225.9409942626953125
 20
-151.3339996337890625
 30
0.0
 11
226.917999267578125
 21
-151.83099365234375
 31
0.0
  0
LINE
  5
300
100
AcDbEntity
  8
0
 62
256
370
-1
 48
1.0
  6
BYLAYER
100
AcDbLine
 10
226.917999267578125
 20
-151.83099365234375
 30
0.0
 11
228.0
 21
-152.0030059814453125
 31
0.0
  0
LINE
  5
301
100
AcDbEntity
  8
0
 62
256
370
-1
 48
1.0
  6
BYLAYER
100
AcDbLine
 10
228.0
 20
-152.0030059814453125
 30
0.0
 11
229.082000732421875
 21
-151.83099365234375
 31
0.0
  0
LINE
  5
302
100
AcDbEntity
  8
0
 62
256
370
-1
 48
1.0
  6
BYLAYER
100
AcDbLine
 10
229.082000732421875
 20
-151.83099365234375
 30
0.0
 11
230.0590057373046875
 21
-151.3339996337890625
 31
0.0
  0
LINE
  5
303
100
AcDbEntity
  8
0
 62
256
370
-1
 48
1.0
  6
BYLAYER
100
AcDbLine
 10
230.0590057373046875
 20
-151.3339996337890625
 30
0.0
 11
230.8339996337890625
 21
-150.5590057373046875
 31
0.0
  0
LINE
  5
304
100
AcDbEntity
  8
0
 62
256
370
-1
 48
1.0
  6
BYLAYER
100
AcDbLine
 10
230.8339996337890625
 20
-150.5590057373046875
 30
0.0
 11
231.33099365234375
 21
-149.582000732421875
 31
0.0
  0
LINE
  5
305
100
AcDbEntity
  8
0
 62
256
370
-1
 48
1.0
  6
BYLAYER
100
AcDbLine
 10
231.33099365234375
 20
-149.582000732421875
 30
0.0
 11
231.5030059814453125
 21
-148.5
 31
0.0
  0
LINE
  5
306
100
AcDbEntity
  8
0
 62
256
370
-1
 48
1.0
  6
BYLAYER
100
AcDbLine
 10
231.5030059814453125
 20
-148.5
 30
0.0
 11
231.3370361328125
 21
-147.45599365234375
 31
0.0
  0
LINE
  5
307
100
AcDbEntity
  8
0
 62
256
370
-1
 48
1.0
  6
BYLAYER
100
AcDbLine
 10
231.3370361328125
 20
-147.45599365234375
 30
0.0
 11
231.33099365234375
 21
-147.417999267578125
 31
0.0
  0
LINE
  5
308
100
AcDbEntity
  8
0
 62
256
370
-1
 48
1.0
  6
BYLAYER
100
AcDbLine
 10
84.9639968872070312
 20
-194.5709991455078125
 30
0.0
 11
84.5
 21
-194.4980010986328125
 31
0.0
  0
LINE
  5
309
100
AcDbEntity
  8
0
 62
256
370
-1
 48
1.0
  6
BYLAYER
100
AcDbLine
 10
84.5
 20
-194.4980010986328125
 30
0.0
 11
84.0360031127929688
 21
-194.5709991455078125
 31
0.0
  0
LINE
  5
30A
100
AcDbEntity
  8
0
 62
256
370
-1
 48
1.0
  6
BYLAYER
100
AcDbLine
 10
84.0360031127929688
 20
-194.5709991455078125
 30
0.0
 11
83.6169967651367188
 21
-194.78399658203125
 31
0.0
  0
LINE
  5
30B
100
AcDbEntity
  8
0
 62
256
370
-1
 48
1.0
  6
BYLAYER
100
AcDbLine
 10
83.6169967651367188
 20
-194.78399658203125
 30
0.0
 11
83.5
 21
-194.9010009765625
 31
0.0
  0
LINE
  5
30C
100
AcDbEntity
  8
0
 62
256
370
-1
 48
1.0
  6
BYLAYER
100
AcDbLine
 10
83.5
 20
-194.9010009765625
 30
0.0
 11
83.28399658203125
 21
-195.11700439453125
 31
0.0
  0
LINE
  5
30D
100
AcDbEntity
  8
0
 62
256
370
-1
 48
1.0
  6
BYLAYER
100
AcDbLine
 10
83.28399658203125
 20
-195.11700439453125
 30
0.0
 11
83.0709991455078125
 21
-195.5359954833984375
 31
0.0
  0
LINE
  5
30E
100
AcDbEntity
  8
0
 62
256
370
-1
 48
1.0
  6
BYLAYER
100
AcDbLine
 10
83.0709991455078125
 20
-195.5359954833984375
 30
0.0
 11
82.9980010986328125
 21
-196.0
 31
0.0
  0
LINE
  5
30F
100
AcDbEntity
  8
0
 62
256
370
-1
 48
1.0
  6
BYLAYER
100
AcDbLine
 10
82.9980010986328125
 20
-196.0
 30
0.0
 11
83.0709991455078125
 21
-196.4640045166015625
 31
0.0
  0
LINE
  5
310
100
AcDbEntity
  8
0
 62
256
370
-1
 48
1.0
  6
BYLAYER
100
AcDbLine
 10
83.0709991455078125
 20
-196.4640045166015625
 30
0.0
 11
83.1442031860351562
 21
-196.608001708984375
 31
0.0
  0
LINE
  5
311
100
AcDbEntity
  8
0
 62
256
370
-1
 48
1.0
  6
BYLAYER
100
AcDbLine
 10
83.1442031860351562
 20
-196.608001708984375
 30
0.0
 11
83.28399658203125
 21
-196.88299560546875
 31
0.0
  0
LINE
  5
312
100
AcDbEntity
  8
0
 62
256
370
-1
 48
1.0
  6
BYLAYER
100
AcDbLine
 10
83.28399658203125
 20
-196.88299560546875
 30
0.0
 11
83.5
 21
-197.0989990234375
 31
0.0
  0
LINE
  5
313
100
AcDbEntity
  8
0
 62
256
370
-1
 48
1.0
  6
BYLAYER
100
AcDbLine
 10
83.5
 20
-197.0989990234375
 30
0.0
 11
83.6169967651367188
 21
-197.21600341796875
 31
0.0
  0
LINE
  5
314
100
AcDbEntity
  8
0
 62
256
370
-1
 48
1.0
  6
BYLAYER
100
AcDbLine
 10
83.6169967651367188
 20
-197.21600341796875
 30
0.0
 11
84.0360031127929688
 21
-197.4290008544921875
 31
0.0
  0
LINE
  5
315
100
AcDbEntity
  8
0
 62
256
370
-1
 48
1.0
  6
BYLAYER
100
AcDbLine
 10
84.0360031127929688
 20
-197.4290008544921875
 30
0.0
 11
84.5
 21
-197.5030059814453125
 31
0.0
  0
LINE
  5
316
100
AcDbEntity
  8
0
 62
256
370
-1
 48
1.0
  6
BYLAYER
100
AcDbLine
 10
84.5
 20
-197.5030059814453125
 30
0.0
 11
84.9639968872070312
 21
-197.4290008544921875
 31
0.0
  0
LINE
  5
317
100
AcDbEntity
  8
0
 62
256
370
-1
 48
1.0
  6
BYLAYER
100
AcDbLine
 10
84.9639968872070312
 20
-197.4290008544921875
 30
0.0
 11
85.3830032348632812
 21
-197.21600341796875
 31
0.0
  0
LINE
  5
318
100
AcDbEntity
  8
0
 62
256
370
-1
 48
1.0
  6
BYLAYER
100
AcDbLine
 10
85.3830032348632812
 20
-197.21600341796875
 30
0.0
 11
85.71600341796875
 21
-196.88299560546875
 31
0.0
  0
LINE
  5
319
100
AcDbEntity
  8
0
 62
256
370
-1
 48
1.0
  6
BYLAYER
100
AcDbLine
 10
85.71600341796875
 20
-196.88299560546875
 30
0.0
 11
85.8557968139648438
 21
-196.608001708984375
 31
0.0
  0
LINE
  5
31A
100
AcDbEntity
  8
0
 62
256
370
-1
 48
1.0
  6
BYLAYER
100
AcDbLine
 10
85.8557968139648438
 20
-196.608001708984375
 30
0.0
 11
85.9290008544921875
 21
-196.4640045166015625
 31
0.0
  0
LINE
  5
31B
100
AcDbEntity
  8
0
 62
256
370
-1
 48
1.0
  6
BYLAYER
100
AcDbLine
 10
85.9290008544921875
 20
-196.4640045166015625
 30
0.0
 11
86.0029983520507812
 21
-196.0
 31
0.0
  0
LINE
  5
31C
100
AcDbEntity
  8
0
 62
256
370
-1
 48
1.0
  6
BYLAYER
100
AcDbLine
 10
86.0029983520507812
 20
-196.0
 30
0.0
 11
85.9290008544921875
 21
-195.5359954833984375
 31
0.0
  0
LINE
  5
31D
100
AcDbEntity
  8
0
 62
256
370
-1
 48
1.0
  6
BYLAYER
100
AcDbLine
 10
85.9290008544921875
 20
-195.5359954833984375
 30
0.0
 11
85.71600341796875
 21
-195.11700439453125
 31
0.0
  0
LINE
  5
31E
100
AcDbEntity
  8
0
 62
256
370
-1
 48
1.0
  6
BYLAYER
100
AcDbLine
 10
85.71600341796875
 20
-195.11700439453125
 30
0.0
 11
85.3830032348632812
 21
-194.78399658203125
 31
0.0
  0
LINE
  5
31F
100
AcDbEntity
  8
0
 62
256
370
-1
 48
1.0
  6
BYLAYER
100
AcDbLine
 10
85.3830032348632812
 20
-194.78399658203125
 30
0.0
 11
84.9639968872070312
 21
-194.5709991455078125
 31
0.0
  0
LINE
  5
320
100
AcDbEntity
  8
0
 62
256
370
-1
 48
1.0
  6
BYLAYER
100
AcDbLine
 10
-151.9029998779296875
 20
184.798004150390625
 30
0.0
 11
-130.0
 21
184.798004150390625
 31
0.0
  0
LINE
  5
321
100
AcDbEntity
  8
0
 62
256
370
-1
 48
1.0
  6
BYLAYER
100
AcDbLine
 10
-130.0
 20
184.798004150390625
 30
0.0
 11
-121.897003173828125
 21
184.798004150390625
 31
0.0
  0
LINE
  5
322
100
AcDbEntity
  8
0
 62
256
370
-1
 48
1.0
  6
BYLAYER
100
AcDbLine
 10
-121.897003173828125
 20
184.798004150390625
 30
0.0
 11
-121.897003173828125
 21
214.8029937744140625
 31
0.0
  0
LINE
  5
323
100
AcDbEntity
  8
0
 62
256
370
-1
 48
1.0
  6
BYLAYER
100
AcDbLine
 10
-121.897003173828125
 20
214.8029937744140625
 30
0.0
 11
-130.0
 21
214.8029937744140625
 31
0.0
  0
LINE
  5
324
100
AcDbEntity
  8
0
 62
256
370
-1
 48
1.0
  6
BYLAYER
100
AcDbLine
 10
-130.0
 20
214.8029937744140625
 30
0.0
 11
-151.9029998779296875
 21
214.8029937744140625
 31
0.0
  0
LINE
  5
325
100
AcDbEntity
  8
0
 62
256
370
-1
 48
1.0
  6
BYLAYER
100
AcDbLine
 10
-151.9029998779296875
 20
214.8029937744140625
 30
0.0
 11
-151.9029998779296875
 21
184.798004150390625
 31
0.0
  0
LINE
  5
326
100
AcDbEntity
  8
0
 62
256
370
-1
 48
1.0
  6
BYLAYER
100
AcDbLine
 10
-221.897003173828125
 20
184.798004150390625
 30
0.0
 11
-221.897003173828125
 21
214.8029937744140625
 31
0.0
  0
LINE
  5
327
100
AcDbEntity
  8
0
 62
256
370
-1
 48
1.0
  6
BYLAYER
100
AcDbLine
 10
-221.897003173828125
 20
214.8029937744140625
 30
0.0
 11
-251.9029998779296875
 21
214.8029937744140625
 31
0.0
  0
LINE
  5
328
100
AcDbEntity
  8
0
 62
256
370
-1
 48
1.0
  6
BYLAYER
100
AcDbLine
 10
-251.9029998779296875
 20
214.8029937744140625
 30
0.0
 11
-251.9029998779296875
 21
184.798004150390625
 31
0.0
  0
LINE
  5
329
100
AcDbEntity
  8
0
 62
256
370
-1
 48
1.0
  6
BYLAYER
100
AcDbLine
 10
-251.9029998779296875
 20
184.798004150390625
 30
0.0
 11
-221.897003173828125
 21
184.798004150390625
 31
0.0
  0
LINE
  5
32A
100
AcDbEntity
  8
0
 62
256
370
-1
 48
1.0
  6
BYLAYER
100
AcDbLine
 10
-260.50299072265625
 20
266.59698486328125
 30
0.0
 11
-238.197998046875
 21
266.59698486328125
 31
0.0
  0
LINE
  5
32B
100
AcDbEntity
  8
0
 62
256
370
-1
 48
1.0
  6
BYLAYER
100
AcDbLine
 10
-238.197998046875
 20
266.59698486328125
 30
0.0
 11
-238.197998046875
 21
278.50299072265625
 31
0.0
  0
LINE
  5
32C
100
AcDbEntity
  8
0
 62
256
370
-1
 48
1.0
  6
BYLAYER
100
AcDbLine
 10
-238.197998046875
 20
278.50299072265625
 30
0.0
 11
-260.50299072265625
 21
278.50299072265625
 31
0.0
  0
LINE
  5
32D
100
AcDbEntity
  8
0
 62
256
370
-1
 48
1.0
  6
BYLAYER
100
AcDbLine
 10
-260.50299072265625
 20
278.50299072265625
 30
0.0
 11
-260.50299072265625
 21
266.59698486328125
 31
0.0
  0
LINE
  5
32E
100
AcDbEntity
  8
0
 62
256
370
-1
 48
1.0
  6
BYLAYER
100
AcDbLine
 10
-124.5019989013671875
 20
263.59698486328125
 30
0.0
 11
-102.197998046875
 21
263.59698486328125
 31
0.0
  0
LINE
  5
32F
100
AcDbEntity
  8
0
 62
256
370
-1
 48
1.0
  6
BYLAYER
100
AcDbLine
 10
-102.197998046875
 20
263.59698486328125
 30
0.0
 11
-102.197998046875
 21
275.50299072265625
 31
0.0
  0
LINE
  5
330
100
AcDbEntity
  8
0
 62
256
370
-1
 48
1.0
  6
BYLAYER
100
AcDbLine
 10
-102.197998046875
 20
275.50299072265625
 30
0.0
 11
-124.5019989013671875
 21
275.50299072265625
 31
0.0
  0
LINE
  5
331
100
AcDbEntity
  8
0
 62
256
370
-1
 48
1.0
  6
BYLAYER
100
AcDbLine
 10
-124.5019989013671875
 20
275.50299072265625
 30
0.0
 11
-124.5019989013671875
 21
263.59698486328125
 31
0.0
  0
ENDSEC
  0
SECTION
  2
OBJECTS
  0
DICTIONARY
  5
C
100
AcDbDictionary
280
0
281
1
  3
ACAD_GROUP
350
D
  3
ACAD_LAYOUT
350
1A
  3
ACAD_MLINESTYLE
350
17
  3
ACAD_PLOTSETTINGS
350
19
  3
ACAD_PLOTSTYLENAME
350
E
  3
AcDbVariableDictionary
350
332
  3
QCAD_OBJECTS
350
333
  0
DICTIONARY
  5
D
100
AcDbDictionary
280
0
281
1
  0
ACDBDICTIONARYWDFLT
  5
E
100
AcDbDictionary
281
1
  3
Normal
350
F
100
AcDbDictionaryWithDefault
340
F
  0
ACDBPLACEHOLDER
  5
F
  0
DICTIONARY
  5
17
100
AcDbDictionary
280
0
281
1
  3
Standard
350
18
  0
MLINESTYLE
  5
18
100
AcDbMlineStyle
  2
STANDARD
 70
0
  3

 62
256
 51
90.0
 52
90.0
 71
2
 49
0.5
 62
256
  6
BYLAYER
 49
-0.5
 62
256
  6
BYLAYER
  0
DICTIONARY
  5
19
100
AcDbDictionary
280
0
281
1
  0
DICTIONARY
  5
1A
100
AcDbDictionary
281
1
  3
Layout1
350
1E
  3
Layout2
350
26
  3
Model
350
22
  0
LAYOUT
  5
1E
100
AcDbPlotSettings
  1

  2
none_device
  4

  6

 40
0.0
 41
0.0
 42
0.0
 43
0.0
 44
0.0
 45
0.0
 46
0.0
 47
0.0
 48
0.0
 49
0.0
140
0.0
141
0.0
142
1.0
143
1.0
 70
688
 72
0
 73
0
 74
5
  7

 75
16
147
1.0
148
0.0
149
0.0
100
AcDbLayout
  1
Layout1
 70
1
 71
1
 10
0.0
 20
0.0
 11
420.0
 21
297.0
 12
0.0
 22
0.0
 32
0.0
 14
100000000000000000000.0
 24
100000000000000000000.0
 34
100000000000000000000.0
 15
-100000000000000000000.0
 25
-100000000000000000000.0
 35
-100000000000000000000.0
146
0.0
 13
0.0
 23
0.0
 33
0.0
 16
1.0
 26
0.0
 36
0.0
 17
0.0
 27
1.0
 37
0.0
 76
0
330
1B
  0
LAYOUT
  5
22
100
AcDbPlotSettings
  1

  2
none_device
  4

  6

 40
0.0
 41
0.0
 42
0.0
 43
0.0
 44
0.0
 45
0.0
 46
0.0
 47
0.0
 48
0.0
 49
0.0
140
0.0
141
0.0
142
1.0
143
1.0
 70
1712
 72
0
 73
0
 74
0
  7

 75
0
147
1.0
148
0.0
149
0.0
100
AcDbLayout
  1
Model
 70
1
 71
0
 10
0.0
 20
0.0
 11
12.0
 21
9.0
 12
0.0
 22
0.0
 32
0.0
 14
0.0
 24
0.0
 34
0.0
 15
0.0
 25
0.0
 35
0.0
146
0.0
 13
0.0
 23
0.0
 33
0.0
 16
1.0
 26
0.0
 36
0.0
 17
0.0
 27
1.0
 37
0.0
 76
0
330
1F
  0
LAYOUT
  5
26
100
AcDbPlotSettings
  1

  2
none_device
  4

  6

 40
0.0
 41
0.0
 42
0.0
 43
0.0
 44
0.0
 45
0.0
 46
0.0
 47
0.0
 48
0.0
 49
0.0
140
0.0
141
0.0
142
1.0
143
1.0
 70
688
 72
0
 73
0
 74
5
  7

 75
16
147
1.0
148
0.0
149
0.0
100
AcDbLayout
  1
Layout2
 70
1
 71
2
 10
0.0
 20
0.0
 11
12.0
 21
9.0
 12
0.0
 22
0.0
 32
0.0
 14
0.0
 24
0.0
 34
0.0
 15
0.0
 25
0.0
 35
0.0
146
0.0
 13
0.0
 23
0.0
 33
0.0
 16
1.0
 26
0.0
 36
0.0
 17
0.0
 27
1.0
 37
0.0
 76
0
330
23
  0
DICTIONARY
  5
332
100
AcDbDictionary
281
1
  3
DIMASSOC
350
335
  3
HIDETEXT
350
334
  0
DICTIONARYVAR
  5
334
100
DictionaryVariables
280
0
  1
2
  0
DICTIONARYVAR
  5
335
100
DictionaryVariables
280
0
  1
1
  0
DICTIONARY
  5
333
100
AcDbDictionary
281
1
  3
ColorSettings/BackgroundColor
350
336
  3
ColorSettings/ColorMode
350
337
  3
Grid/DisplayGrid00
350
338
  3
Grid/DisplayGrid01
350
339
  3
Grid/DisplayGrid02
350
33A
  3
Grid/DisplayGrid03
350
33B
  3
Grid/GridSpacingX00
350
33C
  3
Grid/GridSpacingX01
350
33D
  3
Grid/GridSpacingX02
350
33E
  3
Grid/GridSpacingX03
350
33F
  3
Grid/GridSpacingY00
350
340
  3
Grid/GridSpacingY01
350
341
  3
Grid/GridSpacingY02
350
342
  3
Grid/GridSpacingY03
350
343
  3
Grid/IsometricGrid00
350
344
  3
Grid/IsometricGrid01
350
345
  3
Grid/IsometricGrid02
350
346
  3
Grid/IsometricGrid03
350
347
  3
Grid/IsometricProjection00
350
348
  3
Grid/IsometricProjection01
350
349
  3
Grid/IsometricProjection02
350
34A
  3
Grid/IsometricProjection03
350
34B
  3
Grid/MetaGridSpacingX00
350
34C
  3
Grid/MetaGridSpacingX01
350
34D
  3
Grid/MetaGridSpacingX02
350
34E
  3
Grid/MetaGridSpacingX03
350
34F
  3
Grid/MetaGridSpacingY00
350
350
  3
Grid/MetaGridSpacingY01
350
351
  3
Grid/MetaGridSpacingY02
350
352
  3
Grid/MetaGridSpacingY03
350
353
  3
MultiPageSettings/Columns
350
354
  3
MultiPageSettings/GlueMarginsBottom
350
355
  3
MultiPageSettings/GlueMarginsLeft
350
356
  3
MultiPageSettings/GlueMarginsRight
350
357
  3
MultiPageSettings/GlueMarginsTop
350
358
  3
MultiPageSettings/PrintCropMarks
350
359
  3
MultiPageSettings/Rows
350
35A
  3
PageSettings/OffsetX
350
35B
  3
PageSettings/OffsetY
350
35C
  3
PageSettings/PageOrientation
350
35D
  3
PageSettings/PaperHeight
350
35E
  3
PageSettings/PaperWidth
350
35F
  3
PageSettings/Scale
350
360
  3
PageSettings/ShowPaperBorders
350
361
  3
UnitSettings/PaperUnit
350
362
  3
ViewportCenter
350
363
  3
ViewportHeight
350
364
  3
ViewportWidth
350
365
  0
XRECORD
  5
336
330
333
100
AcDbXrecord
280
1
1000
Blanca
  0
XRECORD
  5
337
330
333
100
AcDbXrecord
280
1
1000
FullColor
  0
XRECORD
  5
338
330
333
100
AcDbXrecord
280
1
290
1
  0
XRECORD
  5
339
330
333
100
AcDbXrecord
280
1
290
1
  0
XRECORD
  5
33A
330
333
100
AcDbXrecord
280
1
290
1
  0
XRECORD
  5
33B
330
333
100
AcDbXrecord
280
1
290
1
  0
XRECORD
  5
33C
330
333
100
AcDbXrecord
280
1
1000
auto
  0
XRECORD
  5
33D
330
333
100
AcDbXrecord
280
1
1000
auto
  0
XRECORD
  5
33E
330
333
100
AcDbXrecord
280
1
1000
auto
  0
XRECORD
  5
33F
330
333
100
AcDbXrecord
280
1
1000
auto
  0
XRECORD
  5
340
330
333
100
AcDbXrecord
280
1
1000
auto
  0
XRECORD
  5
341
330
333
100
AcDbXrecord
280
1
1000
auto
  0
XRECORD
  5
342
330
333
100
AcDbXrecord
280
1
1000
auto
  0
XRECORD
  5
343
330
333
100
AcDbXrecord
280
1
1000
auto
  0
XRECORD
  5
344
330
333
100
AcDbXrecord
280
1
290
0
  0
XRECORD
  5
345
330
333
100
AcDbXrecord
280
1
290
0
  0
XRECORD
  5
346
330
333
100
AcDbXrecord
280
1
290
0
  0
XRECORD
  5
347
330
333
100
AcDbXrecord
280
1
290
0
  0
XRECORD
  5
348
330
333
100
AcDbXrecord
280
1
 90
65537
  0
XRECORD
  5
349
330
333
100
AcDbXrecord
280
1
 90
65537
  0
XRECORD
  5
34A
330
333
100
AcDbXrecord
280
1
 90
65537
  0
XRECORD
  5
34B
330
333
100
AcDbXrecord
280
1
 90
65537
  0
XRECORD
  5
34C
330
333
100
AcDbXrecord
280
1
1000
auto
  0
XRECORD
  5
34D
330
333
100
AcDbXrecord
280
1
1000
auto
  0
XRECORD
  5
34E
330
333
100
AcDbXrecord
280
1
1000
auto
  0
XRECORD
  5
34F
330
333
100
AcDbXrecord
280
1
1000
auto
  0
XRECORD
  5
350
330
333
100
AcDbXrecord
280
1
1000
auto
  0
XRECORD
  5
351
330
333
100
AcDbXrecord
280
1
1000
auto
  0
XRECORD
  5
352
330
333
100
AcDbXrecord
280
1
1000
auto
  0
XRECORD
  5
353
330
333
100
AcDbXrecord
280
1
1000
auto
  0
XRECORD
  5
354
330
333
100
AcDbXrecord
280
1
 90
1
  0
XRECORD
  5
355
330
333
100
AcDbXrecord
280
1
 40
10.0
  0
XRECORD
  5
356
330
333
100
AcDbXrecord
280
1
 40
10.0
  0
XRECORD
  5
357
330
333
100
AcDbXrecord
280
1
 40
10.0
  0
XRECORD
  5
358
330
333
100
AcDbXrecord
280
1
 40
10.0
  0
XRECORD
  5
359
330
333
100
AcDbXrecord
280
1
290
0
  0
XRECORD
  5
35A
330
333
100
AcDbXrecord
280
1
 90
1
  0
XRECORD
  5
35B
330
333
100
AcDbXrecord
280
1
 40
0.0
  0
XRECORD
  5
35C
330
333
100
AcDbXrecord
280
1
 40
0.0
  0
XRECORD
  5
35D
330
333
100
AcDbXrecord
280
1
1000
Portrait
  0
XRECORD
  5
35E
330
333
100
AcDbXrecord
280
1
 40
279.3999999999999773
  0
XRECORD
  5
35F
330
333
100
AcDbXrecord
280
1
 40
215.9000000000000057
  0
XRECORD
  5
360
330
333
100
AcDbXrecord
280
1
1000
1:1
  0
XRECORD
  5
361
330
333
100
AcDbXrecord
280
1
290
1
  0
XRECORD
  5
362
330
333
100
AcDbXrecord
280
1
 90
4
  0
XRECORD
  5
364
330
333
100
AcDbXrecord
280
1
 40
627.1231884057971229
  0
XRECORD
  5
365
330
333
100
AcDbXrecord
280
1
 40
1276.2804347826086087
  0
ENDSEC
  0
EOF
