<?xml version="1.0" standalone="no"?>
<!DOCTYPE svg PUBLIC "-//W3C//DTD SVG 1.1//EN"
  "http://www.w3.org/Graphics/SVG/1.1/DTD/svg11.dtd">
<svg width="574mm" height="586.5mm" viewBox="-292 -292 574 586.5" xmlns="http://www.w3.org/2000/svg" version="1.1">
	<title>svgOutput</title>
	<desc>made with tinkercad</desc>
<path d="M 170 -96 L 170 -126 L 177.4980010986328 -126 L 192.5030059814453 -126 L 200 -126 L 200 -103.49800109863281 L 200 -96 L 177.4980010986328 -96 L 170 -96 M -38 162.0030059814453 L -38 172 L -38 175 L -158 175 L -158 172 L -158 162.0030059814453 L -158 22 L -42.00299835205078 22 L -42.00299835205078 162.0030059814453 L -38 162.0030059814453 M 86 -60 L 86 -90 L 94 -90 L 118 -90 L 120 -90 L 121 -90 L 121 -60 L 86 -60 M -1.089854121208191 -239.9980010986328 L -1.076913595199585 -239.9980010986328 L -0.996999979019165 -239.9980010986328 L -0.9979749917984009 -279.00201416015625 L -0.9979810118675232 -279.2415466308594 L -0.997990071773529 -279.6036682128906 L -0.9979975819587708 -279.9061584472656 L -0.9980000257492065 -280.00201416015625 L -1.089854121208191 -280.00201416015625 L -1.0709999799728394 -280.03900146484375 L -0.998012363910675 -280.49566650390625 L -0.996999979019165 -280.50201416015625 L -0.9980126619338989 -280.50836181640625 L -1.0709999799728394 -280.96600341796875 L -1.284000039100647 -281.3840026855469 L -1.6169999837875366 -281.71600341796875 L -2.0360000133514404 -281.9289855957031 L -2.0480000972747803 -281.930908203125 L -2.5 -282.00299072265625 L -2.9639999866485596 -281.9289855957031 L -3.382999897003174 -281.71600341796875 L -3.7160000801086426 -281.3840026855469 L -3.928999900817871 -280.96600341796875 L -4.002999782562256 -280.50201416015625 L -3.928999900817871 -280.03900146484375 L -3.9101459980010986 -280.00201416015625 L -3.923086404800415 -280.00201416015625 L -4.002999782562256 -280.00201416015625 L -4.002999782562256 -239.9980010986328 L -3.9101459980010986 -239.9980010986328 L -3.928999900817871 -239.96099853515625 L -4.002999782562256 -239.4980010986328 L -3.928999900817871 -239.03399658203125 L -3.7160000801086426 -238.61599731445312 L -3.382999897003174 -238.28399658203125 L -2.9639999866485596 -238.0709991455078 L -2.5 -237.9980010986328 L -2.0480000972747803 -238.06910705566406 L -2.0360000133514404 -238.0709991455078 L -1.6169999837875366 -238.28399658203125 L -1.284000039100647 -238.61599731445312 L -1.0709999799728394 -239.03399658203125 L -0.996999979019165 -239.4980010986328 L -1.0709999799728394 -239.96099853515625 L -1.089854121208191 -239.9980010986328 M 122 -60 L 122 -90 L 144 -90 L 157 -90 L 157 -60 L 122 -60 M 185.06500244140625 -288.9809875488281 L 185.08799743652344 -288.97821044921875 L 185.09800720214844 -288.97698974609375 L 185.1320037841797 -288.9729919433594 L 185.1649932861328 -288.968994140625 L 185.16900634765625 -288.9683837890625 L 185.197998046875 -288.9639892578125 L 185.23199462890625 -288.9590148925781 L 185.23699951171875 -288.9580993652344 L 185.26499938964844 -288.9530029296875 L 185.29800415039062 -288.947998046875 L 185.33200073242188 -288.9419860839844 L 185.343994140625 -288.9398193359375 L 185.36500549316406 -288.9360046386719 L 185.3990020751953 -288.9289855957031 L 185.46499633789062 -288.9150085449219 L 185.49899291992188 -288.9070129394531 L 185.53199768066406 -288.89898681640625 L 185.5659942626953 -288.8909912109375 L 185.57400512695312 -288.8888244628906 L 185.60000610351562 -288.8817138671875 L 185.6320037841797 -288.87298583984375 L 185.66600036621094 -288.864013671875 L 185.69900512695312 -288.8550109863281 L 185.70350646972656 -288.8534851074219 L 185.7220001220703 -288.8473205566406 L 185.73199462890625 -288.843994140625 L 185.76600646972656 -288.8340148925781 L 185.7989959716797 -288.8240051269531 L 185.83299255371094 -288.81201171875 L 185.8560028076172 -288.8043212890625 L 185.86599731445312 -288.8009948730469 L 185.8990020751953 -288.78900146484375 L 185.93299865722656 -288.7770080566406 L 185.95774841308594 -288.76800537109375 L 185.96600341796875 -288.7650146484375 L 186 -288.75201416015625 L 186.0330047607422 -288.7380065917969 L 186.0659942626953 -288.7250061035156 L 186.10000610351562 -288.71099853515625 L 186.16600036621094 -288.6809997558594 L 186.1999969482422 -288.6659851074219 L 186.21499633789062 -288.6587219238281 L 186.23300170898438 -288.6499938964844 L 186.26699829101562 -288.6340026855469 L 186.2830047607422 -288.6257629394531 L 186.33299255371094 -288.6000061035156 L 186.36700439453125 -288.5820007324219 L 186.3679962158203 -288.5814514160156 L 186.43299865722656 -288.5459899902344 L 186.4669952392578 -288.5270080566406 L 186.4917449951172 -288.5119934082031 L 186.5 -288.5069885253906 L 186.53399658203125 -288.48699951171875 L 186.56700134277344 -288.4670104980469 L 186.60000610351562 -288.44500732421875 L 186.63400268554688 -288.42401123046875 L 186.66700744628906 -288.4020080566406 L 186.7010040283203 -288.3789978027344 L 186.72300720214844 -288.3630065917969 L 186.76699829101562 -288.33099365234375 L 186.80099487304688 -288.3059997558594 L 186.83399963378906 -288.281005859375 L 186.86573791503906 -288.2560119628906 L 186.86700439453125 -288.2550048828125 L 186.8800048828125 -288.24468994140625 L 186.9010009765625 -288.2279968261719 L 186.9340057373047 -288.20098876953125 L 186.96800231933594 -288.1730041503906 L 187.00100708007812 -288.1440124511719 L 187.03399658203125 -288.114013671875 L 187.03599548339844 -288.1121826171875 L 187.0679931640625 -288.0830078125 L 187.1009979248047 -288.0509948730469 L 187.13499450683594 -288.0190124511719 L 187.1534423828125 -288 L 187.16799926757812 -287.9849853515625 L 187.2010040283203 -287.95001220703125 L 187.23500061035156 -287.9150085449219 L 187.25250244140625 -287.8953857421875 L 187.26800537109375 -287.87799072265625 L 187.30099487304688 -287.8399963378906 L 187.3350067138672 -287.8009948730469 L 187.336669921875 -287.7989196777344 L 187.3679962158203 -287.760009765625 L 187.38064575195312 -287.7439880371094 L 187.39199829101562 -287.7296447753906 L 187.40199279785156 -287.7170104980469 L 187.43499755859375 -287.67401123046875 L 187.46800231933594 -287.62799072265625 L 187.5019989013672 -287.58099365234375 L 187.5052490234375 -287.5760803222656 L 187.53500366210938 -287.531005859375 L 187.56900024414062 -287.47900390625 L 187.6020050048828 -287.42498779296875 L 187.63499450683594 -287.3680114746094 L 187.66900634765625 -287.3070068359375 L 187.70199584960938 -287.2430114746094 L 187.70733642578125 -287.23199462890625 L 187.73500061035156 -287.17498779296875 L 187.7689971923828 -287.10198974609375 L 187.802001953125 -287.02301025390625 L 187.83599853515625 -286.9360046386719 L 187.86900329589844 -286.8389892578125 L 187.90199279785156 -286.7279968261719 L 187.90406799316406 -286.7200012207031 L 187.93600463867188 -286.59600830078125 L 187.968994140625 -286.4209899902344 L 188 -286.0353088378906 L 188 -285.99798583984375 L 188 -233.5030059814453 L 188 -233.4720001220703 L 188 -233.427001953125 L 188 -233.4145050048828 L 187.99899291992188 -233.40199279785156 L 187.9980010986328 -233.3769989013672 L 187.9949951171875 -233.3520050048828 L 187.9929962158203 -233.32699584960938 L 187.99000549316406 -233.302001953125 L 187.98599243164062 -233.27699279785156 L 187.97799682617188 -233.2270050048828 L 187.97579956054688 -233.21600341796875 L 187.96299743652344 -233.15199279785156 L 187.9510040283203 -233.1020050048828 L 187.92999267578125 -233.02699279785156 L 187.9219970703125 -233.0019989013672 L 187.91299438476562 -232.9759979248047 L 187.90724182128906 -232.9600067138672 L 187.9040069580078 -232.9510040283203 L 187.89500427246094 -232.92599487304688 L 187.86500549316406 -232.8509979248047 L 187.85400390625 -232.8260040283203 L 187.8179931640625 -232.75100708007812 L 187.79356384277344 -232.70399475097656 L 187.79200744628906 -232.7010040283203 L 187.76400756835938 -232.6510009765625 L 187.73399353027344 -232.6009979248047 L 187.70199584960938 -232.55099487304688 L 187.66799926757812 -232.50100708007812 L 187.64999389648438 -232.47500610351562 L 187.6320037841797 -232.4499969482422 L 187.63047790527344 -232.447998046875 L 187.593994140625 -232.39999389648438 L 187.5540008544922 -232.35000610351562 L 187.5330047607422 -232.3249969482422 L 187.48899841308594 -232.27499389648438 L 187.46600341796875 -232.25 L 187.3939971923828 -232.1750030517578 L 187.39199829101562 -232.17308044433594 L 187.3159942626953 -232.10000610351562 L 187.25999450683594 -232.0500030517578 L 187.20199584960938 -232 L 187.17100524902344 -231.9739990234375 L 187.13999938964844 -231.94900512695312 L 187.1233673095703 -231.93600463867188 L 187.10800170898438 -231.9239959716797 L 187.0749969482422 -231.8990020751953 L 187.04100036621094 -231.87399291992188 L 186.9709930419922 -231.82400512695312 L 186.9340057373047 -231.7989959716797 L 186.8800048828125 -231.7634735107422 L 186.85800170898438 -231.74899291992188 L 186.8179931640625 -231.7239990234375 L 186.77699279785156 -231.69900512695312 L 186.73500061035156 -231.6739959716797 L 186.64700317382812 -231.62399291992188 L 186.55299377441406 -231.57400512695312 L 186.50399780273438 -231.5489959716797 L 186.4530029296875 -231.5240020751953 L 186.4010009765625 -231.49899291992188 L 186.3679962158203 -231.4833984375 L 186.3459930419922 -231.47300720214844 L 186.2899932861328 -231.447998046875 L 186.2333526611328 -231.4239959716797 L 186.2310028076172 -231.42300415039062 L 186.17100524902344 -231.3979949951172 L 186.10699462890625 -231.3730010986328 L 186.04100036621094 -231.34800720214844 L 185.9720001220703 -231.322998046875 L 185.89999389648438 -231.29800415039062 L 185.82400512695312 -231.2729949951172 L 185.7429962158203 -231.2480010986328 L 185.6580047607422 -231.22300720214844 L 185.56700134277344 -231.197998046875 L 185.47000122070312 -231.17300415039062 L 185.36399841308594 -231.1479949951172 L 185.343994140625 -231.14369201660156 L 185.2480010986328 -231.1230010986328 L 185.11900329589844 -231.09800720214844 L 184.9709930419922 -231.072998046875 L 184.7949981689453 -231.04800415039062 L 184.56199645996094 -231.0229949951172 L 184.32000732421875 -231.01226806640625 L 184.04312133789062 -231 L 183.9980010986328 -231 L 79 -231 L -0.9967750906944275 -231 L -4.002999782562256 -231 L -12 -231 L -12 -289 L -4.002999782562256 -289 L -0.9982249140739441 -289 L -0.996999979019165 -289 L 79 -289 L 183.9980010986328 -289 L 184.66400146484375 -289 L 184.76600646972656 -289 L 184.79800415039062 -289 L 184.83099365234375 -288.9989929199219 L 184.83200073242188 -288.9989318847656 L 184.86399841308594 -288.99700927734375 L 184.8979949951172 -288.9949951171875 L 184.93099975585938 -288.9930114746094 L 184.93319702148438 -288.9927978515625 L 184.96499633789062 -288.989990234375 L 184.9980010986328 -288.9880065917969 L 185.02565002441406 -288.9846496582031 L 185.031005859375 -288.9840087890625 L 185.06500244140625 -288.9809875488281 M 79 19 L 123 19 L 123 172 L 88.5 172 L 83.5 172 L 48 172 L 48 19 L 79 19 M -130 15 L -283 15 L -283 -71 L -130 -71 L -130 15 M 81 -203 L 81 -190 L 81 -177 L 81 -173 L 79 -173 L 46 -173 L 46 -194 L 46 -203 L 79 -203 L 81 -203 M 148 -167 L 131.9980010986328 -167 L 124 -167 L 124 -173 L 124 -177 L 124 -190 L 124 -202 L 148 -202 L 148 -190 L 148 -177 L 148 -173 L 148 -169.14700317382812 L 148 -167 M -283 19 L -167 19 L -167 22 L -167 172 L -287 172 L -287 19 L -283 19 M -10.5 293.5 L -10.5 293 L -10.5 290 L -10.5 207.5 L 18 207.5 L 23.5 207.5 L 83.5 207.5 L 142.5 207.5 L 142.5 293 L 142.5 293.5 L -10.5 293.5 M 18.954999923706055 193.06100463867188 L 19.016000747680664 193 L 20.06100082397461 191.9550018310547 L 21.454999923706055 191.2449951171875 L 23 191 L 23.5 191.07928466796875 L 23.5 191 L 40 191 L 83.5 191 L 85.04499816894531 191.2449951171875 L 86.43900299072266 191.9550018310547 L 87.48400115966797 193 L 87.54499816894531 193.06100463867188 L 88.25499725341797 194.4550018310547 L 88.5 196 L 88.4035873413086 196.60800170898438 L 88.26165771484375 197.5030059814453 L 88.25499725341797 197.5449981689453 L 87.54499816894531 198.93899536132812 L 86.43900299072266 200.0449981689453 L 85.04499816894531 200.7550048828125 L 83.5 201 L 82.99800109863281 201 L 23.5 201 L 23.5 200.92071533203125 L 23 201 L 21.454999923706055 200.7550048828125 L 20.99799919128418 200.52223205566406 L 20.06100082397461 200.0449981689453 L 18.954999923706055 198.93899536132812 L 18.2450008392334 197.5449981689453 L 18.09641456604004 196.60800170898438 L 18 196 L 18.2450008392334 194.4550018310547 L 18.954999923706055 193.06100463867188 M -34 -248 L -88 -248 L -102.197998046875 -248 L -124.50199890136719 -248 L -130 -248 L -134 -248 L -134 -288 L -130 -288 L -124.50199890136719 -288 L -102.197998046875 -288 L -88 -288 L -34 -288 L -34 -248 M 171 -190 L 171 -203 L 171 -220 L 178.4980010986328 -220 L 188 -220 L 193.5030059814453 -220 L 201 -220 L 201 -197.4980010986328 L 201 -190 L 178.4980010986328 -190 L 171 -190 M 79 -60 L 79 15 L 28.996999740600586 15 L -76.99800109863281 15 L -88 15 L -127 15 L -127 -71.24800109863281 L -88 -71.24800109863281 L -76.99800109863281 -71.24800109863281 L -76.99800109863281 -194 L 28.996999740600586 -194 L 28.996999740600586 -173 L 28.996999740600586 -71.24800109863281 L 79 -71.24800109863281 L 79 -60 M 122 -203 L 122 -190 L 122 -177 L 122 -173 L 122 -170.14700317382812 L 122 -168 L 105.99800109863281 -168 L 98 -168 L 98 -173 L 98 -177 L 98 -190 L 98 -203 L 122 -203 M -127 -82 L -130 -82 L -151.9029998779297 -82 L -221.89700317382812 -82 L -251.9029998779297 -82 L -283 -82 L -288 -82 L -288 -235 L -283 -235 L -270 -235 L -251.9029998779297 -235 L -221.89700317382812 -235 L -151.9029998779297 -235 L -150 -235 L -134 -235 L -130 -235 L -121.89700317382812 -235 L -88 -235 L -88 -203 L -88 -194 L -88 -82 L -121.89700317382812 -82 L -127 -82 M 179 -147 L 179 -173 L 179 -177 L 214 -177 L 214 -173 L 214 -147 L 179 -147 M 144 -129 L 144 -126 L 144 -96.14800262451172 L 144 -96 L 144 -94 L 120 -94 L 120 -96 L 120 -126 L 120 -129 L 144 -129 M -138 184 L -138 193 L -138 290 L -291 290 L -291 193 L -291 184 L -138 184 M -35 174 L -35 172 L -35 22 L -35 21 L 40 21 L 40 172 L 40 174 L 23.5 174 L 18 174 L -35 174 M 118 -95 L 94 -95 L 94 -96 L 94 -126 L 94 -130 L 118 -130 L 118 -126 L 118 -97.14800262451172 L 118 -96 L 118 -95 M -150 -251 L -238.197998046875 -251 L -260.50299072265625 -251 L -270 -251 L -270 -291 L -260.50299072265625 -291 L -238.197998046875 -291 L -150 -291 L -150 -251 M 175 282 L 175 193 L 175 172 L 175 129 L 224.4980010986328 129 L 231.5030059814453 129 L 281 129 L 281 152.0030059814453 L 281 172 L 281 193 L 281 282 L 175 282 M 136.9656219482422 -177 L 136 -177.1529998779297 L 135.0343780517578 -177 L 134.76300048828125 -176.95700073242188 L 133.64700317382812 -176.38800048828125 L 132.76199340820312 -175.5030059814453 L 132.1929931640625 -174.38699340820312 L 131.9980010986328 -173.14999389648438 L 132.0216522216797 -173 L 132.1742401123047 -172.03199768066406 L 132.1929931640625 -171.91299438476562 L 132.76199340820312 -170.7969970703125 L 133.64700317382812 -169.91200256347656 L 134.76300048828125 -169.34300231933594 L 136 -169.14700317382812 L 137.23699951171875 -169.34300231933594 L 138.35299682617188 -169.91200256347656 L 139.23800659179688 -170.7969970703125 L 139.8070068359375 -171.91299438476562 L 139.8258514404297 -172.03199768066406 L 139.97923278808594 -173 L 140.0030059814453 -173.14999389648438 L 139.8070068359375 -174.38699340820312 L 139.23800659179688 -175.5030059814453 L 138.35299682617188 -176.38800048828125 L 137.23699951171875 -176.95700073242188 L 136.9656219482422 -177 M 192.13499450683594 -108.68199920654297 L 192.5030059814453 -111 L 192.13499450683594 -113.31800079345703 L 191.43756103515625 -114.68800354003906 L 191.07000732421875 -115.41000366210938 L 189.41000366210938 -117.06999969482422 L 187.3179931640625 -118.13500213623047 L 185 -118.50299835205078 L 182.6820068359375 -118.13500213623047 L 180.58999633789062 -117.06999969482422 L 178.92999267578125 -115.41000366210938 L 178.56243896484375 -114.68800354003906 L 177.86500549316406 -113.31800079345703 L 177.4980010986328 -111 L 177.86500549316406 -108.68199920654297 L 178.92999267578125 -106.58999633789062 L 180.58999633789062 -104.93000030517578 L 182.6820068359375 -103.86499786376953 L 185 -103.49800109863281 L 187.3179931640625 -103.86499786376953 L 189.41000366210938 -104.93000030517578 L 191.07000732421875 -106.58999633789062 L 192.13499450683594 -108.68199920654297 M 183.6820068359375 -197.86500549316406 L 186 -197.4980010986328 L 188.3179931640625 -197.86500549316406 L 190.41000366210938 -198.92999267578125 L 192.07000732421875 -200.58999633789062 L 193.13499450683594 -202.6820068359375 L 193.47125244140625 -204.8000030517578 L 193.5030059814453 -205 L 193.13499450683594 -207.3179931640625 L 192.07000732421875 -209.41000366210938 L 190.41000366210938 -211.07000732421875 L 188.3179931640625 -212.13499450683594 L 186 -212.5030059814453 L 183.6820068359375 -212.13499450683594 L 181.58999633789062 -211.07000732421875 L 179.92999267578125 -209.41000366210938 L 178.86500549316406 -207.3179931640625 L 178.4980010986328 -205 L 178.5296630859375 -204.8000030517578 L 178.86500549316406 -202.6820068359375 L 179.92999267578125 -200.58999633789062 L 181.58999633789062 -198.92999267578125 L 183.6820068359375 -197.86500549316406 M 113.23799896240234 -176.5030059814453 L 112.74099731445312 -177 L 112.35299682617188 -177.38800048828125 L 111.23699951171875 -177.95700073242188 L 110 -178.1529998779297 L 108.76300048828125 -177.95700073242188 L 107.64700317382812 -177.38800048828125 L 107.25900268554688 -177 L 106.76200103759766 -176.5030059814453 L 106.19300079345703 -175.38699340820312 L 105.99800109863281 -174.14999389648438 L 106.17928314208984 -173 L 106.19300079345703 -172.91299438476562 L 106.64218139648438 -172.03199768066406 L 106.76200103759766 -171.7969970703125 L 107.64700317382812 -170.91200256347656 L 108.76300048828125 -170.34300231933594 L 110 -170.14700317382812 L 111.23699951171875 -170.34300231933594 L 112.35299682617188 -170.91200256347656 L 113.23799896240234 -171.7969970703125 L 113.35781860351562 -172.03199768066406 L 113.80699920654297 -172.91299438476562 L 113.82078552246094 -173 L 114.00299835205078 -174.14999389648438 L 113.80699920654297 -175.38699340820312 L 113.23799896240234 -176.5030059814453 M 135.8070068359375 -98.91300201416016 L 136.0030059814453 -100.1500015258789 L 135.8070068359375 -101.38700103759766 L 135.23800659179688 -102.50299835205078 L 134.35299682617188 -103.38800048828125 L 133.23699951171875 -103.95700073242188 L 132 -104.15299987792969 L 130.76300048828125 -103.95700073242188 L 129.64700317382812 -103.38800048828125 L 128.76199340820312 -102.50299835205078 L 128.1929931640625 -101.38700103759766 L 127.99800109863281 -100.1500015258789 L 128.1929931640625 -98.91300201416016 L 128.50350952148438 -98.30400085449219 L 128.76199340820312 -97.7969970703125 L 129.64700317382812 -96.91200256347656 L 130.76300048828125 -96.34300231933594 L 132 -96.14800262451172 L 133.23699951171875 -96.34300231933594 L 134.35299682617188 -96.91200256347656 L 135.23800659179688 -97.7969970703125 L 135.49649047851562 -98.30400085449219 L 135.8070068359375 -98.91300201416016 M 23.5 194.9010009765625 L 23.382999420166016 194.78399658203125 L 22.964000701904297 194.5709991455078 L 22.5 194.4980010986328 L 22.035999298095703 194.5709991455078 L 21.617000579833984 194.78399658203125 L 21.284000396728516 195.11700439453125 L 21.070999145507812 195.53599548339844 L 20.99799919128418 196 L 21.070999145507812 196.46400451660156 L 21.144203186035156 196.60800170898438 L 21.284000396728516 196.88299560546875 L 21.617000579833984 197.21600341796875 L 22.035999298095703 197.4290008544922 L 22.5 197.5030059814453 L 22.964000701904297 197.4290008544922 L 23.382999420166016 197.21600341796875 L 23.5 197.0989990234375 L 23.715999603271484 196.88299560546875 L 23.855796813964844 196.60800170898438 L 23.929000854492188 196.46400451660156 L 24.003000259399414 196 L 23.929000854492188 195.53599548339844 L 23.715999603271484 195.11700439453125 L 23.5 194.9010009765625 M 102.76200103759766 -98.7969970703125 L 103.25499725341797 -98.30400085449219 L 103.64700317382812 -97.91200256347656 L 104.76300048828125 -97.34300231933594 L 106 -97.14800262451172 L 107.23699951171875 -97.34300231933594 L 108.35299682617188 -97.91200256347656 L 108.74500274658203 -98.30400085449219 L 109.23799896240234 -98.7969970703125 L 109.80699920654297 -99.91300201416016 L 110.00299835205078 -101.1500015258789 L 109.80699920654297 -102.38700103759766 L 109.23799896240234 -103.50299835205078 L 108.35299682617188 -104.38800048828125 L 107.23699951171875 -104.95700073242188 L 106 -105.15299987792969 L 104.76300048828125 -104.95700073242188 L 103.64700317382812 -104.38800048828125 L 102.76200103759766 -103.50299835205078 L 102.19300079345703 -102.38700103759766 L 101.99800109863281 -101.1500015258789 L 102.19300079345703 -99.91300201416016 L 102.76200103759766 -98.7969970703125 M 231.33099365234375 147.41799926757812 L 230.83399963378906 146.4409942626953 L 230.0590057373047 145.66600036621094 L 229.08200073242188 145.16900634765625 L 228 144.9980010986328 L 226.91799926757812 145.16900634765625 L 225.9409942626953 145.66600036621094 L 225.16600036621094 146.4409942626953 L 224.66900634765625 147.41799926757812 L 224.66299438476562 147.45599365234375 L 224.4980010986328 148.5 L 224.66900634765625 149.58200073242188 L 225.16600036621094 150.5590057373047 L 225.9409942626953 151.33399963378906 L 226.91799926757812 151.83099365234375 L 228 152.0030059814453 L 229.08200073242188 151.83099365234375 L 230.0590057373047 151.33399963378906 L 230.83399963378906 150.5590057373047 L 231.33099365234375 149.58200073242188 L 231.5030059814453 148.5 L 231.3370361328125 147.45599365234375 L 231.33099365234375 147.41799926757812 M 84.96399688720703 194.5709991455078 L 84.5 194.4980010986328 L 84.03600311279297 194.5709991455078 L 83.61699676513672 194.78399658203125 L 83.5 194.9010009765625 L 83.28399658203125 195.11700439453125 L 83.07099914550781 195.53599548339844 L 82.99800109863281 196 L 83.07099914550781 196.46400451660156 L 83.14420318603516 196.60800170898438 L 83.28399658203125 196.88299560546875 L 83.5 197.0989990234375 L 83.61699676513672 197.21600341796875 L 84.03600311279297 197.4290008544922 L 84.5 197.5030059814453 L 84.96399688720703 197.4290008544922 L 85.38300323486328 197.21600341796875 L 85.71600341796875 196.88299560546875 L 85.85579681396484 196.60800170898438 L 85.92900085449219 196.46400451660156 L 86.00299835205078 196 L 85.92900085449219 195.53599548339844 L 85.71600341796875 195.11700439453125 L 85.38300323486328 194.78399658203125 L 84.96399688720703 194.5709991455078 M -151.9029998779297 -184.79800415039062 L -130 -184.79800415039062 L -121.89700317382812 -184.79800415039062 L -121.89700317382812 -214.80299377441406 L -130 -214.80299377441406 L -151.9029998779297 -214.80299377441406 L -151.9029998779297 -184.79800415039062 M -221.89700317382812 -184.79800415039062 L -221.89700317382812 -214.80299377441406 L -251.9029998779297 -214.80299377441406 L -251.9029998779297 -184.79800415039062 L -221.89700317382812 -184.79800415039062 M -260.50299072265625 -266.59698486328125 L -238.197998046875 -266.59698486328125 L -238.197998046875 -278.50299072265625 L -260.50299072265625 -278.50299072265625 L -260.50299072265625 -266.59698486328125 M -124.50199890136719 -263.59698486328125 L -102.197998046875 -263.59698486328125 L -102.197998046875 -275.50299072265625 L -124.50199890136719 -275.50299072265625 L -124.50199890136719 -263.59698486328125 z" fill="none" stroke="rgb(255,0,0)" stroke-width="0.001mm" />
</svg>